AnekTamil-SemiCondensed.ufo
<glyph name="exclam" format="2">
  <advance width="411.4225"/>
  <unicode hex="0021"/>
  <outline>
    <contour>
      <point x="268.15000000000003" y="385.405" type="line"/>
      <point x="287.38750000000005" y="1278.0" type="line"/>
      <point x="123.92750000000001" y="1278.0" type="line"/>
      <point x="143.2725" y="385.405" type="line"/>
    </contour>
    <contour>
      <point x="206.335" y="-17.565" type="curve" smooth="yes"/>
      <point x="267.66" y="-17.565"/>
      <point x="297.6075" y="20.9525"/>
      <point x="297.6075" y="90.67500000000001" type="curve" smooth="yes"/>
      <point x="297.6075" y="104.06750000000001" type="line" smooth="yes"/>
      <point x="297.6075" y="172.79000000000002"/>
      <point x="267.66" y="211.3075"/>
      <point x="206.335" y="211.3075" type="curve" smooth="yes"/>
      <point x="143.655" y="211.3075"/>
      <point x="115.38499999999999" y="172.79000000000002"/>
      <point x="115.38499999999999" y="104.06750000000001" type="curve" smooth="yes"/>
      <point x="115.38499999999999" y="90.67500000000001" type="line" smooth="yes"/>
      <point x="115.38499999999999" y="20.9525"/>
      <point x="143.655" y="-17.565"/>
    </contour>
  </outline>
</glyph>
<glyph name="numbersign" format="2">
  <advance width="1005.975"/>
  <unicode hex="0023"/>
  <outline>
    <contour>
      <point x="180.9325" y="0.0" type="line"/>
      <point x="304.745" y="0.0" type="line"/>
      <point x="439.305" y="1278.0" type="line"/>
      <point x="315.49249999999995" y="1278.0" type="line"/>
    </contour>
    <contour>
      <point x="54.940000000000005" y="341.545" type="line"/>
      <point x="902.75" y="341.545" type="line"/>
      <point x="902.75" y="455.47" type="line"/>
      <point x="54.940000000000005" y="455.47" type="line"/>
    </contour>
    <contour>
      <point x="569.24" y="0.0" type="line"/>
      <point x="693.5525" y="0.0" type="line"/>
      <point x="825.8275" y="1278.0" type="line"/>
      <point x="701.6225000000001" y="1278.0" type="line"/>
    </contour>
    <contour>
      <point x="105.50999999999999" y="828.4275" type="line"/>
      <point x="951.4275" y="828.4275" type="line"/>
      <point x="951.4275" y="942.46" type="line"/>
      <point x="105.50999999999999" y="942.46" type="line"/>
    </contour>
  </outline>
</glyph>
<glyph name="dollar" format="2">
  <advance width="821.6324999999999"/>
  <unicode hex="0024"/>
  <anchor x="399.905" y="0.0" name="bottom"/>
  <anchor x="399.905" y="1278.0" name="top"/>
  <outline>
    <contour>
      <point x="472.9675" y="1214.8075000000001" type="line"/>
      <point x="472.9675" y="1467.9725" type="line"/>
      <point x="337.38" y="1467.9725" type="line"/>
      <point x="337.38" y="1214.8075000000001" type="line"/>
    </contour>
    <contour>
      <point x="472.9675" y="-197.07999999999998" type="line"/>
      <point x="472.9675" y="55.67" type="line"/>
      <point x="337.38" y="55.67" type="line"/>
      <point x="337.38" y="-197.07999999999998" type="line"/>
    </contour>
    <component base="S"/>
  </outline>
</glyph>
<glyph name="percent" format="2">
  <advance width="1289.8475"/>
  <unicode hex="0025"/>
  <outline>
    <contour>
      <point x="255.43499999999997" y="0.0" type="line"/>
      <point x="395.555" y="0.0" type="line"/>
      <point x="1035.9825" y="1278.0" type="line"/>
      <point x="896.6475" y="1278.0" type="line"/>
    </contour>
    <contour>
      <point x="976.5074999999999" y="-22.387500000000003" type="curve" smooth="yes"/>
      <point x="1132.6925" y="-22.387500000000003"/>
      <point x="1214.785" y="70.9625"/>
      <point x="1214.785" y="233.12" type="curve" smooth="yes"/>
      <point x="1214.785" y="373.14500000000004" type="line" smooth="yes"/>
      <point x="1214.785" y="535.5175"/>
      <point x="1132.8" y="627.975"/>
      <point x="976.5074999999999" y="627.975" type="curve" smooth="yes"/>
      <point x="820.6075000000001" y="627.975"/>
      <point x="739.1925" y="534.7325000000001"/>
      <point x="739.1925" y="373.14500000000004" type="curve" smooth="yes"/>
      <point x="739.1925" y="233.12" type="line" smooth="yes"/>
      <point x="739.1925" y="70.9625"/>
      <point x="820.1075000000001" y="-22.387500000000003"/>
    </contour>
    <contour>
      <point x="976.5074999999999" y="86.15" type="curve" smooth="yes"/>
      <point x="903.945" y="86.15"/>
      <point x="867.215" y="134.31"/>
      <point x="867.215" y="228.195" type="curve" smooth="yes"/>
      <point x="867.215" y="377.39250000000004" type="line" smooth="yes"/>
      <point x="867.215" y="471.5625"/>
      <point x="903.445" y="519.8299999999999"/>
      <point x="976.5074999999999" y="519.8299999999999" type="curve" smooth="yes"/>
      <point x="1049.355" y="519.8299999999999"/>
      <point x="1085.585" y="471.5625"/>
      <point x="1085.585" y="377.39250000000004" type="curve" smooth="yes"/>
      <point x="1085.585" y="228.195" type="line" smooth="yes"/>
      <point x="1085.585" y="134.31"/>
      <point x="1049.855" y="86.15"/>
    </contour>
    <contour>
      <point x="312.485" y="649.6324999999999" type="curve" smooth="yes"/>
      <point x="468.67" y="649.6324999999999"/>
      <point x="550.37" y="742.9825"/>
      <point x="550.37" y="903.9625" type="curve" smooth="yes"/>
      <point x="550.37" y="1044.7724999999998" type="line" smooth="yes"/>
      <point x="550.37" y="1205.4675"/>
      <point x="468.77750000000003" y="1298.3174999999999"/>
      <point x="312.485" y="1298.3174999999999" type="curve" smooth="yes"/>
      <point x="155.6925" y="1298.3174999999999"/>
      <point x="74.385" y="1205.4675"/>
      <point x="74.385" y="1044.7724999999998" type="curve" smooth="yes"/>
      <point x="74.385" y="903.9625" type="line" smooth="yes"/>
      <point x="74.385" y="742.59"/>
      <point x="155.6925" y="649.6324999999999"/>
    </contour>
    <contour>
      <point x="312.485" y="757.67" type="curve" smooth="yes"/>
      <point x="239.92249999999999" y="757.67"/>
      <point x="203.1925" y="805.045"/>
      <point x="203.1925" y="899.3225" type="curve" smooth="yes"/>
      <point x="203.1925" y="1049.02" type="line" smooth="yes"/>
      <point x="203.1925" y="1142.2975"/>
      <point x="239.42249999999999" y="1191.065"/>
      <point x="312.485" y="1191.065" type="curve" smooth="yes"/>
      <point x="384.94" y="1191.065"/>
      <point x="421.17" y="1142.2975"/>
      <point x="421.17" y="1049.02" type="curve" smooth="yes"/>
      <point x="421.17" y="899.3225" type="line" smooth="yes"/>
      <point x="421.17" y="805.045"/>
      <point x="385.0475" y="757.67"/>
    </contour>
  </outline>
</glyph>
<glyph name="ampersand" format="2">
  <advance width="1033.465"/>
  <unicode hex="0026"/>
  <outline>
    <contour>
      <point x="877.4625000000001" y="0.0" type="curve"/>
      <point x="1048.9925" y="0.0" type="line"/>
      <point x="1048.9925" y="11.135" type="line"/>
      <point x="971.4425000000001" y="108.9975"/>
      <point x="871.6525" y="236.9375"/>
      <point x="796.78" y="326.84250000000003" type="curve"/>
      <point x="764.015" y="369.10249999999996" type="line"/>
      <point x="410.18" y="783.705" type="line" smooth="yes"/>
      <point x="344.11" y="863.3125"/>
      <point x="315.1425" y="921.2850000000001"/>
      <point x="315.1425" y="995.735" type="curve" smooth="yes"/>
      <point x="315.1425" y="1002.6325" type="line" smooth="yes"/>
      <point x="315.1425" y="1097.2475"/>
      <point x="366.72249999999997" y="1157.1275"/>
      <point x="492.53749999999997" y="1157.1275" type="curve" smooth="yes"/>
      <point x="593.3325" y="1157.1275"/>
      <point x="674.4725" y="1125.6225000000002"/>
      <point x="739.3275" y="1086.5425" type="curve"/>
      <point x="726.655" y="1230.9850000000001" type="line"/>
      <point x="670.305" y="1266.99"/>
      <point x="583.595" y="1298.3174999999999"/>
      <point x="463.13749999999993" y="1298.3174999999999" type="curve" smooth="yes"/>
      <point x="257.05" y="1298.3174999999999"/>
      <point x="154.7525" y="1187.8975"/>
      <point x="154.7525" y="1007.235" type="curve" smooth="yes"/>
      <point x="154.7525" y="999.2675" type="line" smooth="yes"/>
      <point x="154.7525" y="891.0575"/>
      <point x="191.6775" y="818.02"/>
      <point x="266.7425" y="726.385" type="curve"/>
      <point x="292.0125" y="691.8349999999999" type="line"/>
      <point x="679.005" y="243.8225" type="line"/>
      <point x="696.8549999999999" y="221.365" type="line"/>
      <point x="730.1775" y="182.295"/>
      <point x="840.8175000000001" y="44.6775"/>
    </contour>
    <contour>
      <point x="424.6475" y="-20.425" type="curve" smooth="yes"/>
      <point x="611.73" y="-20.425"/>
      <point x="709.87" y="60.2625"/>
      <point x="790.3924999999999" y="208.6375" type="curve"/>
      <point x="825.5075" y="252.7475" type="line"/>
      <point x="900.09" y="394.52750000000003"/>
      <point x="940.4775000000001" y="584.8075"/>
      <point x="956.585" y="811.78" type="curve"/>
      <point x="803.76" y="811.78" type="line"/>
      <point x="792.47" y="629.5025"/>
      <point x="769.0725" y="479.6225"/>
      <point x="721.755" y="356.8275" type="curve"/>
      <point x="686.6025" y="296.04499999999996" type="line"/>
      <point x="632.0600000000001" y="178.4675"/>
      <point x="558.1574999999999" y="113.3075"/>
      <point x="438.7074999999999" y="113.3075" type="curve" smooth="yes"/>
      <point x="304.4625" y="113.3075"/>
      <point x="236.30249999999998" y="187.7525"/>
      <point x="236.30249999999998" y="337.755" type="curve" smooth="yes"/>
      <point x="236.30249999999998" y="426.65" type="line" smooth="yes"/>
      <point x="236.30249999999998" y="539.25"/>
      <point x="266.35" y="606.1675"/>
      <point x="351.52" y="657.3225" type="curve"/>
      <point x="269.14500000000004" y="768.9625" type="line"/>
      <point x="127.36500000000001" y="682.29"/>
      <point x="77.4825" y="576.7099999999999"/>
      <point x="77.4825" y="413.3375" type="curve" smooth="yes"/>
      <point x="77.4825" y="327.4425" type="line" smooth="yes"/>
      <point x="77.4825" y="101.63499999999999"/>
      <point x="190.6125" y="-20.425"/>
    </contour>
  </outline>
</glyph>
<glyph name="quotesingle" format="2">
  <advance width="315.23"/>
  <unicode hex="0027"/>
  <outline>
    <contour>
      <point x="218.2525" y="860.96" type="line"/>
      <point x="233.35" y="1327.575" type="line"/>
      <point x="81.88" y="1327.575" type="line"/>
      <point x="97.085" y="860.96" type="line"/>
    </contour>
  </outline>
</glyph>
<glyph name="parenleft" format="2">
  <advance width="496.7675"/>
  <unicode hex="0028"/>
  <outline>
    <contour>
      <point x="266.4625" y="642.7125" type="line" smooth="yes"/>
      <point x="266.4625" y="939.7125"/>
      <point x="320.91999999999996" y="1146.8325"/>
      <point x="460.0275" y="1351.3925000000002" type="curve"/>
      <point x="302.88" y="1351.3925000000002" type="line"/>
      <point x="173.3425" y="1161.1125000000002"/>
      <point x="118.95500000000001" y="956.6"/>
      <point x="118.95500000000001" y="648.2824999999999" type="curve" smooth="yes"/>
      <point x="118.95500000000001" y="461.8625" type="line" smooth="yes"/>
      <point x="118.95500000000001" y="152.8675"/>
      <point x="172.16500000000002" y="-51.36"/>
      <point x="302.095" y="-241.2475" type="curve"/>
      <point x="460.0275" y="-241.2475" type="line"/>
      <point x="320.91999999999996" y="-36.58"/>
      <point x="266.4625" y="170.04"/>
      <point x="266.4625" y="468.325" type="curve" smooth="yes"/>
    </contour>
  </outline>
</glyph>
<glyph name="parenright" format="2">
  <advance width="497.5525"/>
  <unicode hex="0029"/>
  <outline>
    <contour>
      <point x="231.08999999999997" y="642.7125" type="curve" smooth="yes"/>
      <point x="231.08999999999997" y="468.325" type="line" smooth="yes"/>
      <point x="231.08999999999997" y="170.04"/>
      <point x="176.6325" y="-36.58"/>
      <point x="37.525" y="-241.2475" type="curve"/>
      <point x="195.45749999999998" y="-241.2475" type="line"/>
      <point x="325.3875" y="-51.36"/>
      <point x="378.5975" y="152.8675"/>
      <point x="378.5975" y="461.8625" type="curve" smooth="yes"/>
      <point x="378.5975" y="648.2824999999999" type="line" smooth="yes"/>
      <point x="378.5975" y="956.6"/>
      <point x="324.21" y="1161.1125000000002"/>
      <point x="194.67249999999999" y="1351.3925000000002" type="curve"/>
      <point x="37.525" y="1351.3925000000002" type="line"/>
      <point x="176.6325" y="1146.8325"/>
      <point x="231.08999999999997" y="939.7125"/>
    </contour>
  </outline>
</glyph>
<glyph name="asterisk" format="2">
  <advance width="693.4475"/>
  <unicode hex="002A"/>
  <outline>
    <contour>
      <point x="214.11" y="692.6575" type="line"/>
      <point x="345.10249999999996" y="890.1875" type="line"/>
      <point x="347.06" y="890.1875" type="line"/>
      <point x="478.3375" y="692.6575" type="line"/>
      <point x="583.735" y="762.5425" type="line"/>
      <point x="429.96750000000003" y="949.0074999999999" type="line"/>
      <point x="430.0" y="950.105" type="line"/>
      <point x="645.5025" y="999.4100000000001" type="line"/>
      <point x="615.8774999999999" y="1121.76" type="line"/>
      <point x="398.95" y="1044.7925" type="line"/>
      <point x="398.70750000000004" y="1044.75" type="line"/>
      <point x="414.1975" y="1278.0" type="line"/>
      <point x="279.3575" y="1278.0" type="line"/>
      <point x="294.3475" y="1044.75" type="line"/>
      <point x="293.89" y="1044.7925" type="line"/>
      <point x="76.9625" y="1121.76" type="line"/>
      <point x="47.945" y="999.4100000000001" type="line"/>
      <point x="262.555" y="950.105" type="line"/>
      <point x="262.695" y="949.0074999999999" type="line"/>
      <point x="108.82" y="762.5425" type="line"/>
    </contour>
  </outline>
</glyph>
<glyph name="plus" format="2">
  <advance width="829.045"/>
  <unicode hex="002B"/>
  <outline>
    <contour>
      <point x="480.9075" y="255.86499999999995" type="line"/>
      <point x="480.9075" y="1002.6025000000001" type="line"/>
      <point x="348.35249999999996" y="1002.6025000000001" type="line"/>
      <point x="348.35249999999996" y="255.86499999999995" type="line"/>
    </contour>
    <contour>
      <point x="80.6875" y="566.2225" type="line"/>
      <point x="748.3575" y="566.2225" type="line"/>
      <point x="748.3575" y="692.245" type="line"/>
      <point x="80.6875" y="692.245" type="line"/>
    </contour>
  </outline>
</glyph>
<glyph name="comma" format="2">
  <advance width="333.715"/>
  <unicode hex="002C"/>
  <outline>
    <contour>
      <point x="242.5225" y="266.31" type="curve"/>
      <point x="95.515" y="266.31" type="line"/>
      <point x="100.23" y="224.815"/>
      <point x="102.55250000000001" y="186.20749999999998"/>
      <point x="102.55250000000001" y="143.2825" type="curve" smooth="yes"/>
      <point x="102.55250000000001" y="0.3250000000000008"/>
      <point x="70.55250000000001" y="-113.815"/>
      <point x="9.440000000000001" y="-216.77749999999997" type="curve"/>
      <point x="114.82750000000001" y="-253.73000000000002" type="line"/>
      <point x="212.85000000000002" y="-131.88000000000002"/>
      <point x="251.915" y="-3.7824999999999993"/>
      <point x="251.915" y="149.2775" type="curve" smooth="yes"/>
      <point x="251.915" y="196.70749999999998"/>
      <point x="246.30749999999998" y="240.74499999999998"/>
    </contour>
  </outline>
</glyph>
<glyph name="hyphen" format="2">
  <advance width="694.1"/>
  <unicode hex="002D"/>
  <outline>
    <contour>
      <point x="107.4875" y="459.34" type="line"/>
      <point x="586.7199999999999" y="459.34" type="line"/>
      <point x="586.7199999999999" y="587.04" type="line"/>
      <point x="107.4875" y="587.04" type="line"/>
    </contour>
  </outline>
</glyph>
<glyph name="period" format="2">
  <advance width="328.82250000000005"/>
  <unicode hex="002E"/>
  <outline>
    <contour>
      <point x="164.25" y="-17.565" type="curve" smooth="yes"/>
      <point x="225.575" y="-17.565"/>
      <point x="255.52249999999998" y="20.9525"/>
      <point x="255.52249999999998" y="90.67500000000001" type="curve" smooth="yes"/>
      <point x="255.52249999999998" y="104.2825" type="line" smooth="yes"/>
      <point x="255.52249999999998" y="173.00500000000002"/>
      <point x="225.575" y="211.5225"/>
      <point x="164.25" y="211.5225" type="curve" smooth="yes"/>
      <point x="101.57" y="211.5225"/>
      <point x="73.3" y="173.00500000000002"/>
      <point x="73.3" y="104.2825" type="curve" smooth="yes"/>
      <point x="73.3" y="90.67500000000001" type="line" smooth="yes"/>
      <point x="73.3" y="20.9525"/>
      <point x="101.57" y="-17.565"/>
    </contour>
  </outline>
</glyph>
<glyph name="slash" format="2">
  <advance width="676.3325000000001"/>
  <unicode hex="002F"/>
  <outline>
    <contour>
      <point x="31.17" y="-239.92499999999998" type="line"/>
      <point x="173.575" y="-239.92499999999998" type="line"/>
      <point x="645.1625" y="1346.6399999999999" type="line"/>
      <point x="503.54249999999996" y="1346.6399999999999" type="line"/>
    </contour>
  </outline>
</glyph>
<glyph name="zero" format="2">
  <advance width="931.4525"/>
  <unicode hex="0030"/>
  <outline>
    <contour>
      <point x="465.53" y="-21.21" type="curve" smooth="yes"/>
      <point x="712.0975" y="-21.21"/>
      <point x="836.1475" y="122.6675"/>
      <point x="836.1475" y="394.77750000000003" type="curve"/>
      <point x="836.1475" y="882.9" type="line"/>
      <point x="836.1475" y="1154.8325"/>
      <point x="712.0975" y="1299.21"/>
      <point x="465.53" y="1299.21" type="curve" smooth="yes"/>
      <point x="218.57" y="1299.21"/>
      <point x="95.305" y="1154.8325"/>
      <point x="95.305" y="882.9" type="curve"/>
      <point x="95.305" y="394.77750000000003" type="line"/>
      <point x="95.305" y="122.6675"/>
      <point x="218.9625" y="-21.21"/>
    </contour>
    <contour>
      <point x="465.53" y="111.63000000000001" type="curve" smooth="yes"/>
      <point x="321.1775" y="111.63000000000001"/>
      <point x="254.3025" y="205.935"/>
      <point x="254.3025" y="385.4275" type="curve" smooth="yes"/>
      <point x="254.3025" y="892.4649999999999" type="line" smooth="yes"/>
      <point x="254.3025" y="1072.065"/>
      <point x="320.785" y="1166.7625"/>
      <point x="465.53" y="1166.7625" type="curve" smooth="yes"/>
      <point x="610.275" y="1166.7625"/>
      <point x="677.15" y="1072.065"/>
      <point x="677.15" y="892.4649999999999" type="curve" smooth="yes"/>
      <point x="677.15" y="385.4275" type="line" smooth="yes"/>
      <point x="677.15" y="205.935"/>
      <point x="610.275" y="111.63000000000001"/>
    </contour>
  </outline>
</glyph>
<glyph name="one" format="2">
  <advance width="576.1225"/>
  <unicode hex="0031"/>
  <outline>
    <contour>
      <point x="295.7775" y="0.0" type="line"/>
      <point x="452.0275" y="0.0" type="line"/>
      <point x="452.0275" y="1278.0" type="line"/>
      <point x="297.145" y="1278.0" type="line"/>
      <point x="38.865" y="1094.47" type="line"/>
      <point x="36.6875" y="932.36" type="line"/>
      <point x="283.42249999999996" y="1106.7324999999998" type="line"/>
      <point x="295.7775" y="1106.7324999999998" type="line"/>
    </contour>
  </outline>
</glyph>
<glyph name="two" format="2">
  <advance width="756.0849999999999"/>
  <unicode hex="0032"/>
  <outline>
    <contour>
      <point x="56.6175" y="0.0" type="line"/>
      <point x="691.285" y="0.0" type="line"/>
      <point x="691.285" y="137.05" type="line"/>
      <point x="167.5375" y="137.05" type="line"/>
      <point x="233.17000000000002" y="107.7375" type="line"/>
      <point x="233.17000000000002" y="145.01250000000002" type="line"/>
      <point x="437.87749999999994" y="423.2225" type="line" smooth="yes"/>
      <point x="590.5600000000001" y="629.5"/>
      <point x="677.8175" y="755.7574999999999"/>
      <point x="677.8175" y="938.6225000000001" type="curve" smooth="yes"/>
      <point x="677.8175" y="964.9175" type="line" smooth="yes"/>
      <point x="677.8175" y="1175.8325"/>
      <point x="570.3" y="1297.5325"/>
      <point x="349.48" y="1297.5325" type="curve" smooth="yes"/>
      <point x="226.415" y="1297.5325"/>
      <point x="133.77999999999997" y="1255.8125"/>
      <point x="75.6075" y="1216.3825" type="curve"/>
      <point x="62.5425" y="1071.4399999999998" type="line"/>
      <point x="131.08" y="1117.4825"/>
      <point x="215.50500000000002" y="1157.52"/>
      <point x="317.47249999999997" y="1157.52" type="curve" smooth="yes"/>
      <point x="456.59499999999997" y="1157.52"/>
      <point x="519.2125" y="1082.3600000000001"/>
      <point x="519.2125" y="947.255" type="curve" smooth="yes"/>
      <point x="519.2125" y="921.745" type="line" smooth="yes"/>
      <point x="519.2125" y="785.8175000000001"/>
      <point x="447.7300000000001" y="679.0775"/>
      <point x="308.46750000000003" y="491.785" type="curve" smooth="yes"/>
      <point x="56.6175" y="152.26000000000002" type="line"/>
    </contour>
  </outline>
</glyph>
<glyph name="three" format="2">
  <advance width="784.8425000000001"/>
  <unicode hex="0033"/>
  <outline>
    <contour>
      <point x="347.2375" y="-19.64" type="curve" smooth="yes"/>
      <point x="597.6274999999999" y="-19.64"/>
      <point x="708.8225" y="107.85"/>
      <point x="708.8225" y="316.0125" type="curve" smooth="yes"/>
      <point x="708.8225" y="390.46250000000003" type="line" smooth="yes"/>
      <point x="708.8225" y="547.005"/>
      <point x="646.3175" y="639.9825"/>
      <point x="483.33500000000004" y="665.1825" type="curve"/>
      <point x="488.00750000000005" y="648.9075" type="line"/>
      <point x="488.65250000000003" y="670.2425" type="line"/>
      <point x="639.0" y="692.835"/>
      <point x="700.6075000000001" y="791.0275"/>
      <point x="700.6075000000001" y="935.21" type="curve" smooth="yes"/>
      <point x="700.6075000000001" y="988.295" type="line" smooth="yes"/>
      <point x="700.6075000000001" y="1183.93"/>
      <point x="599.1275" y="1297.925"/>
      <point x="366.765" y="1297.925" type="curve" smooth="yes"/>
      <point x="235.88250000000002" y="1297.925"/>
      <point x="138.8875" y="1261.4575"/>
      <point x="76.1825" y="1221.2050000000002" type="curve"/>
      <point x="63.51" y="1080.51" type="line"/>
      <point x="134.54250000000002" y="1122.375"/>
      <point x="227.715" y="1159.59"/>
      <point x="336.0425" y="1159.59" type="curve" smooth="yes"/>
      <point x="486.67" y="1159.59"/>
      <point x="542.7875" y="1089.9624999999999"/>
      <point x="542.7875" y="960.8199999999999" type="curve" smooth="yes"/>
      <point x="542.7875" y="920.08" type="line" smooth="yes"/>
      <point x="542.7875" y="798.0175"/>
      <point x="485.605" y="728.4225"/>
      <point x="325.085" y="724.245" type="curve" smooth="yes"/>
      <point x="180.9725" y="720.6750000000001" type="line"/>
      <point x="180.9725" y="591.765" type="line"/>
      <point x="323.22499999999997" y="588.6949999999999" type="line" smooth="yes"/>
      <point x="486.53000000000003" y="584.625"/>
      <point x="549.04" y="523.9975"/>
      <point x="549.04" y="387.215" type="curve" smooth="yes"/>
      <point x="549.04" y="329.07250000000005" type="line" smooth="yes"/>
      <point x="549.04" y="196.64499999999998"/>
      <point x="488.09499999999997" y="121.835"/>
      <point x="327.6125" y="121.835" type="curve" smooth="yes"/>
      <point x="219.04250000000002" y="121.835"/>
      <point x="126.65" y="157.6575"/>
      <point x="55.3325" y="202.2325" type="curve"/>
      <point x="68.79" y="49.1175" type="line"/>
      <point x="123.85499999999999" y="16.865000000000002"/>
      <point x="223.4575" y="-19.64"/>
    </contour>
  </outline>
</glyph>
<glyph name="four" format="2">
  <advance width="857.8399999999999"/>
  <unicode hex="0034"/>
  <outline>
    <contour>
      <point x="543.7475000000001" y="0.0" type="line"/>
      <point x="692.54" y="0.0" type="line"/>
      <point x="692.54" y="1278.0" type="line"/>
      <point x="427.915" y="1278.0" type="line"/>
      <point x="45.9675" y="391.645" type="line"/>
      <point x="45.9675" y="236.385" type="line"/>
      <point x="828.7325" y="236.385" type="line"/>
      <point x="828.7325" y="370.58" type="line"/>
      <point x="132.445" y="370.58" type="line"/>
      <point x="196.2225" y="316.61" type="line"/>
      <point x="196.2225" y="382.32750000000004" type="line"/>
      <point x="527.0975" y="1166.1075" type="line"/>
      <point x="550.35" y="1166.1075" type="line"/>
      <point x="543.7475000000001" y="870.2175" type="line"/>
    </contour>
  </outline>
</glyph>
<glyph name="five" format="2">
  <advance width="841.87"/>
  <unicode hex="0035"/>
  <outline>
    <contour>
      <point x="396.42" y="-20.57" type="curve" smooth="yes"/>
      <point x="650.865" y="-20.57"/>
      <point x="760.4575" y="114.66250000000001"/>
      <point x="760.4575" y="344.955" type="curve" smooth="yes"/>
      <point x="760.4575" y="480.1075" type="line" smooth="yes"/>
      <point x="760.4575" y="688.3075"/>
      <point x="677.3125" y="812.62"/>
      <point x="498.0325" y="812.62" type="curve" smooth="yes"/>
      <point x="370.3125" y="812.62"/>
      <point x="297.40999999999997" y="751.8625000000001"/>
      <point x="259.83500000000004" y="664.465" type="curve"/>
      <point x="254.34500000000003" y="663.3900000000001" type="line"/>
      <point x="257.845" y="842.775" type="line"/>
      <point x="257.845" y="1141.165" type="line"/>
      <point x="731.22" y="1141.165" type="line"/>
      <point x="731.22" y="1278.0" type="line"/>
      <point x="106.23499999999999" y="1278.0" type="line"/>
      <point x="106.23499999999999" y="562.0300000000001" type="line"/>
      <point x="247.24249999999998" y="542.5775" type="line"/>
      <point x="285.6125" y="629.5600000000001"/>
      <point x="343.595" y="681.1725"/>
      <point x="439.15250000000003" y="681.1725" type="curve" smooth="yes"/>
      <point x="555.6175" y="681.1725"/>
      <point x="603.815" y="604.7175"/>
      <point x="603.815" y="474.93" type="curve" smooth="yes"/>
      <point x="603.815" y="346.24" type="line" smooth="yes"/>
      <point x="603.815" y="199.70999999999998"/>
      <point x="537.8" y="120.5125"/>
      <point x="378.365" y="120.5125" type="curve" smooth="yes"/>
      <point x="265.295" y="120.5125"/>
      <point x="171.9125" y="158.12"/>
      <point x="101.27250000000001" y="202.0875" type="curve"/>
      <point x="115.22999999999999" y="50.15" type="line"/>
      <point x="170.07999999999998" y="17.505"/>
      <point x="266.1775" y="-20.57"/>
    </contour>
  </outline>
</glyph>
<glyph name="six" format="2">
  <advance width="885.285"/>
  <unicode hex="0036"/>
  <outline>
    <contour>
      <point x="456.00249999999994" y="-22.14" type="curve" smooth="yes"/>
      <point x="689.145" y="-22.14"/>
      <point x="805.8025" y="109.5275"/>
      <point x="805.8025" y="333.43249999999995" type="curve" smooth="yes"/>
      <point x="805.8025" y="468.4025" type="line" smooth="yes"/>
      <point x="805.8025" y="688.5975"/>
      <point x="713.5174999999999" y="815.5174999999999"/>
      <point x="522.3875" y="815.5174999999999" type="curve" smooth="yes"/>
      <point x="363.2275" y="815.5174999999999"/>
      <point x="279.82" y="730.3475000000001"/>
      <point x="251.79250000000002" y="613.5925" type="curve"/>
      <point x="221.02249999999998" y="613.5925" type="line"/>
      <point x="241.7375" y="487.04249999999996" type="line"/>
      <point x="270.5975" y="607.9425"/>
      <point x="350.43" y="686.425"/>
      <point x="469.60999999999996" y="686.425" type="curve" smooth="yes"/>
      <point x="599.9575000000001" y="686.425"/>
      <point x="651.515" y="603.5450000000001"/>
      <point x="651.515" y="462.94" type="curve" smooth="yes"/>
      <point x="651.515" y="332.7175" type="line" smooth="yes"/>
      <point x="651.515" y="194.2575"/>
      <point x="591.14" y="110.5925"/>
      <point x="457.96500000000003" y="110.5925" type="curve" smooth="yes"/>
      <point x="319.65" y="110.5925"/>
      <point x="246.915" y="199.36"/>
      <point x="246.915" y="377.745" type="curve"/>
      <point x="246.915" y="851.2800000000001" type="line" smooth="yes"/>
      <point x="246.915" y="1054.0749999999998"/>
      <point x="328.9525" y="1157.52"/>
      <point x="509.10749999999996" y="1157.52" type="curve" smooth="yes"/>
      <point x="621.2099999999999" y="1157.52"/>
      <point x="695.205" y="1125.875"/>
      <point x="762.49" y="1084.2625" type="curve"/>
      <point x="748.07" y="1227.9199999999998" type="line"/>
      <point x="690.505" y="1262.0649999999998"/>
      <point x="603.375" y="1297.14"/>
      <point x="479.67" y="1297.14" type="curve" smooth="yes"/>
      <point x="221.28" y="1297.14"/>
      <point x="92.235" y="1138.59"/>
      <point x="92.235" y="858.3449999999999" type="curve" smooth="yes"/>
      <point x="92.235" y="390.6275" type="line" smooth="yes"/>
      <point x="92.235" y="117.415"/>
      <point x="220.145" y="-22.14"/>
    </contour>
  </outline>
</glyph>
<glyph name="seven" format="2">
  <advance width="740.1125"/>
  <unicode hex="0037"/>
  <outline>
    <contour>
      <point x="159.5625" y="0.0" type="line"/>
      <point x="326.27" y="0.0" type="line"/>
      <point x="692.145" y="1137.5625" type="line"/>
      <point x="692.145" y="1278.0" type="line"/>
      <point x="46.365" y="1278.0" type="line"/>
      <point x="46.365" y="1140.7725" type="line"/>
      <point x="530.685" y="1140.7725" type="line"/>
    </contour>
  </outline>
</glyph>
<glyph name="eight" format="2">
  <advance width="901.3275"/>
  <unicode hex="0038"/>
  <outline>
    <contour>
      <point x="450.2175" y="-23.855" type="curve" smooth="yes"/>
      <point x="713.8825" y="-23.855"/>
      <point x="822.485" y="102.77"/>
      <point x="822.485" y="307.2325" type="curve" smooth="yes"/>
      <point x="822.485" y="372.505" type="line" smooth="yes"/>
      <point x="822.485" y="535.515"/>
      <point x="748.9375" y="634.3375000000001"/>
      <point x="604.2025" y="665.5" type="curve"/>
      <point x="604.2025" y="670.705" type="line"/>
      <point x="742.255" y="695.9050000000001"/>
      <point x="810.4475" y="789.835"/>
      <point x="810.4475" y="934.8175" type="curve" smooth="yes"/>
      <point x="810.4475" y="988.37" type="line" smooth="yes"/>
      <point x="810.4475" y="1185.4725"/>
      <point x="698.6725" y="1299.8175"/>
      <point x="450.2175" y="1299.8175" type="curve" smooth="yes"/>
      <point x="203.33249999999998" y="1299.8175"/>
      <point x="91.38" y="1185.4725"/>
      <point x="91.38" y="988.37" type="curve" smooth="yes"/>
      <point x="91.38" y="934.8175" type="line" smooth="yes"/>
      <point x="91.38" y="789.0500000000001"/>
      <point x="159.465" y="695.5125"/>
      <point x="297.5175" y="670.705" type="curve"/>
      <point x="297.5175" y="665.5" type="line"/>
      <point x="153.2825" y="634.73"/>
      <point x="79.235" y="535.9074999999999"/>
      <point x="79.235" y="372.505" type="curve" smooth="yes"/>
      <point x="79.235" y="307.2325" type="line" smooth="yes"/>
      <point x="79.235" y="100.8075"/>
      <point x="191.085" y="-23.855"/>
    </contour>
    <contour>
      <point x="451.39500000000004" y="108.8775" type="curve" smooth="yes"/>
      <point x="302.5425" y="108.8775"/>
      <point x="236.16250000000002" y="186.10750000000002"/>
      <point x="236.16250000000002" y="315.615" type="curve" smooth="yes"/>
      <point x="236.16250000000002" y="383.35499999999996" type="line" smooth="yes"/>
      <point x="236.16250000000002" y="508.4325"/>
      <point x="306.0" y="578.56"/>
      <point x="448.64750000000004" y="597.4" type="curve"/>
      <point x="593.3649999999999" y="579.3449999999999"/>
      <point x="665.45" y="509.61"/>
      <point x="665.45" y="383.35499999999996" type="curve" smooth="yes"/>
      <point x="665.45" y="315.615" type="line" smooth="yes"/>
      <point x="665.45" y="186.5"/>
      <point x="599.9625" y="108.8775"/>
    </contour>
    <contour>
      <point x="452.57250000000005" y="719.75" type="curve"/>
      <point x="321.565" y="734.2725"/>
      <point x="246.84500000000003" y="797.8299999999999"/>
      <point x="246.84500000000003" y="924.86" type="curve" smooth="yes"/>
      <point x="246.84500000000003" y="976.4549999999999" type="line" smooth="yes"/>
      <point x="246.84500000000003" y="1098.8174999999999"/>
      <point x="309.36499999999995" y="1169.0475000000001"/>
      <point x="450.2175" y="1169.0475000000001" type="curve" smooth="yes"/>
      <point x="592.7475" y="1169.0475000000001"/>
      <point x="654.9825" y="1098.8174999999999"/>
      <point x="654.9825" y="976.4549999999999" type="curve" smooth="yes"/>
      <point x="654.9825" y="924.86" type="line" smooth="yes"/>
      <point x="654.9825" y="798.2225"/>
      <point x="578.9775" y="733.095"/>
    </contour>
  </outline>
</glyph>
<glyph name="nine" format="2">
  <advance width="884.8550000000001"/>
  <unicode hex="0039"/>
  <outline>
    <contour>
      <point x="430.32000000000005" y="1298.3175" type="curve" smooth="yes"/>
      <point x="196.9625" y="1298.3175"/>
      <point x="79.4825" y="1166.3275"/>
      <point x="79.4825" y="942.3149999999999" type="curve" smooth="yes"/>
      <point x="79.4825" y="803.3175" type="line" smooth="yes"/>
      <point x="79.4825" y="586.2625"/>
      <point x="171.6225" y="459.09"/>
      <point x="368.32750000000004" y="459.09" type="curve" smooth="yes"/>
      <point x="524.0575" y="459.09"/>
      <point x="605.75" y="544.26"/>
      <point x="633.4925000000001" y="660.9075" type="curve"/>
      <point x="664.2624999999999" y="660.9075" type="line"/>
      <point x="643.5474999999999" y="786.6725" type="line"/>
      <point x="615.15" y="666.0575"/>
      <point x="536.9250000000001" y="588.1825"/>
      <point x="421.89000000000004" y="588.1825" type="curve" smooth="yes"/>
      <point x="287.2525" y="588.1825"/>
      <point x="233.77" y="671.385"/>
      <point x="233.77" y="811.28" type="curve" smooth="yes"/>
      <point x="233.77" y="943.245" type="line" smooth="yes"/>
      <point x="233.77" y="1081.5974999999999"/>
      <point x="294.5375" y="1165.585"/>
      <point x="428.3575000000001" y="1165.585" type="curve" smooth="yes"/>
      <point x="572.5275" y="1165.585"/>
      <point x="637.94" y="1077.1725"/>
      <point x="637.94" y="901.605" type="curve"/>
      <point x="637.94" y="419.87" type="line" smooth="yes"/>
      <point x="637.94" y="219.38750000000002"/>
      <point x="556.4725" y="118.55000000000001"/>
      <point x="373.28000000000003" y="118.55000000000001" type="curve" smooth="yes"/>
      <point x="263.505" y="118.55000000000001"/>
      <point x="188.32750000000001" y="149.335"/>
      <point x="121.435" y="189.3725" type="curve"/>
      <point x="136.35500000000002" y="39.22" type="line"/>
      <point x="191.8125" y="8.6125"/>
      <point x="276.5175" y="-21.747500000000002"/>
      <point x="396.045" y="-21.747500000000002" type="curve" smooth="yes"/>
      <point x="662.6125" y="-21.747500000000002"/>
      <point x="792.5125" y="133.0175"/>
      <point x="792.5125" y="412.805" type="curve" smooth="yes"/>
      <point x="792.5125" y="890.0075" type="line" smooth="yes"/>
      <point x="792.5125" y="1159.0100000000002"/>
      <point x="671.2099999999999" y="1298.3175"/>
    </contour>
  </outline>
</glyph>
<glyph name="less" format="2">
  <advance width="858.5975"/>
  <unicode hex="003C"/>
  <outline>
    <contour>
      <point x="191.295" y="637.145" type="line"/>
      <point x="748.3575" y="789.405" type="line"/>
      <point x="748.3575" y="922.46" type="line"/>
      <point x="80.6875" y="731.4025" type="line"/>
      <point x="80.6875" y="526.6724999999999" type="line"/>
      <point x="748.3575" y="335.615" type="line"/>
      <point x="748.3575" y="468.67" type="line"/>
      <point x="191.295" y="620.9300000000001" type="line"/>
    </contour>
  </outline>
</glyph>
<glyph name="equal" format="2">
  <advance width="858.915"/>
  <unicode hex="003D"/>
  <outline>
    <contour>
      <point x="95.6225" y="384.4" type="line"/>
      <point x="763.2925" y="384.4" type="line"/>
      <point x="763.2925" y="510.53" type="line"/>
      <point x="95.6225" y="510.53" type="line"/>
    </contour>
    <contour>
      <point x="95.6225" y="747.83" type="line"/>
      <point x="763.2925" y="747.83" type="line"/>
      <point x="763.2925" y="873.9599999999999" type="line"/>
      <point x="95.6225" y="873.9599999999999" type="line"/>
    </contour>
  </outline>
</glyph>
<glyph name="greater" format="2">
  <advance width="858.5975"/>
  <unicode hex="003E"/>
  <outline>
    <contour>
      <point x="667.3025" y="637.145" type="line"/>
      <point x="667.3025" y="620.9300000000001" type="line"/>
      <point x="110.24000000000001" y="468.67" type="line"/>
      <point x="110.24000000000001" y="335.615" type="line"/>
      <point x="777.9100000000001" y="526.6724999999999" type="line"/>
      <point x="777.9100000000001" y="731.4025" type="line"/>
      <point x="110.24000000000001" y="922.46" type="line"/>
      <point x="110.24000000000001" y="789.405" type="line"/>
    </contour>
  </outline>
</glyph>
<glyph name="question" format="2">
  <advance width="692.26"/>
  <unicode hex="003F"/>
  <outline>
    <contour>
      <point x="183.4275" y="349.9325" type="line"/>
      <point x="321.655" y="349.9325" type="line"/>
      <point x="321.655" y="599.985" type="line"/>
      <point x="228.645" y="547.7199999999999" type="line"/>
      <point x="312.485" y="556.9350000000001" type="line"/>
      <point x="532.4325" y="592.09"/>
      <point x="614.665" y="689.375"/>
      <point x="614.665" y="882.9675000000001" type="curve" smooth="yes"/>
      <point x="614.665" y="993.165" type="line" smooth="yes"/>
      <point x="614.665" y="1188.58"/>
      <point x="523.61" y="1297.425"/>
      <point x="316.3825" y="1297.425" type="curve" smooth="yes"/>
      <point x="203.28" y="1297.425"/>
      <point x="111.67750000000001" y="1261.1350000000002"/>
      <point x="57.790000000000006" y="1227.7749999999999" type="curve"/>
      <point x="41.1925" y="1094.4675" type="line"/>
      <point x="107.22500000000001" y="1133.08"/>
      <point x="185.015" y="1163.1225"/>
      <point x="276.74" y="1163.1225" type="curve" smooth="yes"/>
      <point x="411.58250000000004" y="1163.1225"/>
      <point x="460.7" y="1099.3925"/>
      <point x="460.7" y="972.0400000000001" type="curve" smooth="yes"/>
      <point x="460.7" y="878.22" type="line" smooth="yes"/>
      <point x="460.7" y="750.7974999999999"/>
      <point x="412.8675" y="677.82"/>
      <point x="256.6" y="651.38" type="curve" smooth="yes"/>
      <point x="183.4275" y="644.1275" type="line"/>
    </contour>
    <contour>
      <point x="251.4525" y="-18.35" type="curve" smooth="yes"/>
      <point x="312.385" y="-18.35"/>
      <point x="342.3325" y="20.1675"/>
      <point x="342.3325" y="89.105" type="curve" smooth="yes"/>
      <point x="342.3325" y="102.105" type="line" smooth="yes"/>
      <point x="342.3325" y="170.435"/>
      <point x="312.385" y="208.56"/>
      <point x="251.4525" y="208.56" type="curve" smooth="yes"/>
      <point x="189.95" y="208.56"/>
      <point x="161.68" y="170.435"/>
      <point x="161.68" y="102.105" type="curve" smooth="yes"/>
      <point x="161.68" y="89.105" type="line" smooth="yes"/>
      <point x="161.68" y="20.1675"/>
      <point x="189.95" y="-18.35"/>
    </contour>
  </outline>
</glyph>
<glyph name="at" format="2">
  <advance width="1459.3725"/>
  <unicode hex="0040"/>
  <outline>
    <contour>
      <point x="633.2850000000001" y="70.1125" type="curve" smooth="yes"/>
      <point x="754.145" y="70.1125"/>
      <point x="815.1225" y="135.59"/>
      <point x="846.51" y="235.75499999999997" type="curve"/>
      <point x="876.635" y="235.75499999999997" type="line"/>
      <point x="860.1025000000001" y="340.4475" type="line"/>
      <point x="834.845" y="249.73"/>
      <point x="780.0075" y="193.1725"/>
      <point x="702.1225" y="193.1725" type="curve" smooth="yes"/>
      <point x="623.6675" y="193.1725"/>
      <point x="585.475" y="240.3325"/>
      <point x="585.475" y="331.4325" type="curve" smooth="yes"/>
      <point x="585.475" y="359.90500000000003"/>
      <point x="587.5125" y="389.985"/>
      <point x="609.765" y="606.1975" type="curve" smooth="yes"/>
      <point x="623.125" y="732.9475"/>
      <point x="669.4625" y="801.1075"/>
      <point x="763.38" y="801.1075" type="curve" smooth="yes"/>
      <point x="841.8675" y="801.1075"/>
      <point x="890.495" y="746.0550000000001"/>
      <point x="890.6025" y="647.4174999999999" type="curve" smooth="yes"/>
      <point x="890.6025" y="638.6324999999999"/>
      <point x="890.6025" y="629.74"/>
      <point x="889.71" y="620.455" type="curve"/>
      <point x="932.3350000000002" y="750.225" type="line"/>
      <point x="897.5" y="750.225" type="line"/>
      <point x="888.6600000000001" y="853.7925"/>
      <point x="833.9300000000001" y="920.92"/>
      <point x="719.135" y="920.92" type="curve" smooth="yes"/>
      <point x="559.6875" y="920.92"/>
      <point x="483.365" y="806.1925"/>
      <point x="460.83250000000004" y="588.9975" type="curve" smooth="yes"/>
      <point x="438.6875" y="371.36"/>
      <point x="436.54249999999996" y="341.63500000000005"/>
      <point x="436.54249999999996" y="305.845" type="curve" smooth="yes"/>
      <point x="436.54249999999996" y="152.6075"/>
      <point x="503.82750000000004" y="70.1125"/>
    </contour>
    <contour>
      <point x="831.8175" y="81.72" type="line"/>
      <point x="967.975" y="90.6775" type="line"/>
      <point x="1055.6475" y="906.635" type="line"/>
      <point x="915.7425" y="906.635" type="line"/>
      <point x="914.9575000000001" y="897.8175" type="line"/>
      <point x="899.8499999999999" y="722.8875" type="line"/>
      <point x="896.1725" y="697.86" type="line"/>
      <point x="853.7099999999999" y="298.2" type="line"/>
      <point x="857.065" y="274.21000000000004" type="line"/>
    </contour>
    <contour>
      <point x="935.705" y="189.82750000000001" type="curve"/>
      <point x="831.8175" y="81.72" type="line"/>
      <point x="875.415" y="73.65"/>
      <point x="921.2449999999999" y="70.365"/>
      <point x="973.2024999999999" y="71.5425" type="curve" smooth="yes"/>
      <point x="1210.76" y="75.075"/>
      <point x="1317.675" y="180.575"/>
      <point x="1346.5625" y="425.3125" type="curve" smooth="yes"/>
      <point x="1361.74" y="556.9625"/>
      <point x="1372.7775" y="680.4225"/>
      <point x="1377.4924999999998" y="748.595" type="curve" smooth="yes"/>
      <point x="1401.4975000000002" y="1132.0"/>
      <point x="1172.5925" y="1332.7475"/>
      <point x="788.9925000000001" y="1332.7475" type="curve" smooth="yes"/>
      <point x="373.8175" y="1332.7475"/>
      <point x="167.73999999999998" y="1103.6225"/>
      <point x="123.2125" y="672.2225" type="curve" smooth="yes"/>
      <point x="110.465" y="550.8025"/>
      <point x="92.245" y="340.69"/>
      <point x="87.66999999999999" y="248.27749999999997" type="curve" smooth="yes"/>
      <point x="70.9125" y="-133.655"/>
      <point x="295.9675" y="-333.005"/>
      <point x="704.4499999999999" y="-333.005" type="curve" smooth="yes"/>
      <point x="920.6175000000001" y="-333.005"/>
      <point x="1077.5475" y="-282.3925"/>
      <point x="1188.5475" y="-215.3025" type="curve"/>
      <point x="1208.1075" y="-88.05499999999999" type="line"/>
      <point x="1103.3225" y="-157.5375"/>
      <point x="929.4074999999999" y="-219.15"/>
      <point x="715.0849999999999" y="-219.15" type="curve" smooth="yes"/>
      <point x="371.98749999999995" y="-219.15"/>
      <point x="203.435" y="-49.925000000000004"/>
      <point x="216.9775" y="254.05749999999998" type="curve" smooth="yes"/>
      <point x="221.23" y="339.83"/>
      <point x="239.98749999999998" y="537.99"/>
      <point x="254.305" y="679.3249999999999" type="curve" smooth="yes"/>
      <point x="287.875" y="1010.9025"/>
      <point x="439.2075" y="1220.4624999999999"/>
      <point x="782.6750000000001" y="1220.4624999999999" type="curve" smooth="yes"/>
      <point x="1108.8474999999999" y="1220.4624999999999"/>
      <point x="1270.6575" y="1042.28"/>
      <point x="1249.185" y="748.81" type="curve" smooth="yes"/>
      <point x="1244.0774999999999" y="687.385"/>
      <point x="1230.97" y="545.8325"/>
      <point x="1217.2549999999999" y="433.9475" type="curve" smooth="yes"/>
      <point x="1195.9325000000001" y="256.085"/>
      <point x="1131.945" y="186.93"/>
      <point x="1006.705" y="186.93" type="curve" smooth="yes"/>
      <point x="975.5975" y="186.93"/>
      <point x="961.13" y="187.645"/>
    </contour>
  </outline>
</glyph>
<glyph name="A" format="2">
  <advance width="944.1449999999999"/>
  <unicode hex="0041"/>
  <anchor x="472.57249999999993" y="0.0" name="bottom"/>
  <anchor x="941.3125" y="0.0" name="ogonek"/>
  <anchor x="472.57249999999993" y="1278.0" name="top"/>
  <outline>
    <contour>
      <point x="45.805" y="0.0" type="line"/>
      <point x="202.8775" y="0.0" type="line"/>
      <point x="459.3575" y="1167.785" type="line"/>
      <point x="482.9649999999999" y="1167.785" type="line"/>
      <point x="741.2675" y="0.0" type="line"/>
      <point x="898.3399999999999" y="0.0" type="line"/>
      <point x="597.0300000000001" y="1278.0" type="line"/>
      <point x="345.2925" y="1278.0" type="line"/>
    </contour>
    <contour>
      <point x="242.04000000000002" y="371.93" type="line"/>
      <point x="700.2125" y="371.93" type="line"/>
      <point x="700.2125" y="503.66249999999997" type="line"/>
      <point x="242.04000000000002" y="503.66249999999997" type="line"/>
    </contour>
  </outline>
</glyph>
<glyph name="B" format="2">
  <advance width="945.22"/>
  <unicode hex="0042"/>
  <anchor x="475.3575000000001" y="0.0" name="bottom"/>
  <anchor x="475.3575000000001" y="1278.0" name="top"/>
  <outline>
    <contour>
      <point x="236.5475" y="0.0" type="line"/>
      <point x="534.61" y="0.0" type="line" smooth="yes"/>
      <point x="773.075" y="0.0"/>
      <point x="870.485" y="118.85499999999999"/>
      <point x="870.485" y="327.03999999999996" type="curve" smooth="yes"/>
      <point x="870.485" y="390.46250000000003" type="line" smooth="yes"/>
      <point x="870.485" y="556.07"/>
      <point x="810.2650000000001" y="651.22"/>
      <point x="649.0675" y="676.8874999999999" type="curve"/>
      <point x="651.8625000000001" y="682.41" type="line"/>
      <point x="793.91" y="702.195"/>
      <point x="852.6624999999999" y="788.8824999999999"/>
      <point x="852.6624999999999" y="936.4250000000001" type="curve" smooth="yes"/>
      <point x="852.6624999999999" y="974.9075" type="line" smooth="yes"/>
      <point x="852.6624999999999" y="1167.355"/>
      <point x="757.075" y="1278.0"/>
      <point x="519.825" y="1278.0" type="curve" smooth="yes"/>
      <point x="232.22999999999996" y="1278.0" type="line"/>
      <point x="232.22999999999996" y="1146.0525" type="line"/>
      <point x="507.83500000000004" y="1146.0525" type="line" smooth="yes"/>
      <point x="647.9025" y="1146.0525"/>
      <point x="695.9125" y="1074.85"/>
      <point x="695.9125" y="952.3199999999999" type="curve" smooth="yes"/>
      <point x="695.9125" y="910.94" type="line" smooth="yes"/>
      <point x="695.9125" y="792.0925"/>
      <point x="646.1875" y="719.605"/>
      <point x="505.04999999999995" y="719.605" type="curve" smooth="yes"/>
      <point x="237.69750000000002" y="719.605" type="line"/>
      <point x="237.69750000000002" y="593.0825" type="line"/>
      <point x="504.905" y="593.0825" type="line" smooth="yes"/>
      <point x="661.5475" y="593.0825"/>
      <point x="712.5575" y="520.095"/>
      <point x="712.5575" y="393.565" type="curve" smooth="yes"/>
      <point x="712.5575" y="331.965" type="line" smooth="yes"/>
      <point x="712.5575" y="206.54250000000002"/>
      <point x="661.655" y="132.73250000000002"/>
      <point x="518.3024999999999" y="132.73250000000002" type="curve" smooth="yes"/>
      <point x="236.5475" y="132.73250000000002" type="line"/>
    </contour>
    <contour>
      <point x="127.095" y="0.0" type="line"/>
      <point x="282.6675" y="0.0" type="line"/>
      <point x="282.6675" y="1278.0" type="line"/>
      <point x="127.095" y="1278.0" type="line"/>
    </contour>
  </outline>
</glyph>
<glyph name="C" format="2">
  <advance width="799.75"/>
  <unicode hex="0043"/>
  <anchor x="441.04" y="0.0" name="bottom"/>
  <anchor x="441.04" y="1278.0" name="top"/>
  <outline>
    <contour>
      <point x="465.9325" y="-20.817500000000003" type="curve" smooth="yes"/>
      <point x="582.395" y="-20.817500000000003"/>
      <point x="672.105" y="17.0475"/>
      <point x="724.8149999999999" y="54.375" type="curve"/>
      <point x="736.9875000000001" y="206.59750000000003" type="line"/>
      <point x="676.4125" y="160.125"/>
      <point x="600.16" y="124.405"/>
      <point x="498.3325" y="124.405" type="curve" smooth="yes"/>
      <point x="329.705" y="124.405"/>
      <point x="252.58749999999998" y="230.5275"/>
      <point x="252.58749999999998" y="416.02" type="curve" smooth="yes"/>
      <point x="252.58749999999998" y="864.835" type="line" smooth="yes"/>
      <point x="252.58749999999998" y="1051.5425"/>
      <point x="328.205" y="1157.6275"/>
      <point x="491.01" y="1157.6275" type="curve" smooth="yes"/>
      <point x="593.6225000000001" y="1157.6275"/>
      <point x="668.235" y="1120.3"/>
      <point x="728.4875000000001" y="1075.8274999999999" type="curve"/>
      <point x="716.2075" y="1222.7325" type="line"/>
      <point x="662.89" y="1261.4525"/>
      <point x="576.9275" y="1298.8174999999999"/>
      <point x="462.75000000000006" y="1298.8174999999999" type="curve" smooth="yes"/>
      <point x="213.21499999999997" y="1298.8174999999999"/>
      <point x="93.4825" y="1146.3325"/>
      <point x="93.4825" y="871.115" type="curve" smooth="yes"/>
      <point x="93.4825" y="409.34749999999997" type="line" smooth="yes"/>
      <point x="93.4825" y="132.8825"/>
      <point x="211.25249999999997" y="-20.817500000000003"/>
    </contour>
  </outline>
</glyph>
<glyph name="D" format="2">
  <advance width="972.435"/>
  <unicode hex="0044"/>
  <anchor x="476.755" y="0.0" name="bottom"/>
  <anchor x="491.5025" y="639.0" name="center"/>
  <anchor x="476.755" y="1278.0" name="top"/>
  <outline>
    <contour>
      <point x="228.94499999999996" y="0.0" type="line"/>
      <point x="472.4925" y="0.0" type="line" smooth="yes"/>
      <point x="744.7800000000001" y="0.0"/>
      <point x="880.4150000000001" y="148.13500000000002"/>
      <point x="880.4150000000001" y="417.08250000000004" type="curve" smooth="yes"/>
      <point x="880.4150000000001" y="861.595" type="line" smooth="yes"/>
      <point x="880.4150000000001" y="1130.365"/>
      <point x="743.6025" y="1278.0"/>
      <point x="472.4925" y="1278.0" type="curve" smooth="yes"/>
      <point x="230.2675" y="1278.0" type="line"/>
      <point x="230.2675" y="1144.875" type="line"/>
      <point x="465.89" y="1144.875" type="line" smooth="yes"/>
      <point x="636.715" y="1144.875"/>
      <point x="722.095" y="1047.065"/>
      <point x="722.095" y="860.4875000000001" type="curve" smooth="yes"/>
      <point x="722.095" y="418.08250000000004" type="line" smooth="yes"/>
      <point x="722.095" y="232.61249999999998"/>
      <point x="636.715" y="134.3025"/>
      <point x="465.89" y="134.3025" type="curve" smooth="yes"/>
      <point x="228.94499999999996" y="134.3025" type="line"/>
    </contour>
    <contour>
      <point x="127.095" y="0.0" type="line"/>
      <point x="283.06" y="0.0" type="line"/>
      <point x="283.06" y="1278.0" type="line"/>
      <point x="127.095" y="1278.0" type="line"/>
    </contour>
  </outline>
</glyph>
<glyph name="E" format="2">
  <advance width="831.38"/>
  <unicode hex="0045"/>
  <anchor x="442.77" y="0.0" name="bottom"/>
  <anchor x="786.03" y="0.0" name="ogonek"/>
  <anchor x="442.77" y="1278.0" name="top"/>
  <anchor x="20.645" y="1278.0" name="topleft"/>
  <outline>
    <contour>
      <point x="127.095" y="0.0" type="line"/>
      <point x="281.49" y="0.0" type="line"/>
      <point x="281.49" y="1278.0" type="line"/>
      <point x="127.095" y="1278.0" type="line"/>
    </contour>
    <contour>
      <point x="194.0775" y="0.0" type="line"/>
      <point x="752.155" y="0.0" type="line"/>
      <point x="752.155" y="135.48" type="line"/>
      <point x="194.0775" y="135.48" type="line"/>
    </contour>
    <contour>
      <point x="220.67" y="585.7275" type="line"/>
      <point x="737.9075" y="585.7275" type="line"/>
      <point x="737.9075" y="719.9225" type="line"/>
      <point x="220.67" y="719.9225" type="line"/>
    </contour>
    <contour>
      <point x="192.255" y="1142.9125000000001" type="line"/>
      <point x="748.87" y="1142.9125000000001" type="line"/>
      <point x="748.87" y="1278.0" type="line"/>
      <point x="192.255" y="1278.0" type="line"/>
    </contour>
  </outline>
</glyph>
<glyph name="F" format="2">
  <advance width="794.4925000000001"/>
  <unicode hex="0046"/>
  <anchor x="397.4425" y="0.0" name="bottom"/>
  <anchor x="397.4425" y="1278.0" name="top"/>
  <outline>
    <contour>
      <point x="127.095" y="0.0" type="line"/>
      <point x="284.2375" y="0.0" type="line"/>
      <point x="284.2375" y="1278.0" type="line"/>
      <point x="127.095" y="1278.0" type="line"/>
    </contour>
    <contour>
      <point x="220.67" y="542.3875" type="line"/>
      <point x="717.735" y="542.3875" type="line"/>
      <point x="717.735" y="678.6525" type="line"/>
      <point x="220.67" y="678.6525" type="line"/>
    </contour>
    <contour>
      <point x="192.255" y="1141.7350000000001" type="line"/>
      <point x="729.9124999999999" y="1141.7350000000001" type="line"/>
      <point x="729.9124999999999" y="1278.0" type="line"/>
      <point x="192.255" y="1278.0" type="line"/>
    </contour>
  </outline>
</glyph>
<glyph name="G" format="2">
  <advance width="950.3275000000001"/>
  <unicode hex="0047"/>
  <anchor x="474.3575" y="0.0" name="bottom"/>
  <anchor x="474.3575" y="1278.0" name="top"/>
  <outline>
    <contour>
      <point x="429.075" y="-21.21" type="curve" smooth="yes"/>
      <point x="598.4725000000001" y="-21.21"/>
      <point x="668.4875" y="71.1275"/>
      <point x="693.9875" y="180.2825" type="curve"/>
      <point x="846.625" y="179.24499999999998" type="line"/>
      <point x="846.625" y="720.115" type="line"/>
      <point x="499.2825" y="720.115" type="line"/>
      <point x="499.2825" y="585.7425" type="line"/>
      <point x="723.0749999999999" y="585.7425" type="line"/>
      <point x="694.9074999999999" y="650.3425" type="line"/>
      <point x="694.9074999999999" y="288.04" type="line"/>
      <point x="670.1175000000001" y="194.58"/>
      <point x="603.78" y="116.84"/>
      <point x="480.8525" y="116.84" type="curve" smooth="yes"/>
      <point x="325.57" y="116.84"/>
      <point x="252.58749999999998" y="214.6825"/>
      <point x="252.58749999999998" y="391.9325" type="curve" smooth="yes"/>
      <point x="252.58749999999998" y="844.9375" type="line" smooth="yes"/>
      <point x="252.58749999999998" y="1049.2150000000001"/>
      <point x="341.13" y="1158.8049999999998"/>
      <point x="534.42" y="1158.8049999999998" type="curve" smooth="yes"/>
      <point x="658.6724999999999" y="1158.8049999999998"/>
      <point x="752.775" y="1117.1225"/>
      <point x="824.9150000000001" y="1068.4724999999999" type="curve"/>
      <point x="811.0649999999999" y="1214.8775" type="line"/>
      <point x="747.5374999999999" y="1257.3825"/>
      <point x="644.37" y="1298.8174999999999"/>
      <point x="505.875" y="1298.8174999999999" type="curve" smooth="yes"/>
      <point x="232.31250000000003" y="1298.8174999999999"/>
      <point x="93.4825" y="1141.1875"/>
      <point x="93.4825" y="848.0775" type="curve" smooth="yes"/>
      <point x="93.4825" y="393.5725" type="line" smooth="yes"/>
      <point x="93.4825" y="129.7375"/>
      <point x="201.08999999999997" y="-21.21"/>
    </contour>
    <contour>
      <point x="702.44" y="234.74749999999997" type="line"/>
      <point x="695.1925" y="0.0" type="line"/>
      <point x="846.625" y="0.0" type="line"/>
      <point x="846.625" y="234.74749999999997" type="line"/>
    </contour>
  </outline>
</glyph>
<glyph name="H" format="2">
  <advance width="1015.8975"/>
  <unicode hex="0048"/>
  <anchor x="508.0025" y="0.0" name="bottom"/>
  <anchor x="508.0025" y="639.0" name="center"/>
  <anchor x="508.0025" y="1278.0" name="top"/>
  <anchor x="20.645" y="1278.0" name="topleft"/>
  <outline>
    <contour>
      <point x="285.02250000000004" y="0.0" type="line"/>
      <point x="285.02250000000004" y="1278.0" type="line"/>
      <point x="127.095" y="1278.0" type="line"/>
      <point x="127.095" y="0.0" type="line"/>
    </contour>
    <contour>
      <point x="888.8025" y="0.0" type="line"/>
      <point x="888.8025" y="1278.0" type="line"/>
      <point x="730.875" y="1278.0" type="line"/>
      <point x="730.875" y="0.0" type="line"/>
    </contour>
    <contour>
      <point x="222.4925" y="725.745" type="line"/>
      <point x="222.4925" y="591.5500000000001" type="line"/>
      <point x="790.2700000000001" y="591.5500000000001" type="line"/>
      <point x="790.2700000000001" y="725.745" type="line"/>
    </contour>
  </outline>
</glyph>
<glyph name="I" format="2">
  <advance width="414.97749999999996"/>
  <unicode hex="0049"/>
  <anchor x="207.4" y="0.0" name="bottom"/>
  <anchor x="328.96250000000003" y="0.0" name="ogonek"/>
  <anchor x="207.4" y="1278.0" name="top"/>
  <anchor x="20.645" y="1278.0" name="topleft"/>
  <outline>
    <contour>
      <point x="286.45250000000004" y="0.0" type="line"/>
      <point x="286.45250000000004" y="1278.0" type="line"/>
      <point x="128.525" y="1278.0" type="line"/>
      <point x="128.525" y="0.0" type="line"/>
    </contour>
  </outline>
</glyph>
<glyph name="J" format="2">
  <advance width="658.0875"/>
  <unicode hex="004A"/>
  <anchor x="329.99" y="0.0" name="bottom"/>
  <anchor x="458.725" y="1278.0" name="top"/>
  <outline>
    <contour>
      <point x="240.2525" y="-16.57" type="curve" smooth="yes"/>
      <point x="457.5775" y="-16.57"/>
      <point x="538.385" y="98.2325"/>
      <point x="538.385" y="308.945" type="curve" smooth="yes"/>
      <point x="538.385" y="1278.0" type="line"/>
      <point x="380.84999999999997" y="1278.0" type="line"/>
      <point x="380.84999999999997" y="313.97749999999996" type="line" smooth="yes"/>
      <point x="380.84999999999997" y="188.38250000000002"/>
      <point x="339.055" y="122.3725"/>
      <point x="207.89000000000001" y="122.3725" type="curve" smooth="yes"/>
      <point x="151.3475" y="122.3725"/>
      <point x="99.59000000000002" y="134.41000000000003"/>
      <point x="47.977500000000006" y="157.0925" type="curve"/>
      <point x="59.65" y="16.6125" type="line"/>
      <point x="109.6125" y="-4.71"/>
      <point x="174.575" y="-16.57"/>
    </contour>
  </outline>
</glyph>
<glyph name="K" format="2">
  <advance width="931.3175000000001"/>
  <unicode hex="004B"/>
  <anchor x="481.7825" y="0.0" name="bottom"/>
  <anchor x="481.7825" y="1278.0" name="top"/>
  <outline>
    <contour>
      <point x="724.7675" y="0.0" type="line"/>
      <point x="899.8299999999999" y="0.0" type="line"/>
      <point x="504.83250000000004" y="685.34" type="line"/>
      <point x="506.33250000000004" y="643.3975" type="line"/>
      <point x="888.7600000000001" y="1278.0" type="line"/>
      <point x="717.5525" y="1278.0" type="line"/>
      <point x="384.38" y="718.7775" type="line"/>
      <point x="267.355" y="718.7775" type="line"/>
      <point x="267.355" y="588.4" type="line"/>
      <point x="384.59499999999997" y="588.4" type="line"/>
    </contour>
    <contour>
      <point x="127.095" y="0.0" type="line"/>
      <point x="282.27500000000003" y="0.0" type="line"/>
      <point x="282.27500000000003" y="1278.0" type="line"/>
      <point x="127.095" y="1278.0" type="line"/>
    </contour>
  </outline>
</glyph>
<glyph name="L" format="2">
  <advance width="777.6424999999999"/>
  <unicode hex="004C"/>
  <anchor x="422.565" y="0.0" name="bottom"/>
  <anchor x="356.865" y="651.7575" name="center"/>
  <anchor x="206.3625" y="1278.0" name="top"/>
  <anchor x="539.205" y="1278.0" name="topright"/>
  <outline>
    <contour>
      <point x="284.63" y="0.0" type="line"/>
      <point x="284.63" y="1278.0" type="line"/>
      <point x="127.095" y="1278.0" type="line"/>
      <point x="127.095" y="0.0" type="line"/>
    </contour>
    <contour>
      <point x="214.095" y="137.04999999999998" type="line"/>
      <point x="214.095" y="0.0" type="line"/>
      <point x="731.4599999999999" y="0.0" type="line"/>
      <point x="731.4599999999999" y="137.04999999999998" type="line"/>
    </contour>
  </outline>
</glyph>
<glyph name="M" format="2">
  <advance width="1244.3675"/>
  <unicode hex="004D"/>
  <anchor x="622.88" y="0.0" name="bottom"/>
  <anchor x="622.88" y="1278.0" name="top"/>
  <outline>
    <contour>
      <point x="114.12750000000001" y="0.0" type="line"/>
      <point x="265.09749999999997" y="0.0" type="line"/>
      <point x="274.8175" y="501.48499999999996" type="line"/>
      <point x="281.1825" y="1101.7375" type="line"/>
      <point x="294.58" y="1101.7375" type="line"/>
      <point x="538.8875" y="142.8875" type="line"/>
      <point x="705.48" y="142.8875" type="line"/>
      <point x="949.7875000000001" y="1101.7375" type="line"/>
      <point x="963.2925" y="1101.7375" type="line"/>
      <point x="969.6574999999999" y="501.98499999999996" type="line"/>
      <point x="979.3774999999999" y="0.0" type="line"/>
      <point x="1130.24" y="0.0" type="line"/>
      <point x="1101.1275" y="1278.0" type="line"/>
      <point x="859.6650000000001" y="1278.0" type="line"/>
      <point x="628.2025" y="350.94250000000005" type="line"/>
      <point x="616.9499999999999" y="350.94250000000005" type="line"/>
      <point x="384.7025" y="1278.0" type="line"/>
      <point x="143.3475" y="1278.0" type="line"/>
    </contour>
  </outline>
</glyph>
<glyph name="N" format="2">
  <advance width="1026.1025000000002"/>
  <unicode hex="004E"/>
  <anchor x="516.245" y="0.0" name="bottom"/>
  <anchor x="516.245" y="1278.0" name="top"/>
  <outline>
    <contour>
      <point x="363.59000000000003" y="1278.3925" type="line"/>
      <point x="127.095" y="1278.3925" type="line"/>
      <point x="127.095" y="0.0" type="line"/>
      <point x="278.34999999999997" y="0.0" type="line"/>
      <point x="278.34999999999997" y="513.61" type="line"/>
      <point x="268.6775" y="1115.5825" type="line"/>
      <point x="280.0" y="1115.5825" type="line"/>
      <point x="665.1525" y="0.0" type="line"/>
      <point x="899.0074999999999" y="0.0" type="line"/>
      <point x="899.0074999999999" y="1278.3925" type="line"/>
      <point x="748.1450000000001" y="1278.3925" type="line"/>
      <point x="748.1450000000001" y="756.0575" type="line"/>
      <point x="757.425" y="170.76749999999998" type="line"/>
      <point x="746.1025000000001" y="170.76749999999998" type="line"/>
    </contour>
  </outline>
</glyph>
<glyph name="O" format="2">
  <advance width="979.355"/>
  <unicode hex="004F"/>
  <anchor x="489.53499999999997" y="0.0" name="bottom"/>
  <anchor x="489.53499999999997" y="639.0" name="center"/>
  <anchor x="703.6025000000001" y="5.5375" name="ogonek"/>
  <anchor x="489.53499999999997" y="1278.0" name="top"/>
  <anchor x="13.1075" y="1278.0" name="topleft"/>
  <anchor x="863.095" y="1278.0" name="topright"/>
  <outline>
    <contour>
      <point x="489.42749999999995" y="-21.21" type="curve" smooth="yes"/>
      <point x="750.7099999999999" y="-21.21"/>
      <point x="885.8725" y="131.92000000000002"/>
      <point x="885.8725" y="414.11" type="curve" smooth="yes"/>
      <point x="885.8725" y="863.6750000000001" type="line" smooth="yes"/>
      <point x="885.8725" y="1145.08"/>
      <point x="750.7099999999999" y="1299.21"/>
      <point x="489.42749999999995" y="1299.21" type="curve" smooth="yes"/>
      <point x="227.645" y="1299.21"/>
      <point x="93.4825" y="1145.08"/>
      <point x="93.4825" y="863.6750000000001" type="curve" smooth="yes"/>
      <point x="93.4825" y="414.11" type="line" smooth="yes"/>
      <point x="93.4825" y="131.92000000000002"/>
      <point x="227.645" y="-21.21"/>
    </contour>
    <contour>
      <point x="489.42749999999995" y="112.13000000000001" type="curve" smooth="yes"/>
      <point x="329.0375" y="112.13000000000001"/>
      <point x="252.58749999999998" y="217.08"/>
      <point x="252.58749999999998" y="403.7975" type="curve" smooth="yes"/>
      <point x="252.58749999999998" y="874.595" type="line" smooth="yes"/>
      <point x="252.58749999999998" y="1062.205"/>
      <point x="329.0375" y="1165.87"/>
      <point x="489.42749999999995" y="1165.87" type="curve" smooth="yes"/>
      <point x="649.5324999999999" y="1165.87"/>
      <point x="726.375" y="1062.205"/>
      <point x="726.375" y="874.595" type="curve" smooth="yes"/>
      <point x="726.375" y="403.7975" type="line" smooth="yes"/>
      <point x="726.375" y="217.08"/>
      <point x="649.5324999999999" y="112.13000000000001"/>
    </contour>
  </outline>
</glyph>
<glyph name="P" format="2">
  <advance width="912.5375"/>
  <unicode hex="0050"/>
  <anchor x="455.46500000000003" y="0.0" name="bottom"/>
  <anchor x="455.46500000000003" y="1278.0" name="top"/>
  <outline>
    <contour>
      <point x="222.66500000000002" y="423.83500000000004" type="line"/>
      <point x="491.39500000000004" y="423.83500000000004" type="line" smooth="yes"/>
      <point x="732.2149999999999" y="423.83500000000004"/>
      <point x="840.2700000000001" y="551.76"/>
      <point x="840.2700000000001" y="774.3375" type="curve" smooth="yes"/>
      <point x="840.2700000000001" y="929.535" type="line" smooth="yes"/>
      <point x="840.2700000000001" y="1148.5424999999998"/>
      <point x="732.7149999999999" y="1278.0"/>
      <point x="491.93249999999995" y="1278.0" type="curve" smooth="yes"/>
      <point x="223.98749999999998" y="1278.0" type="line"/>
      <point x="223.98749999999998" y="1145.7675" type="line"/>
      <point x="487.18500000000006" y="1145.7675" type="line" smooth="yes"/>
      <point x="625.505" y="1145.7675"/>
      <point x="683.9125" y="1066.635"/>
      <point x="683.9125" y="925.5725" type="curve" smooth="yes"/>
      <point x="683.9125" y="777.9075" type="line" smooth="yes"/>
      <point x="683.9125" y="637.2"/>
      <point x="625.3975" y="556.5675"/>
      <point x="485.47" y="556.5675" type="curve" smooth="yes"/>
      <point x="222.66500000000002" y="556.5675" type="line"/>
    </contour>
    <contour>
      <point x="127.095" y="0.0" type="line"/>
      <point x="283.06" y="0.0" type="line"/>
      <point x="283.06" y="445.395" type="line"/>
      <point x="281.8825" y="518.415" type="line"/>
      <point x="281.8825" y="1278.0" type="line"/>
      <point x="127.095" y="1278.0" type="line"/>
    </contour>
  </outline>
</glyph>
<glyph name="Q" format="2">
  <advance width="981.7475"/>
  <unicode hex="0051"/>
  <anchor x="491.31999999999994" y="0.0" name="bottom"/>
  <anchor x="491.31999999999994" y="1278.0" name="top"/>
  <outline>
    <contour>
      <point x="976.2800000000001" y="-32.775" type="line"/>
      <point x="976.2800000000001" y="103.85" type="line"/>
      <point x="654.7775" y="96.425" type="line"/>
      <point x="657.6800000000001" y="103.63000000000001" type="line"/>
      <point x="796.0675" y="133.3025"/>
      <point x="885.8725" y="231.70499999999998"/>
      <point x="885.8725" y="446.4025" type="curve" smooth="yes"/>
      <point x="885.8725" y="859.75" type="line" smooth="yes"/>
      <point x="885.8725" y="1145.01"/>
      <point x="750.0325" y="1299.21"/>
      <point x="489.42749999999995" y="1299.21" type="curve" smooth="yes"/>
      <point x="228.32250000000002" y="1299.21"/>
      <point x="93.4825" y="1145.01"/>
      <point x="93.4825" y="859.75" type="curve" smooth="yes"/>
      <point x="93.4825" y="420.3575" type="line" smooth="yes"/>
      <point x="93.4825" y="136.85000000000002"/>
      <point x="224.79" y="-12.07"/>
      <point x="539.805" y="-20.78" type="curve" smooth="yes"/>
    </contour>
    <contour>
      <point x="517.325" y="111.52250000000001" type="line" smooth="yes"/>
      <point x="342.93" y="115.055"/>
      <point x="252.58749999999998" y="218.58"/>
      <point x="252.58749999999998" y="408.3675" type="curve" smooth="yes"/>
      <point x="252.58749999999998" y="869.885" type="line" smooth="yes"/>
      <point x="252.58749999999998" y="1062.8125"/>
      <point x="329.8225" y="1166.2625"/>
      <point x="489.42749999999995" y="1166.2625" type="curve" smooth="yes"/>
      <point x="648.7475" y="1166.2625"/>
      <point x="726.375" y="1062.8125"/>
      <point x="726.375" y="869.885" type="curve" smooth="yes"/>
      <point x="726.375" y="414.04" type="line" smooth="yes"/>
      <point x="726.375" y="226.11249999999998"/>
      <point x="645.5325" y="139.06"/>
      <point x="535.2875" y="111.13000000000001" type="curve"/>
    </contour>
  </outline>
</glyph>
<glyph name="R" format="2">
  <advance width="938.075"/>
  <unicode hex="0052"/>
  <anchor x="480.7875" y="0.0" name="bottom"/>
  <anchor x="470.46500000000003" y="1278.0" name="top"/>
  <outline>
    <contour>
      <point x="707.0949999999999" y="0.0" type="line"/>
      <point x="867.5925" y="0.0" type="line"/>
      <point x="829.625" y="298.0" type="line" smooth="yes"/>
      <point x="805.5174999999999" y="483.63"/>
      <point x="764.125" y="587.8874999999999"/>
      <point x="576.3875" y="607.8175" type="curve"/>
      <point x="632.67" y="585.8275" type="line"/>
      <point x="633.315" y="603.42" type="line"/>
      <point x="789.69" y="625.0174999999999"/>
      <point x="849.8775" y="725.7425"/>
      <point x="849.8775" y="877.7524999999999" type="curve" smooth="yes"/>
      <point x="849.8775" y="959.8425" type="line" smooth="yes"/>
      <point x="849.8775" y="1160.145"/>
      <point x="749.505" y="1278.0"/>
      <point x="511.755" y="1278.0" type="curve" smooth="yes"/>
      <point x="231.8375" y="1278.0" type="line"/>
      <point x="231.8375" y="1145.66" type="line"/>
      <point x="495.2325" y="1145.66" type="line" smooth="yes"/>
      <point x="639.9399999999999" y="1145.66"/>
      <point x="692.45" y="1069.3175"/>
      <point x="692.45" y="933.3299999999999" type="curve" smooth="yes"/>
      <point x="692.45" y="851.8475" type="line" smooth="yes"/>
      <point x="692.45" y="720.5375"/>
      <point x="639.9775" y="641.62"/>
      <point x="493.8725" y="641.12" type="curve" smooth="yes"/>
      <point x="238.09" y="640.12" type="line"/>
      <point x="238.09" y="514.0975" type="line"/>
      <point x="473.4375" y="513.705" type="line" smooth="yes"/>
      <point x="623.1875" y="513.3125"/>
      <point x="660.9399999999999" y="419.315"/>
      <point x="676.0525" y="287.25750000000005" type="curve" smooth="yes"/>
    </contour>
    <contour>
      <point x="127.095" y="0.0" type="line"/>
      <point x="283.06" y="0.0" type="line"/>
      <point x="283.06" y="538.7275" type="line"/>
      <point x="282.275" y="600.7574999999999" type="line"/>
      <point x="282.275" y="1278.0" type="line"/>
      <point x="127.095" y="1278.0" type="line"/>
    </contour>
  </outline>
</glyph>
<glyph name="S" format="2">
  <advance width="821.6324999999999"/>
  <unicode hex="0053"/>
  <anchor x="399.905" y="0.0" name="bottom"/>
  <anchor x="399.905" y="1278.0" name="top"/>
  <outline>
    <contour>
      <point x="385.3825" y="-20.425" type="curve" smooth="yes"/>
      <point x="629.0949999999999" y="-20.425"/>
      <point x="747.005" y="98.1725"/>
      <point x="747.005" y="313.2225" type="curve" smooth="yes"/>
      <point x="747.005" y="352.6675" type="line" smooth="yes"/>
      <point x="747.005" y="548.98"/>
      <point x="668.16" y="625.9799999999999"/>
      <point x="464.3325" y="708.7925" type="curve" smooth="yes"/>
      <point x="284.73749999999995" y="782.5775"/>
      <point x="228.625" y="836.9799999999999"/>
      <point x="228.625" y="959.9449999999999" type="curve" smooth="yes"/>
      <point x="228.625" y="976.385" type="line" smooth="yes"/>
      <point x="228.625" y="1093.21"/>
      <point x="286.995" y="1159.0900000000001"/>
      <point x="434.59" y="1159.0900000000001" type="curve" smooth="yes"/>
      <point x="551.7725" y="1159.0900000000001"/>
      <point x="642.09" y="1122.3375"/>
      <point x="713.1225" y="1075.2624999999998" type="curve"/>
      <point x="700.1650000000001" y="1222.845" type="line"/>
      <point x="637.745" y="1262.42"/>
      <point x="540.965" y="1298.3174999999999"/>
      <point x="406.76" y="1298.3174999999999" type="curve" smooth="yes"/>
      <point x="181.07" y="1298.3174999999999"/>
      <point x="70.305" y="1183.5049999999999"/>
      <point x="70.305" y="984.6275" type="curve" smooth="yes"/>
      <point x="70.305" y="961.1225000000001" type="line" smooth="yes"/>
      <point x="70.305" y="772.8475000000001"/>
      <point x="156.35999999999999" y="684.035"/>
      <point x="365.6175" y="599.2924999999999" type="curve" smooth="yes"/>
      <point x="529.2875" y="534.2925"/>
      <point x="588.6850000000001" y="483.0625"/>
      <point x="588.6850000000001" y="353.915" type="curve" smooth="yes"/>
      <point x="588.6850000000001" y="318.325" type="line" smooth="yes"/>
      <point x="588.6850000000001" y="191.5"/>
      <point x="520.7775" y="123.12"/>
      <point x="369.71999999999997" y="123.12" type="curve" smooth="yes"/>
      <point x="253.1875" y="123.12"/>
      <point x="149.1925" y="163.69"/>
      <point x="70.8" y="213.44750000000002" type="curve"/>
      <point x="84.2575" y="56.6925" type="line"/>
      <point x="145.8225" y="18.795"/>
      <point x="251.88750000000002" y="-20.425"/>
    </contour>
  </outline>
</glyph>
<glyph name="T" format="2">
  <advance width="840.865"/>
  <unicode hex="0054"/>
  <anchor x="420.53999999999996" y="0.0" name="bottom"/>
  <anchor x="420.53999999999996" y="639.0" name="center"/>
  <anchor x="420.53999999999996" y="1278.0" name="top"/>
  <outline>
    <contour>
      <point x="341.665" y="0.0" type="line"/>
      <point x="499.5925" y="0.0" type="line"/>
      <point x="499.5925" y="1264.2625" type="line"/>
      <point x="341.665" y="1264.2625" type="line"/>
    </contour>
    <contour>
      <point x="48.150000000000006" y="1142.735" type="line"/>
      <point x="792.715" y="1142.735" type="line"/>
      <point x="792.715" y="1278.0" type="line"/>
      <point x="48.150000000000006" y="1278.0" type="line"/>
    </contour>
  </outline>
</glyph>
<glyph name="U" format="2">
  <advance width="999.4350000000001"/>
  <unicode hex="0055"/>
  <anchor x="499.71750000000003" y="0.0" name="bottom"/>
  <anchor x="708.79" y="5.5375" name="ogonek"/>
  <anchor x="499.71750000000003" y="1278.0" name="top"/>
  <anchor x="982.1725" y="1278.0" name="topright"/>
  <outline>
    <contour>
      <point x="499.71750000000003" y="-21.21" type="curve" smooth="yes"/>
      <point x="758.9625" y="-21.21"/>
      <point x="880.9475" y="122.95750000000001"/>
      <point x="880.9475" y="394.10999999999996" type="curve" smooth="yes"/>
      <point x="880.9475" y="1278.0" type="line"/>
      <point x="723.02" y="1278.0" type="line"/>
      <point x="723.02" y="385.8675" type="line" smooth="yes"/>
      <point x="723.02" y="208.51"/>
      <point x="656.8925" y="114.09249999999999"/>
      <point x="499.71750000000003" y="114.09249999999999" type="curve" smooth="yes"/>
      <point x="342.5425" y="114.09249999999999"/>
      <point x="276.41499999999996" y="208.51"/>
      <point x="276.41499999999996" y="385.8675" type="curve" smooth="yes"/>
      <point x="276.41499999999996" y="1278.0" type="line"/>
      <point x="118.4875" y="1278.0" type="line"/>
      <point x="118.4875" y="394.10999999999996" type="line" smooth="yes"/>
      <point x="118.4875" y="122.95750000000001"/>
      <point x="240.75750000000002" y="-21.21"/>
    </contour>
  </outline>
</glyph>
<glyph name="V" format="2">
  <advance width="930.5325"/>
  <unicode hex="0056"/>
  <anchor x="465.32" y="0.0" name="bottom"/>
  <anchor x="465.32" y="1278.0" name="top"/>
  <outline>
    <contour>
      <point x="337.96999999999997" y="0.0" type="line"/>
      <point x="593.0625" y="0.0" type="line"/>
      <point x="886.1574999999999" y="1278.0" type="line"/>
      <point x="724.7674999999999" y="1278.0" type="line"/>
      <point x="475.92750000000007" y="117.38749999999999" type="line"/>
      <point x="454.10499999999996" y="117.38749999999999" type="line"/>
      <point x="205.76500000000001" y="1278.0" type="line"/>
      <point x="44.375" y="1278.0" type="line"/>
    </contour>
  </outline>
</glyph>
<glyph name="W" format="2">
  <advance width="1350.83"/>
  <unicode hex="0057"/>
  <anchor x="675.7725" y="0.0" name="bottom"/>
  <anchor x="675.7725" y="1278.0" name="top"/>
  <outline>
    <contour>
      <point x="256.12" y="0.0" type="line"/>
      <point x="506.10499999999996" y="0.0" type="line"/>
      <point x="614.0525" y="706.9175" type="line"/>
      <point x="669.0575" y="1116.7625" type="line"/>
      <point x="682.165" y="1116.7625" type="line"/>
      <point x="737.2775" y="706.9175" type="line"/>
      <point x="845.725" y="0.0" type="line"/>
      <point x="1095.1025" y="0.0" type="line"/>
      <point x="1292.81" y="1278.0" type="line"/>
      <point x="1133.99" y="1278.0" type="line"/>
      <point x="1000.0975" y="369.2625" type="line"/>
      <point x="971.9025000000001" y="131.625" type="line"/>
      <point x="957.5425" y="131.625" type="line"/>
      <point x="927.7775" y="369.2625" type="line"/>
      <point x="788.88" y="1246.78" type="line"/>
      <point x="562.3425000000001" y="1246.78" type="line"/>
      <point x="423.2675" y="369.37" type="line"/>
      <point x="393.39500000000004" y="131.625" type="line"/>
      <point x="379.4275" y="131.625" type="line"/>
      <point x="351.23249999999996" y="369.37" type="line"/>
      <point x="217.34" y="1278.0" type="line"/>
      <point x="58.02" y="1278.0" type="line"/>
    </contour>
  </outline>
</glyph>
<glyph name="X" format="2">
  <advance width="914.1450000000001"/>
  <unicode hex="0058"/>
  <anchor x="457.57250000000005" y="0.0" name="bottom"/>
  <anchor x="457.57250000000005" y="1278.0" name="top"/>
  <outline>
    <contour>
      <point x="46.6275" y="0.0" type="line"/>
      <point x="212.26500000000001" y="0.0" type="line"/>
      <point x="451.5025" y="573.6999999999999" type="line"/>
      <point x="463.1425" y="573.6999999999999" type="line"/>
      <point x="701.9875000000001" y="0.0" type="line"/>
      <point x="867.5174999999999" y="0.0" type="line"/>
      <point x="571.3149999999999" y="684.3449999999999" type="line"/>
      <point x="571.3149999999999" y="643.58" type="line"/>
      <point x="860.6625000000001" y="1278.0" type="line"/>
      <point x="696.9875000000001" y="1278.0" type="line"/>
      <point x="463.1425" y="744.66" type="line"/>
      <point x="451.895" y="744.66" type="line"/>
      <point x="217.55" y="1278.0" type="line"/>
      <point x="53.9825" y="1278.0" type="line"/>
      <point x="343.33000000000004" y="643.58" type="line"/>
      <point x="343.33000000000004" y="684.3449999999999" type="line"/>
    </contour>
  </outline>
</glyph>
<glyph name="Y" format="2">
  <advance width="884.8925"/>
  <unicode hex="0059"/>
  <anchor x="442.75" y="0.0" name="bottom"/>
  <anchor x="442.75" y="1278.0" name="top"/>
  <anchor x="20.645" y="1278.0" name="topleft"/>
  <outline>
    <contour>
      <point x="372.5475" y="388.5075" type="line"/>
      <point x="513.5225" y="388.5075" type="line"/>
      <point x="853.2650000000001" y="1278.0" type="line"/>
      <point x="691.375" y="1278.0" type="line"/>
      <point x="521.475" y="804.785" type="line"/>
      <point x="448.71250000000003" y="584.495" type="line"/>
      <point x="437.465" y="584.495" type="line"/>
      <point x="365.095" y="804.8925" type="line"/>
      <point x="193.5175" y="1278.0" type="line"/>
      <point x="31.6275" y="1278.0" type="line"/>
    </contour>
    <contour>
      <point x="366.72999999999996" y="0.0" type="line"/>
      <point x="519.3399999999999" y="0.0" type="line"/>
      <point x="519.3399999999999" y="545.7724999999999" type="line"/>
      <point x="366.72999999999996" y="545.7724999999999" type="line"/>
    </contour>
  </outline>
</glyph>
<glyph name="Z" format="2">
  <advance width="829.45"/>
  <unicode hex="005A"/>
  <anchor x="415.36750000000006" y="0.0" name="bottom"/>
  <anchor x="415.36750000000006" y="639.0" name="center"/>
  <anchor x="415.36750000000006" y="1278.0" name="top"/>
  <outline>
    <contour>
      <point x="758.435" y="136.6575" type="line"/>
      <point x="244.00249999999997" y="136.6575" type="line"/>
      <point x="752.0799999999999" y="1153.6924999999999" type="line"/>
      <point x="752.0799999999999" y="1278.0" type="line"/>
      <point x="75.9775" y="1278.0" type="line"/>
      <point x="75.9775" y="1142.2350000000001" type="line"/>
      <point x="578.8774999999999" y="1142.2350000000001" type="line"/>
      <point x="71.015" y="125.59249999999999" type="line"/>
      <point x="71.015" y="0.0" type="line"/>
      <point x="758.435" y="0.0" type="line"/>
    </contour>
  </outline>
</glyph>
<glyph name="bracketleft" format="2">
  <advance width="526.25"/>
  <unicode hex="005B"/>
  <outline>
    <contour>
      <point x="128.9875" y="-241.2475" type="line"/>
      <point x="482.2125" y="-241.2475" type="line"/>
      <point x="482.2125" y="-121.72" type="line"/>
      <point x="272.7475" y="-121.72" type="line"/>
      <point x="272.7475" y="1231.865" type="line"/>
      <point x="482.2125" y="1231.865" type="line"/>
      <point x="482.2125" y="1351.3925000000002" type="line"/>
      <point x="128.9875" y="1351.3925000000002" type="line"/>
    </contour>
  </outline>
</glyph>
<glyph name="backslash" format="2">
  <advance width="676.3325000000001"/>
  <unicode hex="005C"/>
  <outline>
    <contour>
      <point x="645.1625" y="-239.92499999999998" type="line"/>
      <point x="172.79" y="1346.6399999999999" type="line"/>
      <point x="31.17" y="1346.6399999999999" type="line"/>
      <point x="502.7575" y="-239.92499999999998" type="line"/>
    </contour>
  </outline>
</glyph>
<glyph name="bracketright" format="2">
  <advance width="526.25"/>
  <unicode hex="005D"/>
  <outline>
    <contour>
      <point x="397.2625" y="-241.2475" type="line"/>
      <point x="397.2625" y="1351.3925000000002" type="line"/>
      <point x="44.0375" y="1351.3925000000002" type="line"/>
      <point x="44.0375" y="1231.865" type="line"/>
      <point x="253.50250000000003" y="1231.865" type="line"/>
      <point x="253.50250000000003" y="-121.72" type="line"/>
      <point x="44.0375" y="-121.72" type="line"/>
      <point x="44.0375" y="-241.2475" type="line"/>
    </contour>
  </outline>
</glyph>
<glyph name="asciicircum" format="2">
  <advance width="701.87"/>
  <unicode hex="005E"/>
  <outline>
    <contour>
      <point x="248.25" y="1278.0" type="line"/>
      <point x="49.379999999999995" y="618.575" type="line"/>
      <point x="179.225" y="618.575" type="line"/>
      <point x="345.0775" y="1181.2375000000002" type="line"/>
      <point x="356.40000000000003" y="1181.2375000000002" type="line"/>
      <point x="522.645" y="618.575" type="line"/>
      <point x="652.49" y="618.575" type="line"/>
      <point x="453.2275" y="1278.0" type="line"/>
    </contour>
  </outline>
</glyph>
<glyph name="underscore" format="2">
  <advance width="747.79"/>
  <unicode hex="005F"/>
  <outline>
    <contour>
      <point x="46.8375" y="-193.95" type="line"/>
      <point x="700.9525" y="-193.95" type="line"/>
      <point x="700.9525" y="-73.85249999999999" type="line"/>
      <point x="46.8375" y="-73.85249999999999" type="line"/>
    </contour>
  </outline>
</glyph>
<glyph name="grave" format="2">
  <advance width="514.9475"/>
  <unicode hex="0060"/>
  <anchor x="354.165" y="986.3875" name="_top"/>
  <anchor x="349.4125" y="1315.6475" name="top"/>
  <outline>
    <contour>
      <point x="262.14750000000004" y="1355.705" type="line"/>
      <point x="97.8275" y="1355.705" type="line"/>
      <point x="97.8275" y="1354.3125" type="line"/>
      <point x="288.34999999999997" y="1096.155" type="line"/>
      <point x="418.55" y="1096.155" type="line"/>
      <point x="418.55" y="1097.44" type="line"/>
    </contour>
  </outline>
</glyph>
<glyph name="a" format="2">
  <advance width="822.0375"/>
  <unicode hex="0061"/>
  <anchor x="403.5675" y="0.0" name="bottom"/>
  <anchor x="759.1675" y="0.0" name="ogonek"/>
  <anchor x="403.5675" y="986.3875" name="top"/>
  <outline>
    <contour>
      <point x="569.4775000000001" y="0.0" type="line"/>
      <point x="721.5875000000001" y="0.0" type="line"/>
      <point x="721.5875000000001" y="667.47" type="line" smooth="yes"/>
      <point x="721.5875000000001" y="882.155"/>
      <point x="631.06" y="1005.135"/>
      <point x="399.54" y="1005.135" type="curve" smooth="yes"/>
      <point x="271.835" y="1005.135"/>
      <point x="172.345" y="962.845"/>
      <point x="107.35499999999999" y="920.9150000000001" type="curve"/>
      <point x="94.50500000000001" y="786.1775" type="line"/>
      <point x="169.9625" y="832.3275"/>
      <point x="265.9575" y="874.08"/>
      <point x="373.2425" y="874.08" type="curve" smooth="yes"/>
      <point x="511.4675" y="874.08"/>
      <point x="569.9775" y="806.135"/>
      <point x="569.9775" y="663.2225" type="curve"/>
      <point x="569.585" y="586.36" type="line"/>
      <point x="569.585" y="217.1075" type="line"/>
      <point x="576.225" y="204.57999999999998" type="line"/>
    </contour>
    <contour>
      <point x="310.9025" y="-17.57" type="curve" smooth="yes"/>
      <point x="474.9775" y="-17.57"/>
      <point x="545.815" y="74.34249999999999"/>
      <point x="569.595" y="185.97" type="curve"/>
      <point x="596.6175000000001" y="185.97" type="line"/>
      <point x="573.5849999999999" y="293.8025" type="line"/>
      <point x="553.225" y="189.87"/>
      <point x="484.21000000000004" y="110.80749999999999"/>
      <point x="364.5725" y="110.80749999999999" type="curve" smooth="yes"/>
      <point x="261.7525" y="110.80749999999999"/>
      <point x="215.7325" y="168.00500000000002"/>
      <point x="215.7325" y="270.5075" type="curve" smooth="yes"/>
      <point x="215.7325" y="302.5225" type="line" smooth="yes"/>
      <point x="215.7325" y="396.33750000000003"/>
      <point x="260.8175" y="442.92249999999996"/>
      <point x="377.7125" y="466.825" type="curve" smooth="yes"/>
      <point x="601.9300000000001" y="511.94249999999994" type="line"/>
      <point x="590.1175000000001" y="629.26" type="line"/>
      <point x="350.08750000000003" y="580.3575" type="line" smooth="yes"/>
      <point x="147.64" y="537.965"/>
      <point x="63.73" y="460.825"/>
      <point x="63.73" y="294.4575" type="curve" smooth="yes"/>
      <point x="63.73" y="248.8825" type="line" smooth="yes"/>
      <point x="63.73" y="76.71"/>
      <point x="147.9775" y="-17.57"/>
    </contour>
  </outline>
</glyph>
<glyph name="b" format="2">
  <advance width="894.0424999999999"/>
  <unicode hex="0062"/>
  <anchor x="451.00250000000005" y="0.0" name="bottom"/>
  <anchor x="451.00250000000005" y="1327.575" name="top"/>
  <outline>
    <contour>
      <point x="518.9575" y="-17.57" type="curve" smooth="yes"/>
      <point x="715.0225" y="-17.57"/>
      <point x="810.1675" y="113.81250000000001"/>
      <point x="810.1675" y="360.4325" type="curve" smooth="yes"/>
      <point x="810.1675" y="628.8475000000001" type="line" smooth="yes"/>
      <point x="810.1675" y="873.575"/>
      <point x="715.63" y="1003.9575"/>
      <point x="523.1724999999999" y="1003.9575" type="curve" smooth="yes"/>
      <point x="366.9525" y="1003.9575"/>
      <point x="291.8625" y="914.9375"/>
      <point x="266.86749999999995" y="800.0575" type="curve"/>
      <point x="227.46249999999998" y="800.0575" type="line"/>
      <point x="258.9525" y="693.01" type="line"/>
      <point x="281.0275" y="800.48"/>
      <point x="353.225" y="878.72"/>
      <point x="467.54" y="878.72" type="curve" smooth="yes"/>
      <point x="594.8975" y="878.72"/>
      <point x="656.595" y="796.625"/>
      <point x="656.595" y="641.1925" type="curve" smooth="yes"/>
      <point x="656.595" y="352.19" type="line" smooth="yes"/>
      <point x="656.595" y="193.4025"/>
      <point x="593.3599999999999" y="110.80749999999999"/>
      <point x="468.1475" y="110.80749999999999" type="curve" smooth="yes"/>
      <point x="346.16" y="110.80749999999999"/>
      <point x="266.635" y="190.79000000000002"/>
      <point x="261.56" y="334.75" type="curve"/>
      <point x="216.0425" y="191.5975" type="line"/>
      <point x="264.7975" y="191.5975" type="line"/>
      <point x="287.815" y="67.7775"/>
      <point x="370.98" y="-17.57"/>
    </contour>
    <contour>
      <point x="112.44999999999999" y="0.0" type="line"/>
      <point x="265.13" y="0.0" type="line"/>
      <point x="258.275" y="202.435" type="line"/>
      <point x="261.56" y="240.20999999999998" type="line"/>
      <point x="261.56" y="743.2524999999999" type="line"/>
      <point x="260.45250000000004" y="768.995" type="line"/>
      <point x="264.84499999999997" y="1032.12" type="line"/>
      <point x="264.84499999999997" y="1327.575" type="line"/>
      <point x="112.44999999999999" y="1327.575" type="line"/>
    </contour>
  </outline>
</glyph>
<glyph name="c" format="2">
  <advance width="702.39"/>
  <unicode hex="0063"/>
  <anchor x="392.0125" y="0.0" name="bottom"/>
  <anchor x="392.0125" y="986.3875" name="top"/>
  <outline>
    <contour>
      <point x="417.0025" y="-17.962500000000002" type="curve" smooth="yes"/>
      <point x="515.6850000000001" y="-17.962500000000002"/>
      <point x="592.035" y="13.757500000000002"/>
      <point x="639.9225" y="50.225" type="curve"/>
      <point x="652.4875000000001" y="185.96249999999998" type="line"/>
      <point x="599.7025" y="146.49"/>
      <point x="535.1650000000001" y="115.94749999999999"/>
      <point x="448.0475" y="115.94749999999999" type="curve" smooth="yes"/>
      <point x="302.78000000000003" y="115.94749999999999"/>
      <point x="236.6625" y="205.0"/>
      <point x="236.6625" y="361.9975" type="curve" smooth="yes"/>
      <point x="236.6625" y="625.89" type="line" smooth="yes"/>
      <point x="236.6625" y="785.5275"/>
      <point x="300.925" y="873.6875"/>
      <point x="445.26249999999993" y="873.6875" type="curve" smooth="yes"/>
      <point x="532.3425000000001" y="873.6875"/>
      <point x="594.9175" y="843.36"/>
      <point x="645.525" y="803.8875" type="curve"/>
      <point x="633.0675" y="937.4475" type="line"/>
      <point x="586.2875" y="972.415"/>
      <point x="512.2925" y="1004.7425"/>
      <point x="416.325" y="1004.7425" type="curve" smooth="yes"/>
      <point x="189.575" y="1004.7425"/>
      <point x="83.08999999999999" y="868.15"/>
      <point x="83.08999999999999" y="628.245" type="curve" smooth="yes"/>
      <point x="83.08999999999999" y="358.1425" type="line" smooth="yes"/>
      <point x="83.08999999999999" y="118.30749999999999"/>
      <point x="189.1825" y="-17.962500000000002"/>
    </contour>
  </outline>
</glyph>
<glyph name="d" format="2">
  <advance width="894.0424999999999"/>
  <unicode hex="0064"/>
  <anchor x="443.1475" y="0.0" name="bottom"/>
  <anchor x="443.1475" y="493.64" name="center"/>
  <anchor x="443.1475" y="1327.575" name="top"/>
  <anchor x="917.52" y="1327.575" name="topright"/>
  <outline>
    <contour>
      <point x="371.2625" y="-17.57" type="curve" smooth="yes"/>
      <point x="528.015" y="-17.57"/>
      <point x="604.035" y="70.375"/>
      <point x="629.1374999999999" y="186.65249999999997" type="curve"/>
      <point x="668.6125" y="186.65249999999997" type="line"/>
      <point x="635.0899999999999" y="296.7325" type="line"/>
      <point x="612.8" y="187.5425"/>
      <point x="540.0649999999999" y="110.80749999999999"/>
      <point x="426.895" y="110.80749999999999" type="curve" smooth="yes"/>
      <point x="299.145" y="110.80749999999999"/>
      <point x="237.4475" y="193.1175"/>
      <point x="237.4475" y="348.48" type="curve" smooth="yes"/>
      <point x="237.4475" y="638.4075" type="line" smooth="yes"/>
      <point x="237.4475" y="796.125"/>
      <point x="301.07500000000005" y="878.72"/>
      <point x="427.0725" y="878.72" type="curve" smooth="yes"/>
      <point x="549.8449999999999" y="878.72"/>
      <point x="627.8" y="797.1675"/>
      <point x="632.4825000000001" y="654.7774999999999" type="curve"/>
      <point x="675.285" y="794.7900000000001" type="line"/>
      <point x="627.2825" y="794.7900000000001" type="line"/>
      <point x="604.265" y="918.61"/>
      <point x="522.385" y="1003.9575"/>
      <point x="375.08500000000004" y="1003.9575" type="curve" smooth="yes"/>
      <point x="178.6275" y="1003.9575"/>
      <point x="83.875" y="872.575"/>
      <point x="83.875" y="625.8475" type="curve" smooth="yes"/>
      <point x="83.875" y="357.4" type="line" smooth="yes"/>
      <point x="83.875" y="112.63499999999999"/>
      <point x="178.805" y="-17.57"/>
    </contour>
    <contour>
      <point x="628.9125" y="0.0" type="line"/>
      <point x="781.5925000000001" y="0.0" type="line"/>
      <point x="781.5925000000001" y="1327.575" type="line"/>
      <point x="629.1975" y="1327.575" type="line"/>
      <point x="629.1975" y="1032.12" type="line"/>
      <point x="633.59" y="770.3499999999999" type="line"/>
      <point x="632.4825000000001" y="742.8225" type="line"/>
      <point x="632.4825000000001" y="231.71499999999997" type="line"/>
      <point x="635.7675" y="204.04749999999999" type="line"/>
    </contour>
  </outline>
</glyph>
<glyph name="e" format="2">
  <advance width="826.86"/>
  <unicode hex="0065"/>
  <anchor x="430.21750000000003" y="0.0" name="bottom"/>
  <anchor x="687.9425" y="8.6775" name="ogonek"/>
  <anchor x="423.535" y="986.3875" name="top"/>
  <outline>
    <contour>
      <point x="456.38" y="-17.962500000000002" type="curve" smooth="yes"/>
      <point x="567.4775" y="-17.962500000000002"/>
      <point x="661.3975" y="12.3275"/>
      <point x="728.925" y="55.332499999999996" type="curve"/>
      <point x="741.775" y="190.785" type="line"/>
      <point x="667.065" y="144.3825"/>
      <point x="581.855" y="113.985"/>
      <point x="483.3925" y="113.985" type="curve" smooth="yes"/>
      <point x="313.7525" y="113.985"/>
      <point x="235.0925" y="198.03750000000002"/>
      <point x="235.0925" y="345.8575" type="curve" smooth="yes"/>
      <point x="235.0925" y="472.03749999999997" type="line"/>
      <point x="234.7" y="494.88250000000005" type="line"/>
      <point x="234.7" y="652.4775" type="line" smooth="yes"/>
      <point x="234.7" y="802.125"/>
      <point x="294.15" y="881.1125000000001"/>
      <point x="420.61" y="881.1125000000001" type="curve" smooth="yes"/>
      <point x="546.5699999999999" y="881.1125000000001"/>
      <point x="607.9825" y="802.8025"/>
      <point x="607.9825" y="654.8" type="curve" smooth="yes"/>
      <point x="607.9825" y="587.3"/>
      <point x="607.59" y="514.2725"/>
      <point x="606.805" y="424.53499999999997" type="curve"/>
      <point x="746.28" y="424.53499999999997" type="line"/>
      <point x="752.92" y="473.78249999999997"/>
      <point x="755.275" y="520.0575"/>
      <point x="755.275" y="568.3000000000001" type="curve" smooth="yes"/>
      <point x="755.275" y="643.525" type="line" smooth="yes"/>
      <point x="755.275" y="871.9725"/>
      <point x="643.145" y="1007.135"/>
      <point x="420.61" y="1007.135" type="curve" smooth="yes"/>
      <point x="197.7525" y="1007.135"/>
      <point x="83.08999999999999" y="876.6125000000001"/>
      <point x="83.08999999999999" y="637.955" type="curve" smooth="yes"/>
      <point x="83.08999999999999" y="360.95" type="line" smooth="yes"/>
      <point x="83.08999999999999" y="113.19999999999999"/>
      <point x="209.86" y="-17.962500000000002"/>
    </contour>
    <contour>
      <point x="169.955" y="424.53499999999997" type="line"/>
      <point x="711.9775000000001" y="424.53499999999997" type="line"/>
      <point x="711.9775000000001" y="543.4925000000001" type="line"/>
      <point x="169.955" y="543.4925000000001" type="line"/>
    </contour>
  </outline>
</glyph>
<glyph name="f" format="2">
  <advance width="626.835"/>
  <unicode hex="0066"/>
  <anchor x="315.63" y="0.0" name="bottom"/>
  <anchor x="315.63" y="1323.5" name="top"/>
  <outline>
    <contour>
      <point x="388.1775" y="1351.855" type="curve" smooth="yes"/>
      <point x="211.76250000000002" y="1351.855"/>
      <point x="123.20250000000001" y="1267.3175"/>
      <point x="123.20250000000001" y="1133.4575" type="curve" smooth="yes"/>
      <point x="123.20250000000001" y="1128.4575" type="line" smooth="yes"/>
      <point x="123.20250000000001" y="1054.07"/>
      <point x="156.5475" y="995.6025000000001"/>
      <point x="195.345" y="962.845" type="curve"/>
      <point x="195.345" y="944.855" type="line"/>
      <point x="298.995" y="946.3225" type="line"/>
      <point x="284.21" y="983.155"/>
      <point x="270.8875" y="1025.5249999999999"/>
      <point x="270.8875" y="1074.1475" type="curve" smooth="yes"/>
      <point x="270.8875" y="1078.5775" type="line" smooth="yes"/>
      <point x="270.8875" y="1169.5324999999998"/>
      <point x="319.89750000000004" y="1224.5475"/>
      <point x="437.6325" y="1224.5475" type="curve" smooth="yes"/>
      <point x="503.7825" y="1224.5475"/>
      <point x="552.32" y="1210.1875"/>
      <point x="601.54" y="1191.8975" type="curve"/>
      <point x="587.905" y="1310.8925000000002" type="line"/>
      <point x="536.4425" y="1333.785"/>
      <point x="471.2049999999999" y="1351.855"/>
    </contour>
    <contour>
      <point x="153.20250000000001" y="0.0" type="line"/>
      <point x="305.98999999999995" y="0.0" type="line"/>
      <point x="305.98999999999995" y="910.165" type="line"/>
      <point x="153.20250000000001" y="910.165" type="line"/>
    </contour>
    <contour>
      <point x="18.505" y="833.9399999999999" type="line"/>
      <point x="585.83" y="833.9399999999999" type="line"/>
      <point x="598.2875" y="958.1775" type="line"/>
      <point x="275.15" y="958.1775" type="line"/>
      <point x="216.765" y="957.3925" type="line"/>
      <point x="18.505" y="958.1775" type="line"/>
    </contour>
  </outline>
</glyph>
<glyph name="g" format="2">
  <advance width="846.3700000000001"/>
  <unicode hex="0067"/>
  <anchor x="427.26" y="-348.96250000000003" name="bottom"/>
  <anchor x="425.43750000000006" y="987.9575" name="top"/>
  <outline>
    <contour>
      <point x="422.2225" y="265.3725" type="curve"/>
      <point x="638.87" y="265.3725"/>
      <point x="752.14" y="368.545"/>
      <point x="752.14" y="565.4699999999999" type="curve" smooth="yes"/>
      <point x="752.14" y="657.405" type="line" smooth="yes"/>
      <point x="752.14" y="786.5600000000001"/>
      <point x="700.995" y="868.0475"/>
      <point x="581.0200000000001" y="893.79" type="curve"/>
      <point x="581.7724999999999" y="900.565" type="line"/>
      <point x="832.5325" y="892.2475" type="line"/>
      <point x="832.5325" y="1014.3824999999999" type="line"/>
      <point x="428.68" y="1000.6725" type="line" smooth="yes"/>
      <point x="175.35999999999999" y="992.0325"/>
      <point x="85.7025" y="864.64"/>
      <point x="85.7025" y="682.6975" type="curve" smooth="yes"/>
      <point x="85.7025" y="573.7825" type="line" smooth="yes"/>
      <point x="85.7025" y="372.685"/>
      <point x="211.32250000000002" y="265.3725"/>
    </contour>
    <contour>
      <point x="418.12" y="-247.3275" type="line" smooth="yes"/>
      <point x="279.81" y="-247.3275"/>
      <point x="196.21" y="-208.7475"/>
      <point x="196.21" y="-119.755" type="curve" smooth="yes"/>
      <point x="196.21" y="-117.4325" type="line" smooth="yes"/>
      <point x="196.21" y="-36.4725"/>
      <point x="259.8425" y="4.43"/>
      <point x="359.88250000000005" y="23.6825" type="curve"/>
      <point x="318.2525" y="22.29" type="line"/>
      <point x="514.335" y="-2.4900000000000007" type="line" smooth="yes"/>
      <point x="624.44" y="-17.672500000000003"/>
      <point x="666.88" y="-52.5475"/>
      <point x="666.88" y="-122.1425" type="curve" smooth="yes"/>
      <point x="666.88" y="-124.965" type="line" smooth="yes"/>
      <point x="666.88" y="-211.21"/>
      <point x="583.7425" y="-247.3275"/>
      <point x="444.325" y="-247.3275" type="curve" smooth="yes"/>
    </contour>
    <contour>
      <point x="409.8775" y="-370.71" type="curve" smooth="yes"/>
      <point x="440.4" y="-370.71" type="line" smooth="yes"/>
      <point x="668.15" y="-370.71"/>
      <point x="808.07" y="-293.72499999999997"/>
      <point x="808.07" y="-129.245" type="curve" smooth="yes"/>
      <point x="808.07" y="-123.2825" type="line" smooth="yes"/>
      <point x="808.07" y="15.224999999999996"/>
      <point x="733.9725" y="88.18249999999999"/>
      <point x="551.2725" y="115.8225" type="curve" smooth="yes"/>
      <point x="371.96500000000003" y="141.14000000000001" type="line" smooth="yes"/>
      <point x="280.0425" y="154.1075"/>
      <point x="243.5325" y="172.9025"/>
      <point x="243.5325" y="213.4875" type="curve" smooth="yes"/>
      <point x="243.5325" y="214.595" type="line" smooth="yes"/>
      <point x="243.5325" y="252.47000000000003"/>
      <point x="273.795" y="272.7275"/>
      <point x="345.825" y="273.33500000000004" type="curve"/>
      <point x="398.90000000000003" y="272.1575" type="line"/>
      <point x="243.56250000000003" y="313.2875" type="line"/>
      <point x="243.56250000000003" y="293.69" type="line"/>
      <point x="152.095" y="285.195"/>
      <point x="101.38" y="245.44750000000002"/>
      <point x="101.38" y="174.41500000000002" type="curve" smooth="yes"/>
      <point x="101.38" y="172.91500000000002" type="line" smooth="yes"/>
      <point x="101.38" y="101.13"/>
      <point x="152.315" y="58.097500000000004"/>
      <point x="247.5225" y="40.457499999999996" type="curve"/>
      <point x="247.20000000000002" y="34.3975" type="line"/>
      <point x="139.895" y="15.935000000000002"/>
      <point x="56.589999999999996" y="-38.995"/>
      <point x="56.589999999999996" y="-152.4725" type="curve" smooth="yes"/>
      <point x="56.589999999999996" y="-156.4725" type="line" smooth="yes"/>
      <point x="56.589999999999996" y="-307.21500000000003"/>
      <point x="191.655" y="-370.71"/>
    </contour>
    <contour>
      <point x="421.045" y="380.69" type="curve" smooth="yes"/>
      <point x="292.585" y="380.69"/>
      <point x="232.21" y="449.78000000000003"/>
      <point x="232.21" y="577.96" type="curve" smooth="yes"/>
      <point x="232.21" y="688.585" type="line" smooth="yes"/>
      <point x="232.21" y="810.3675000000001"/>
      <point x="286.94" y="884.4625"/>
      <point x="420.045" y="884.4625" type="curve" smooth="yes"/>
      <point x="424.62000000000006" y="884.4625" type="line" smooth="yes"/>
      <point x="547.8275" y="884.4625"/>
      <point x="607.2025" y="813.335"/>
      <point x="607.2025" y="690.4075" type="curve" smooth="yes"/>
      <point x="607.2025" y="577.6375" type="line" smooth="yes"/>
      <point x="607.2025" y="449.67249999999996"/>
      <point x="546.1125000000001" y="380.69"/>
    </contour>
  </outline>
</glyph>
<glyph name="h" format="2">
  <advance width="893.6825"/>
  <unicode hex="0068"/>
  <anchor x="447.7875" y="0.0" name="bottom"/>
  <anchor x="447.7875" y="662.0" name="center"/>
  <anchor x="189.1475" y="1327.575" name="top"/>
  <outline>
    <contour>
      <point x="637.59" y="0.0" type="line"/>
      <point x="790.77" y="0.0" type="line"/>
      <point x="790.77" y="677.0749999999999" type="line" smooth="yes"/>
      <point x="790.77" y="889.135"/>
      <point x="713.56" y="1003.9575"/>
      <point x="528.5600000000001" y="1003.9575" type="curve" smooth="yes"/>
      <point x="371.265" y="1003.9575"/>
      <point x="292.14750000000004" y="914.7225000000001"/>
      <point x="267.0825" y="800.8100000000001" type="curve"/>
      <point x="223.10750000000002" y="800.8100000000001" type="line"/>
      <point x="261.915" y="691.4075" type="line"/>
      <point x="283.1675" y="797.0175"/>
      <point x="349.75750000000005" y="875.5799999999999"/>
      <point x="466.47" y="875.5799999999999" type="curve" smooth="yes"/>
      <point x="593.0749999999999" y="875.5799999999999"/>
      <point x="637.59" y="795.0225"/>
      <point x="637.59" y="659.375" type="curve" smooth="yes"/>
    </contour>
    <contour>
      <point x="112.44999999999999" y="0.0" type="line"/>
      <point x="265.63" y="0.0" type="line"/>
      <point x="265.63" y="751.7574999999999" type="line"/>
      <point x="260.45250000000004" y="768.8874999999999" type="line"/>
      <point x="264.84499999999997" y="1032.335" type="line"/>
      <point x="264.84499999999997" y="1327.575" type="line"/>
      <point x="112.44999999999999" y="1327.575" type="line"/>
    </contour>
  </outline>
</glyph>
<glyph name="i" format="2">
  <advance width="384.94"/>
  <unicode hex="0069"/>
  <anchor x="192.57750000000001" y="0.0" name="bottom"/>
  <anchor x="306.64" y="0.0" name="ogonek"/>
  <outline>
    <contour>
      <point x="115.88" y="0.0" type="line"/>
      <point x="269.06" y="0.0" type="line"/>
      <point x="269.06" y="986.3875" type="line"/>
      <point x="115.88" y="986.3875" type="line"/>
    </contour>
    <contour>
      <point x="192.57750000000001" y="1132.5075" type="curve" smooth="yes"/>
      <point x="253.58" y="1132.5075"/>
      <point x="282.135" y="1167.4925"/>
      <point x="282.135" y="1229.5425" type="curve" smooth="yes"/>
      <point x="282.135" y="1238.295" type="line" smooth="yes"/>
      <point x="282.135" y="1299.4525"/>
      <point x="253.58" y="1334.7224999999999"/>
      <point x="192.57750000000001" y="1334.7224999999999" type="curve" smooth="yes"/>
      <point x="131.1825" y="1334.7224999999999"/>
      <point x="102.80499999999999" y="1299.4525"/>
      <point x="102.80499999999999" y="1238.295" type="curve" smooth="yes"/>
      <point x="102.80499999999999" y="1229.5425" type="line" smooth="yes"/>
      <point x="102.80499999999999" y="1167.885"/>
      <point x="131.1825" y="1132.5075"/>
    </contour>
  </outline>
</glyph>
<glyph name="j" format="2">
  <advance width="401.5525"/>
  <unicode hex="006A"/>
  <outline>
    <contour>
      <point x="132.4925" y="171.55749999999998" type="line"/>
      <point x="285.67249999999996" y="171.45" type="line"/>
      <point x="285.67249999999996" y="986.3875" type="line"/>
      <point x="132.4925" y="986.3875" type="line"/>
    </contour>
    <contour>
      <point x="209.19" y="1130.1525" type="curve" smooth="yes"/>
      <point x="270.1925" y="1130.1525"/>
      <point x="298.7475" y="1165.1375"/>
      <point x="298.7475" y="1227.1875" type="curve" smooth="yes"/>
      <point x="298.7475" y="1235.94" type="line" smooth="yes"/>
      <point x="298.7475" y="1297.0975"/>
      <point x="270.1925" y="1332.3674999999998"/>
      <point x="209.19" y="1332.3674999999998" type="curve" smooth="yes"/>
      <point x="147.795" y="1332.3674999999998"/>
      <point x="119.41749999999999" y="1297.0975"/>
      <point x="119.41749999999999" y="1235.94" type="curve" smooth="yes"/>
      <point x="119.41749999999999" y="1227.1875" type="line" smooth="yes"/>
      <point x="119.41749999999999" y="1165.53"/>
      <point x="147.795" y="1130.1525"/>
    </contour>
    <component base="jbottom"/>
  </outline>
</glyph>
<glyph name="k" format="2">
  <advance width="827.195"/>
  <unicode hex="006B"/>
  <anchor x="426.64250000000004" y="0.0" name="bottom"/>
  <anchor x="417.53000000000003" y="1327.575" name="top"/>
  <outline>
    <contour>
      <point x="631.0425" y="0.0" type="line"/>
      <point x="802.9274999999999" y="0.0" type="line"/>
      <point x="447.99" y="548.2425" type="line"/>
      <point x="447.99" y="508.65000000000003" type="line"/>
      <point x="787.745" y="986.3875" type="line"/>
      <point x="618.1075000000001" y="986.3875" type="line"/>
      <point x="333.3225" y="587.0675" type="line"/>
      <point x="250.45250000000001" y="587.0675" type="line"/>
      <point x="250.45250000000001" y="461.33" type="line"/>
      <point x="330.9675" y="461.33" type="line"/>
    </contour>
    <contour>
      <point x="112.44999999999999" y="0.0" type="line"/>
      <point x="265.2375" y="0.0" type="line"/>
      <point x="265.2375" y="1327.575" type="line"/>
      <point x="112.44999999999999" y="1327.575" type="line"/>
    </contour>
  </outline>
</glyph>
<glyph name="l" format="2">
  <advance width="386.155"/>
  <unicode hex="006C"/>
  <anchor x="193.97" y="0.0" name="bottom"/>
  <anchor x="193.97" y="662.0" name="center"/>
  <anchor x="193.97" y="1327.575" name="top"/>
  <anchor x="406.4875" y="1327.575" name="topright"/>
  <outline>
    <contour>
      <point x="116.4875" y="0.0" type="line"/>
      <point x="269.6675" y="0.0" type="line"/>
      <point x="269.6675" y="1327.575" type="line"/>
      <point x="116.4875" y="1327.575" type="line"/>
    </contour>
  </outline>
</glyph>
<glyph name="m" format="2">
  <advance width="1355.3075"/>
  <unicode hex="006D"/>
  <anchor x="677.315" y="0.0" name="bottom"/>
  <anchor x="677.315" y="986.3875" name="top"/>
  <outline>
    <contour>
      <point x="1099.2150000000001" y="0.0" type="line"/>
      <point x="1252.3950000000002" y="0.0" type="line"/>
      <point x="1252.3950000000002" y="682.6125000000001" type="line" smooth="yes"/>
      <point x="1252.3950000000002" y="891.0274999999999"/>
      <point x="1179.9" y="1003.9575"/>
      <point x="1004.3675" y="1003.9575" type="curve" smooth="yes"/>
      <point x="845.05" y="1003.9575"/>
      <point x="773.3575000000001" y="909.4425"/>
      <point x="747.5075" y="802.745" type="curve"/>
      <point x="729.5875" y="802.745" type="line"/>
      <point x="753.1899999999999" y="692.4125" type="line"/>
      <point x="772.835" y="797.34"/>
      <point x="835.8175" y="875.5799999999999"/>
      <point x="944.3475" y="875.5799999999999" type="curve" smooth="yes"/>
      <point x="1058.3075000000001" y="875.5799999999999"/>
      <point x="1099.2150000000001" y="796.915"/>
      <point x="1099.2150000000001" y="666.6225000000001" type="curve" smooth="yes"/>
    </contour>
    <contour>
      <point x="112.44999999999999" y="0.0" type="line"/>
      <point x="265.63" y="0.0" type="line"/>
      <point x="265.63" y="778.275" type="line"/>
      <point x="258.5975" y="785.34" type="line"/>
      <point x="265.345" y="986.3875" type="line"/>
      <point x="112.44999999999999" y="986.3875" type="line"/>
    </contour>
    <contour>
      <point x="606.225" y="0.0" type="line"/>
      <point x="758.62" y="0.0" type="line"/>
      <point x="758.62" y="682.865" type="line" smooth="yes"/>
      <point x="758.62" y="712.65"/>
      <point x="755.1575" y="742.8225"/>
      <point x="749.5875" y="767.645" type="curve"/>
      <point x="729.3025" y="922.64"/>
      <point x="657.1574999999999" y="1003.9575"/>
      <point x="511.7" y="1003.9575" type="curve" smooth="yes"/>
      <point x="362.08750000000003" y="1003.9575"/>
      <point x="289.685" y="914.5075"/>
      <point x="265.12" y="800.4875" type="curve"/>
      <point x="229.03250000000003" y="800.4875" type="line"/>
      <point x="260.7375" y="690.1925" type="line"/>
      <point x="280.49" y="796.9100000000001"/>
      <point x="342.935" y="875.5799999999999"/>
      <point x="451.57250000000005" y="875.5799999999999" type="curve" smooth="yes"/>
      <point x="565.64" y="875.5799999999999"/>
      <point x="606.225" y="796.915"/>
      <point x="606.225" y="666.515" type="curve" smooth="yes"/>
    </contour>
  </outline>
</glyph>
<glyph name="n" format="2">
  <advance width="893.6825"/>
  <unicode hex="006E"/>
  <anchor x="447.7875" y="0.0" name="bottom"/>
  <anchor x="447.7875" y="986.3875" name="top"/>
  <outline>
    <contour>
      <point x="637.59" y="0.0" type="line"/>
      <point x="790.77" y="0.0" type="line"/>
      <point x="790.77" y="677.0749999999999" type="line" smooth="yes"/>
      <point x="790.77" y="889.135"/>
      <point x="713.56" y="1003.9575"/>
      <point x="528.5600000000001" y="1003.9575" type="curve" smooth="yes"/>
      <point x="368.985" y="1003.9575"/>
      <point x="291.29249999999996" y="915.9050000000001"/>
      <point x="265.12" y="800.2725" type="curve"/>
      <point x="229.57" y="800.2725" type="line"/>
      <point x="260.7375" y="690.4775" type="line"/>
      <point x="282.42" y="798.5225"/>
      <point x="350.3325" y="875.5799999999999"/>
      <point x="466.86250000000007" y="875.5799999999999" type="curve" smooth="yes"/>
      <point x="593.0749999999999" y="875.5799999999999"/>
      <point x="637.59" y="795.0225"/>
      <point x="637.59" y="659.375" type="curve" smooth="yes"/>
    </contour>
    <contour>
      <point x="112.44999999999999" y="0.0" type="line"/>
      <point x="265.63" y="0.0" type="line"/>
      <point x="265.63" y="778.9200000000001" type="line"/>
      <point x="258.5975" y="786.3775" type="line"/>
      <point x="265.345" y="986.3875" type="line"/>
      <point x="112.44999999999999" y="986.3875" type="line"/>
    </contour>
  </outline>
</glyph>
<glyph name="o" format="2">
  <advance width="868.65"/>
  <unicode hex="006F"/>
  <anchor x="434.71750000000003" y="0.0" name="bottom"/>
  <anchor x="437.6474999999999" y="439.0725" name="center"/>
  <anchor x="636.3225" y="3.925" name="ogonek"/>
  <anchor x="434.71750000000003" y="986.3875" name="top"/>
  <anchor x="786.75" y="986.3875" name="topright"/>
  <outline>
    <contour>
      <point x="434.71750000000003" y="-20.355" type="curve" smooth="yes"/>
      <point x="665.22" y="-20.355"/>
      <point x="785.5600000000001" y="112.99"/>
      <point x="785.5600000000001" y="358.25500000000005" type="curve"/>
      <point x="785.5600000000001" y="629.9175" type="line"/>
      <point x="785.5600000000001" y="874.6825"/>
      <point x="665.22" y="1007.135"/>
      <point x="434.71750000000003" y="1007.135" type="curve" smooth="yes"/>
      <point x="203.8225" y="1007.135"/>
      <point x="83.08999999999999" y="874.6825"/>
      <point x="83.08999999999999" y="629.9175" type="curve"/>
      <point x="83.08999999999999" y="358.25500000000005" type="line"/>
      <point x="83.08999999999999" y="113.09750000000001"/>
      <point x="203.715" y="-20.355"/>
    </contour>
    <contour>
      <point x="434.71750000000003" y="105.6675" type="curve" smooth="yes"/>
      <point x="302.1825" y="105.6675"/>
      <point x="236.6625" y="189.725"/>
      <point x="236.6625" y="348.4425" type="curve" smooth="yes"/>
      <point x="236.6625" y="639.73" type="line" smooth="yes"/>
      <point x="236.6625" y="797.4475"/>
      <point x="302.1825" y="881.1125000000001"/>
      <point x="434.71750000000003" y="881.1125000000001" type="curve" smooth="yes"/>
      <point x="566.86" y="881.1125000000001"/>
      <point x="632.38" y="797.4475"/>
      <point x="632.38" y="639.73" type="curve" smooth="yes"/>
      <point x="632.38" y="348.4425" type="line" smooth="yes"/>
      <point x="632.38" y="189.725"/>
      <point x="566.7525" y="105.6675"/>
    </contour>
  </outline>
</glyph>
<glyph name="p" format="2">
  <advance width="894.0424999999999"/>
  <unicode hex="0070"/>
  <anchor x="451.50250000000005" y="0.0" name="bottom"/>
  <anchor x="451.50250000000005" y="986.3875" name="top"/>
  <outline>
    <contour>
      <point x="518.9575" y="-17.57" type="curve" smooth="yes"/>
      <point x="715.4150000000001" y="-17.57"/>
      <point x="810.1675" y="113.81250000000001"/>
      <point x="810.1675" y="360.4325" type="curve" smooth="yes"/>
      <point x="810.1675" y="629.6325" type="line" smooth="yes"/>
      <point x="810.1675" y="873.9675000000001"/>
      <point x="715.2375" y="1003.9575"/>
      <point x="522.78" y="1003.9575" type="curve" smooth="yes"/>
      <point x="365.3825" y="1003.9575"/>
      <point x="290.0075" y="914.9375"/>
      <point x="264.905" y="800.0575" type="curve"/>
      <point x="225.0375" y="800.0575" type="line"/>
      <point x="258.9525" y="693.01" type="line"/>
      <point x="281.135" y="800.48"/>
      <point x="353.225" y="878.72"/>
      <point x="467.1475" y="878.72" type="curve" smooth="yes"/>
      <point x="594.8975" y="878.72"/>
      <point x="656.595" y="796.625"/>
      <point x="656.595" y="641.585" type="curve" smooth="yes"/>
      <point x="656.595" y="351.0125" type="line" smooth="yes"/>
      <point x="656.595" y="193.4025"/>
      <point x="592.9675" y="110.80749999999999"/>
      <point x="466.97" y="110.80749999999999" type="curve" smooth="yes"/>
      <point x="344.1975" y="110.80749999999999"/>
      <point x="266.2425" y="190.79000000000002"/>
      <point x="261.56" y="334.75" type="curve"/>
      <point x="217.0425" y="191.5975" type="line"/>
      <point x="266.76" y="191.5975" type="line"/>
      <point x="289.7775" y="67.7775"/>
      <point x="371.76500000000004" y="-17.57"/>
    </contour>
    <contour>
      <point x="112.44999999999999" y="-347.0" type="line"/>
      <point x="264.84499999999997" y="-347.0" type="line"/>
      <point x="264.84499999999997" y="-33.62" type="line"/>
      <point x="260.34499999999997" y="215.1775" type="line"/>
      <point x="261.56" y="244.8775" type="line"/>
      <point x="261.56" y="737.3325" type="line"/>
      <point x="257.8125" y="765.0699999999999" type="line"/>
      <point x="265.345" y="986.3875" type="line"/>
      <point x="112.44999999999999" y="986.3875" type="line"/>
    </contour>
  </outline>
</glyph>
<glyph name="q" format="2">
  <advance width="894.0424999999999"/>
  <unicode hex="0071"/>
  <anchor x="443.1475" y="0.0" name="bottom"/>
  <anchor x="443.1475" y="986.3875" name="top"/>
  <outline>
    <contour>
      <point x="371.2625" y="-17.57" type="curve" smooth="yes"/>
      <point x="526.8375" y="-17.57"/>
      <point x="602.0725" y="70.375"/>
      <point x="627.1750000000001" y="186.65249999999997" type="curve"/>
      <point x="666.0424999999999" y="186.65249999999997" type="line"/>
      <point x="635.0899999999999" y="296.7325" type="line"/>
      <point x="612.8" y="187.5425"/>
      <point x="540.0649999999999" y="110.80749999999999"/>
      <point x="426.89500000000004" y="110.80749999999999" type="curve" smooth="yes"/>
      <point x="299.145" y="110.80749999999999"/>
      <point x="237.4475" y="193.1175"/>
      <point x="237.4475" y="348.8725" type="curve" smooth="yes"/>
      <point x="237.4475" y="637.23" type="line" smooth="yes"/>
      <point x="237.4475" y="796.125"/>
      <point x="300.6825" y="878.72"/>
      <point x="425.895" y="878.72" type="curve" smooth="yes"/>
      <point x="547.775" y="878.72"/>
      <point x="625.73" y="799.915"/>
      <point x="632.4825000000001" y="654.7774999999999" type="curve"/>
      <point x="674.285" y="794.7900000000001" type="line"/>
      <point x="629.245" y="794.7900000000001" type="line"/>
      <point x="606.12" y="918.61"/>
      <point x="524.24" y="1003.9575"/>
      <point x="375.4775" y="1003.9575" type="curve" smooth="yes"/>
      <point x="179.41250000000002" y="1003.9575"/>
      <point x="83.875" y="872.575"/>
      <point x="83.875" y="625.8475" type="curve" smooth="yes"/>
      <point x="83.875" y="357.4" type="line" smooth="yes"/>
      <point x="83.875" y="112.63499999999999"/>
      <point x="178.805" y="-17.57"/>
    </contour>
    <contour>
      <point x="629.1975" y="-347.0" type="line"/>
      <point x="781.5925000000001" y="-347.0" type="line"/>
      <point x="781.5925000000001" y="986.3875" type="line"/>
      <point x="628.6975" y="986.3875" type="line"/>
      <point x="636.23" y="766.8974999999999" type="line"/>
      <point x="632.4825000000001" y="736.15" type="line"/>
      <point x="632.4825000000001" y="247.2" type="line"/>
      <point x="633.6975" y="218.0375" type="line"/>
      <point x="629.1975" y="-33.62" type="line"/>
    </contour>
  </outline>
</glyph>
<glyph name="r" format="2">
  <advance width="611.025"/>
  <unicode hex="0072"/>
  <anchor x="189.6475" y="0.0" name="bottom"/>
  <anchor x="337.55499999999995" y="986.3875" name="top"/>
  <outline>
    <contour>
      <point x="260.7375" y="616.1750000000001" type="line"/>
      <point x="292.135" y="762.9399999999999"/>
      <point x="385.5375" y="840.4275"/>
      <point x="507.9775" y="840.4275" type="curve" smooth="yes"/>
      <point x="541.2299999999999" y="840.4275"/>
      <point x="569.375" y="835.4975"/>
      <point x="591.4125" y="828.9599999999999" type="curve"/>
      <point x="583.2025" y="988.0975000000001" type="line"/>
      <point x="564.2725" y="993.3499999999999"/>
      <point x="543.1225" y="997.8874999999999"/>
      <point x="515.7575" y="997.8874999999999" type="curve" smooth="yes"/>
      <point x="370.57" y="997.8874999999999"/>
      <point x="289.19" y="905.04"/>
      <point x="260.5875" y="755.36" type="curve"/>
      <point x="223.50500000000002" y="754.3925" type="line"/>
    </contour>
    <contour>
      <point x="112.44999999999999" y="0.0" type="line"/>
      <point x="265.63" y="0.0" type="line"/>
      <point x="265.63" y="701.505" type="line"/>
      <point x="252.38750000000002" y="721.4575" type="line"/>
      <point x="260.92" y="986.3875" type="line"/>
      <point x="112.44999999999999" y="986.3875" type="line"/>
    </contour>
  </outline>
</glyph>
<glyph name="s" format="2">
  <advance width="713.1275"/>
  <unicode hex="0073"/>
  <anchor x="353.26" y="0.0" name="bottom"/>
  <anchor x="352.0825" y="986.3875" name="top"/>
  <outline>
    <contour>
      <point x="343.8725" y="-17.962500000000002" type="curve" smooth="yes"/>
      <point x="550.7625" y="-17.962500000000002"/>
      <point x="656.86" y="77.1725"/>
      <point x="656.86" y="250.72250000000003" type="curve" smooth="yes"/>
      <point x="656.86" y="276.625" type="line" smooth="yes"/>
      <point x="656.86" y="428.47"/>
      <point x="589.515" y="492.9"/>
      <point x="403.51" y="556.9325" type="curve" smooth="yes"/>
      <point x="256.775" y="608.0775"/>
      <point x="209.0925" y="646.6575"/>
      <point x="209.0925" y="734.16" type="curve" smooth="yes"/>
      <point x="209.0925" y="746.9875" type="line" smooth="yes"/>
      <point x="209.0925" y="827.415"/>
      <point x="257.2525" y="875.5424999999999"/>
      <point x="375.4175" y="875.5424999999999" type="curve" smooth="yes"/>
      <point x="480.81" y="875.5424999999999"/>
      <point x="562.1225" y="842.005"/>
      <point x="632.2625" y="797.7475000000001" type="curve"/>
      <point x="619.305" y="931.985" type="line"/>
      <point x="561.955" y="970.845"/>
      <point x="475.24999999999994" y="1004.635"/>
      <point x="356.4" y="1004.635" type="curve" smooth="yes"/>
      <point x="159.5" y="1004.635"/>
      <point x="59.0525" y="914.6775"/>
      <point x="59.0525" y="752.4825" type="curve" smooth="yes"/>
      <point x="59.0525" y="736.23" type="line" smooth="yes"/>
      <point x="59.0525" y="591.6925"/>
      <point x="121.3" y="518.8475"/>
      <point x="306.6225" y="455.1375" type="curve" smooth="yes"/>
      <point x="471.5725" y="395.49249999999995"/>
      <point x="506.42749999999995" y="355.36499999999995"/>
      <point x="506.42749999999995" y="273.625" type="curve" smooth="yes"/>
      <point x="506.42749999999995" y="253.46999999999997" type="line" smooth="yes"/>
      <point x="506.42749999999995" y="163.6125"/>
      <point x="448.585" y="114.77"/>
      <point x="330.84999999999997" y="114.77" type="curve" smooth="yes"/>
      <point x="221.4625" y="114.77"/>
      <point x="134.72" y="150.1625"/>
      <point x="57.51" y="196.06" type="curve"/>
      <point x="70.4675" y="51.294999999999995" type="line"/>
      <point x="130.88750000000002" y="16.542499999999997"/>
      <point x="223.23749999999998" y="-17.962500000000002"/>
    </contour>
  </outline>
</glyph>
<glyph name="t" format="2">
  <advance width="643.6525"/>
  <unicode hex="0074"/>
  <anchor x="372.565" y="0.0" name="bottom"/>
  <anchor x="323.7" y="493.64" name="center"/>
  <anchor x="228.50250000000003" y="1219.365" name="top"/>
  <anchor x="473.86" y="1414.9524999999999" name="topright"/>
  <outline>
    <contour>
      <point x="407.3775" y="-16.07" type="curve" smooth="yes"/>
      <point x="479.79749999999996" y="-16.07"/>
      <point x="548.26" y="-0.5325000000000001"/>
      <point x="597.0775" y="24.29" type="curve"/>
      <point x="609.535" y="158.3825" type="line"/>
      <point x="562.4925" y="134.73250000000002"/>
      <point x="508.38000000000005" y="120.5875"/>
      <point x="449.69749999999993" y="120.5875" type="curve" smooth="yes"/>
      <point x="341.2475" y="120.5875"/>
      <point x="299.27500000000003" y="166.35000000000002"/>
      <point x="299.27500000000003" y="273.7625" type="curve" smooth="yes"/>
      <point x="299.27500000000003" y="931.3275" type="line"/>
      <point x="148.0575" y="931.3275" type="line"/>
      <point x="148.0575" y="248.06750000000002" type="line" smooth="yes"/>
      <point x="148.0575" y="72.52250000000001"/>
      <point x="224.085" y="-16.07"/>
    </contour>
    <contour>
      <point x="15.504999999999999" y="850.07" type="line"/>
      <point x="582.965" y="850.07" type="line"/>
      <point x="595.4225" y="973.5225" type="line"/>
      <point x="15.504999999999999" y="973.5225" type="line"/>
    </contour>
    <contour>
      <point x="149.6275" y="958.5975000000001" type="line"/>
      <point x="295.0275" y="958.5975000000001" type="line"/>
      <point x="301.56" y="1246.3225" type="line"/>
      <point x="149.23499999999999" y="1223.865" type="line"/>
    </contour>
  </outline>
</glyph>
<glyph name="u" format="2">
  <advance width="893.6825"/>
  <unicode hex="0075"/>
  <anchor x="447.14250000000004" y="0.0" name="bottom"/>
  <anchor x="818.1675" y="0.0" name="ogonek"/>
  <anchor x="447.14250000000004" y="986.3875" name="top"/>
  <anchor x="877.4250000000001" y="986.3875" name="topright"/>
  <outline>
    <contour>
      <point x="256.0925" y="986.3875" type="line"/>
      <point x="102.91250000000001" y="986.3875" type="line"/>
      <point x="102.91250000000001" y="309.3125" type="line" smooth="yes"/>
      <point x="102.91250000000001" y="97.25250000000001"/>
      <point x="180.1225" y="-17.57"/>
      <point x="365.1225" y="-17.57" type="curve" smooth="yes"/>
      <point x="524.6975" y="-17.57"/>
      <point x="602.39" y="70.4825"/>
      <point x="628.5625" y="186.115" type="curve"/>
      <point x="664.1125" y="186.115" type="line"/>
      <point x="632.945" y="295.91" type="line"/>
      <point x="611.2625" y="187.865"/>
      <point x="543.35" y="110.80749999999999"/>
      <point x="426.82" y="110.80749999999999" type="curve" smooth="yes"/>
      <point x="300.6075" y="110.80749999999999"/>
      <point x="256.0925" y="191.365"/>
      <point x="256.0925" y="327.0125" type="curve" smooth="yes"/>
    </contour>
    <contour>
      <point x="781.2325000000001" y="986.3875" type="line"/>
      <point x="628.0525" y="986.3875" type="line"/>
      <point x="628.0525" y="207.4675" type="line"/>
      <point x="635.085" y="200.01" type="line"/>
      <point x="628.3375" y="0.0" type="line"/>
      <point x="781.2325000000001" y="0.0" type="line"/>
    </contour>
  </outline>
</glyph>
<glyph name="v" format="2">
  <advance width="825.6125"/>
  <unicode hex="0076"/>
  <anchor x="413.10999999999996" y="0.0" name="bottom"/>
  <anchor x="413.10999999999996" y="986.3875" name="top"/>
  <outline>
    <contour>
      <point x="422.5025" y="106.00500000000001" type="line"/>
      <point x="403.2175" y="106.00500000000001" type="line"/>
      <point x="198.84" y="986.3875" type="line"/>
      <point x="41.875" y="986.3875" type="line"/>
      <point x="286.7275" y="0.0" type="line"/>
      <point x="538.9925000000001" y="0.0" type="line"/>
      <point x="783.7375" y="986.3875" type="line"/>
      <point x="626.7725" y="986.3875" type="line"/>
    </contour>
  </outline>
</glyph>
<glyph name="w" format="2">
  <advance width="1261.8825"/>
  <unicode hex="0077"/>
  <anchor x="631.1375" y="0.0" name="bottom"/>
  <anchor x="631.1375" y="986.3875" name="top"/>
  <outline>
    <contour>
      <point x="238.2975" y="0.0" type="line"/>
      <point x="476.1475" y="0.0" type="line"/>
      <point x="595.6325" y="647.3625000000001" type="line"/>
      <point x="624.96" y="846.14" type="line"/>
      <point x="637.5999999999999" y="846.14" type="line"/>
      <point x="667.4275" y="647.47" type="line"/>
      <point x="787.02" y="0.0" type="line"/>
      <point x="1023.9775000000001" y="0.0" type="line"/>
      <point x="1211.47" y="986.3875" type="line"/>
      <point x="1058.43" y="986.3875" type="line"/>
      <point x="908.9499999999999" y="111.8925" type="line"/>
      <point x="893.8050000000001" y="111.8925" type="line"/>
      <point x="738.2125" y="960.4200000000001" type="line"/>
      <point x="524.455" y="960.4200000000001" type="line"/>
      <point x="368.97" y="111.8925" type="line"/>
      <point x="353.4325" y="111.8925" type="line"/>
      <point x="205.8075" y="986.3875" type="line"/>
      <point x="50.4125" y="986.3875" type="line"/>
    </contour>
  </outline>
</glyph>
<glyph name="x" format="2">
  <advance width="807.85"/>
  <unicode hex="0078"/>
  <anchor x="404.175" y="0.0" name="bottom"/>
  <anchor x="404.175" y="986.3875" name="top"/>
  <outline>
    <contour>
      <point x="45.057500000000005" y="0.0" type="line"/>
      <point x="206.3775" y="0.0" type="line"/>
      <point x="398.60499999999996" y="435.19" type="line"/>
      <point x="410.53" y="435.19" type="line"/>
      <point x="601.58" y="0.0" type="line"/>
      <point x="762.7925" y="0.0" type="line"/>
      <point x="516.7025" y="540.2325000000001" type="line"/>
      <point x="516.7025" y="490.0475" type="line"/>
      <point x="757.9" y="986.3875" type="line"/>
      <point x="597.1875" y="986.3875" type="line"/>
      <point x="410.53" y="582.0625" type="line"/>
      <point x="398.60499999999996" y="582.0625" type="line"/>
      <point x="210.77" y="986.3875" type="line"/>
      <point x="50.0575" y="986.3875" type="line"/>
      <point x="291.255" y="489.94" type="line"/>
      <point x="291.255" y="540.125" type="line"/>
    </contour>
  </outline>
</glyph>
<glyph name="y" format="2">
  <advance width="825.6125000000001"/>
  <unicode hex="0079"/>
  <anchor x="610.49" y="-45.965" name="bottom"/>
  <anchor x="413.395" y="986.3875" name="top"/>
  <outline>
    <contour>
      <point x="485.2425" y="148.0425" type="line"/>
      <point x="398.90000000000003" y="148.0425" type="line"/>
      <point x="198.84" y="986.3875" type="line"/>
      <point x="41.875" y="986.3875" type="line"/>
      <point x="287.90500000000003" y="40.467499999999994" type="line"/>
      <point x="467.145" y="40.467499999999994" type="line"/>
      <point x="396.3775" y="95.825" type="line"/>
      <point x="277.66249999999997" y="-347.0" type="line"/>
      <point x="429.2025" y="-347.0" type="line"/>
      <point x="783.7375000000001" y="986.3875" type="line"/>
      <point x="627.5575" y="986.3875" type="line"/>
      <point x="408.69" y="123.735" type="line"/>
    </contour>
  </outline>
</glyph>
<glyph name="z" format="2">
  <advance width="734.8425"/>
  <unicode hex="007A"/>
  <anchor x="366.8675" y="0.0" name="bottom"/>
  <anchor x="367.975" y="493.64" name="center"/>
  <anchor x="366.8675" y="986.3875" name="top"/>
  <outline>
    <contour>
      <point x="666.7575" y="130.33999999999997" type="line"/>
      <point x="238.395" y="130.33999999999997" type="line"/>
      <point x="663.6875" y="867.9675" type="line"/>
      <point x="663.6875" y="986.3875" type="line"/>
      <point x="69.5475" y="986.3875" type="line"/>
      <point x="69.5475" y="857.3325" type="line"/>
      <point x="492.27" y="857.3325" type="line"/>
      <point x="67.37" y="119.705" type="line"/>
      <point x="67.37" y="0.0" type="line"/>
      <point x="666.7575" y="0.0" type="line"/>
    </contour>
  </outline>
</glyph>
<glyph name="braceleft" format="2">
  <advance width="587.33"/>
  <unicode hex="007B"/>
  <outline>
    <contour>
      <point x="543.2175" y="1333.2475" type="line"/>
      <point x="502.76000000000005" y="1346.2475000000002"/>
      <point x="458.65749999999997" y="1354.855"/>
      <point x="410.8725" y="1354.855" type="curve" smooth="yes"/>
      <point x="254.225" y="1354.855"/>
      <point x="179.885" y="1277.4350000000002"/>
      <point x="179.885" y="1102.0025" type="curve" smooth="yes"/>
      <point x="179.885" y="1011.66"/>
      <point x="193.9925" y="863.6175"/>
      <point x="193.9925" y="786.5275" type="curve" smooth="yes"/>
      <point x="193.9925" y="685.4375"/>
      <point x="162.385" y="634.9975"/>
      <point x="56.225" y="626.1375" type="curve"/>
      <point x="56.225" y="488.545" type="line"/>
      <point x="162.385" y="478.97"/>
      <point x="193.9925" y="428.6375"/>
      <point x="193.9925" y="326.94" type="curve" smooth="yes"/>
      <point x="193.9925" y="251.4575"/>
      <point x="179.885" y="101.0925"/>
      <point x="179.885" y="7.642499999999998" type="curve" smooth="yes"/>
      <point x="179.885" y="-167.575"/>
      <point x="254.54749999999999" y="-245.49499999999998"/>
      <point x="410.8725" y="-245.49499999999998" type="curve" smooth="yes"/>
      <point x="458.65749999999997" y="-245.49499999999998"/>
      <point x="502.76000000000005" y="-236.88750000000002"/>
      <point x="543.2175" y="-223.6725" type="curve"/>
      <point x="543.2175" y="-106.4625" type="line"/>
      <point x="517.8575000000001" y="-115.93"/>
      <point x="485.815" y="-123.3975"/>
      <point x="449.65999999999997" y="-123.3975" type="curve" smooth="yes"/>
      <point x="363.3275" y="-123.3975"/>
      <point x="327.6775" y="-79.8175"/>
      <point x="327.6775" y="21.525" type="curve" smooth="yes"/>
      <point x="327.6775" y="99.22749999999999"/>
      <point x="341.285" y="247.0225"/>
      <point x="341.285" y="330.9025" type="curve" smooth="yes"/>
      <point x="341.285" y="457.795"/>
      <point x="305.3875" y="536.8275"/>
      <point x="176.3225" y="555.29" type="curve"/>
      <point x="184.71" y="535.1225" type="line"/>
      <point x="184.71" y="561.6775" type="line"/>
      <point x="303.78000000000003" y="582.1025"/>
      <point x="341.285" y="655.6725"/>
      <point x="341.285" y="782.565" type="curve" smooth="yes"/>
      <point x="341.285" y="864.945"/>
      <point x="327.6775" y="1011.24"/>
      <point x="327.6775" y="1088.62" type="curve" smooth="yes"/>
      <point x="327.6775" y="1189.4625"/>
      <point x="363.3275" y="1233.0425"/>
      <point x="448.875" y="1233.0425" type="curve" smooth="yes"/>
      <point x="485.42250000000007" y="1233.0425"/>
      <point x="517.8575000000001" y="1225.6825"/>
      <point x="543.2175" y="1216.6075" type="curve"/>
    </contour>
  </outline>
</glyph>
<glyph name="bar" format="2">
  <advance width="431.28249999999997"/>
  <unicode hex="007C"/>
  <outline>
    <contour>
      <point x="283.43499999999995" y="-429.37" type="line"/>
      <point x="283.43499999999995" y="1423.5" type="line"/>
      <point x="147.8475" y="1423.5" type="line"/>
      <point x="147.8475" y="-429.37" type="line"/>
    </contour>
  </outline>
</glyph>
<glyph name="braceright" format="2">
  <advance width="587.33"/>
  <unicode hex="007D"/>
  <outline>
    <contour>
      <point x="44.112500000000004" y="1333.2475" type="curve"/>
      <point x="44.112500000000004" y="1216.6075" type="line"/>
      <point x="69.4725" y="1225.6825"/>
      <point x="101.9075" y="1233.0425"/>
      <point x="138.455" y="1233.0425" type="curve" smooth="yes"/>
      <point x="224.00249999999997" y="1233.0425"/>
      <point x="259.65250000000003" y="1189.4625"/>
      <point x="259.65250000000003" y="1088.62" type="curve" smooth="yes"/>
      <point x="259.65250000000003" y="1011.24"/>
      <point x="246.045" y="864.945"/>
      <point x="246.045" y="782.565" type="curve" smooth="yes"/>
      <point x="246.045" y="655.6725"/>
      <point x="283.54999999999995" y="582.1025"/>
      <point x="402.62" y="561.6775" type="curve"/>
      <point x="402.62" y="535.1225" type="line"/>
      <point x="411.0075" y="555.29" type="line"/>
      <point x="281.9425" y="536.8275"/>
      <point x="246.045" y="457.795"/>
      <point x="246.045" y="330.9025" type="curve" smooth="yes"/>
      <point x="246.045" y="247.0225"/>
      <point x="259.65250000000003" y="99.22749999999999"/>
      <point x="259.65250000000003" y="21.525" type="curve" smooth="yes"/>
      <point x="259.65250000000003" y="-79.8175"/>
      <point x="224.00249999999997" y="-123.3975"/>
      <point x="137.67000000000002" y="-123.3975" type="curve" smooth="yes"/>
      <point x="101.515" y="-123.3975"/>
      <point x="69.4725" y="-115.93"/>
      <point x="44.112500000000004" y="-106.4625" type="curve"/>
      <point x="44.112500000000004" y="-223.6725" type="line"/>
      <point x="84.57" y="-236.88750000000002"/>
      <point x="128.6725" y="-245.49499999999998"/>
      <point x="176.4575" y="-245.49499999999998" type="curve" smooth="yes"/>
      <point x="332.7825" y="-245.49499999999998"/>
      <point x="407.44500000000005" y="-167.575"/>
      <point x="407.44500000000005" y="7.642499999999998" type="curve" smooth="yes"/>
      <point x="407.44500000000005" y="101.0925"/>
      <point x="393.33750000000003" y="251.4575"/>
      <point x="393.33750000000003" y="326.94" type="curve" smooth="yes"/>
      <point x="393.33750000000003" y="428.6375"/>
      <point x="424.945" y="478.97"/>
      <point x="531.105" y="488.545" type="curve"/>
      <point x="531.105" y="626.1375" type="line"/>
      <point x="424.945" y="634.9975"/>
      <point x="393.33750000000003" y="685.4375"/>
      <point x="393.33750000000003" y="786.5275" type="curve" smooth="yes"/>
      <point x="393.33750000000003" y="863.6175"/>
      <point x="407.44500000000005" y="1011.66"/>
      <point x="407.44500000000005" y="1102.0025" type="curve" smooth="yes"/>
      <point x="407.44500000000005" y="1277.4350000000002"/>
      <point x="333.10499999999996" y="1354.855"/>
      <point x="176.4575" y="1354.855" type="curve" smooth="yes"/>
      <point x="128.6725" y="1354.855"/>
      <point x="84.57" y="1346.2475000000002"/>
    </contour>
  </outline>
</glyph>
<glyph name="asciitilde" format="2">
  <advance width="930.755"/>
  <unicode hex="007E"/>
  <outline>
    <contour>
      <point x="640.6625" y="505.945" type="curve" smooth="yes"/>
      <point x="770.7725" y="505.945"/>
      <point x="822.73" y="583.35"/>
      <point x="822.73" y="720.035" type="curve" smooth="yes"/>
      <point x="822.73" y="754.81" type="line"/>
      <point x="707.375" y="754.81" type="line"/>
      <point x="707.375" y="736.6650000000001" type="line" smooth="yes"/>
      <point x="707.375" y="672.29"/>
      <point x="686.935" y="636.6775"/>
      <point x="629.6025000000001" y="636.6775" type="curve" smooth="yes"/>
      <point x="535.3349999999999" y="636.6775"/>
      <point x="416.4475" y="736.7725"/>
      <point x="289.8075" y="736.7725" type="curve" smooth="yes"/>
      <point x="159.1975" y="736.7725"/>
      <point x="107.63250000000001" y="656.62"/>
      <point x="107.63250000000001" y="521.075" type="curve" smooth="yes"/>
      <point x="107.63250000000001" y="487.4775" type="line"/>
      <point x="222.2725" y="487.4775" type="line"/>
      <point x="222.2725" y="504.26750000000004" type="line" smooth="yes"/>
      <point x="222.2725" y="567.68"/>
      <point x="243.71249999999998" y="605.755"/>
      <point x="300.3675" y="605.755" type="curve" smooth="yes"/>
      <point x="396.775" y="605.755"/>
      <point x="513.4475000000001" y="505.945"/>
    </contour>
  </outline>
</glyph>
<glyph name="exclamdown" format="2">
  <advance width="411.4225"/>
  <unicode hex="00A1"/>
  <outline>
    <contour>
      <point x="268.15000000000003" y="600.9825000000001" type="line"/>
      <point x="143.2725" y="600.9825000000001" type="line"/>
      <point x="123.92750000000001" y="-291.6125" type="line"/>
      <point x="287.38750000000005" y="-291.6125" type="line"/>
    </contour>
    <contour>
      <point x="206.335" y="1003.9525" type="curve" smooth="yes"/>
      <point x="143.655" y="1003.9525"/>
      <point x="115.38499999999999" y="965.435"/>
      <point x="115.38499999999999" y="895.7125" type="curve" smooth="yes"/>
      <point x="115.38499999999999" y="882.32" type="line" smooth="yes"/>
      <point x="115.38499999999999" y="813.5975"/>
      <point x="143.655" y="775.0799999999999"/>
      <point x="206.335" y="775.0799999999999" type="curve" smooth="yes"/>
      <point x="267.66" y="775.0799999999999"/>
      <point x="297.6075" y="813.5975"/>
      <point x="297.6075" y="882.32" type="curve" smooth="yes"/>
      <point x="297.6075" y="895.7125" type="line" smooth="yes"/>
      <point x="297.6075" y="965.435"/>
      <point x="267.66" y="1003.9525"/>
    </contour>
  </outline>
</glyph>
<glyph name="cent" format="2">
  <advance width="702.39"/>
  <unicode hex="00A2"/>
  <anchor x="392.0125" y="0.0" name="bottom"/>
  <anchor x="392.0125" y="986.3875" name="top"/>
  <outline>
    <contour>
      <point x="471.14000000000004" y="940.89" type="line"/>
      <point x="471.14000000000004" y="1175.2900000000002" type="line"/>
      <point x="338.8" y="1175.2900000000002" type="line"/>
      <point x="338.8" y="940.89" type="line"/>
    </contour>
    <contour>
      <point x="471.14000000000004" y="-197.07999999999998" type="line"/>
      <point x="471.14000000000004" y="52.847500000000004" type="line"/>
      <point x="338.8" y="52.847500000000004" type="line"/>
      <point x="338.8" y="-197.07999999999998" type="line"/>
    </contour>
    <component base="c"/>
  </outline>
</glyph>
<glyph name="sterling" format="2">
  <advance width="855.895"/>
  <unicode hex="00A3"/>
  <outline>
    <contour>
      <point x="67.01" y="599.4275" type="line"/>
      <point x="713.24" y="599.4275" type="line"/>
      <point x="722.38" y="721.3475" type="line"/>
      <point x="76.15" y="721.3475" type="line"/>
    </contour>
    <contour>
      <point x="236.58749999999998" y="137.04999999999998" type="line"/>
      <point x="237.66250000000002" y="142.7925" type="line"/>
      <point x="335.77500000000003" y="197.56"/>
      <point x="387.40999999999997" y="285.38"/>
      <point x="387.40999999999997" y="466.12249999999995" type="curve" smooth="yes"/>
      <point x="387.40999999999997" y="613.13"/>
      <point x="332.4425" y="798.645"/>
      <point x="332.4425" y="949.035" type="curve" smooth="yes"/>
      <point x="332.4425" y="1091.2475"/>
      <point x="397.3875" y="1161.1599999999999"/>
      <point x="544.4024999999999" y="1161.1599999999999" type="curve" smooth="yes"/>
      <point x="617.1225" y="1161.1599999999999"/>
      <point x="686.4125" y="1147.5149999999999"/>
      <point x="756.9875" y="1118.01" type="curve"/>
      <point x="744.9224999999999" y="1253.0649999999998" type="line"/>
      <point x="683.25" y="1279.1725"/>
      <point x="596.825" y="1298.425"/>
      <point x="510.29249999999996" y="1298.425" type="curve" smooth="yes"/>
      <point x="277.005" y="1298.425"/>
      <point x="172.16000000000003" y="1188.0375"/>
      <point x="172.16000000000003" y="967.7675" type="curve" smooth="yes"/>
      <point x="172.16000000000003" y="805.5225"/>
      <point x="228.91249999999997" y="623.265"/>
      <point x="228.41249999999997" y="459.235" type="curve" smooth="yes"/>
      <point x="228.305" y="285.87"/>
      <point x="189.4075" y="194.27"/>
      <point x="88.50500000000001" y="136.55" type="curve" smooth="yes"/>
      <point x="73.8275" y="132.55" type="line"/>
      <point x="73.8275" y="0.0" type="line"/>
      <point x="798.3475" y="0.0" type="line"/>
      <point x="798.3475" y="137.04999999999998" type="line"/>
    </contour>
  </outline>
</glyph>
<glyph name="currency" format="2">
  <advance width="876.115"/>
  <unicode hex="00A4"/>
  <outline>
    <contour>
      <point x="437.66499999999996" y="258.375" type="curve" smooth="yes"/>
      <point x="637.205" y="258.375"/>
      <point x="744.12" y="373.5425"/>
      <point x="744.12" y="584.8825" type="curve" smooth="yes"/>
      <point x="744.12" y="652.1175000000001" type="line" smooth="yes"/>
      <point x="744.12" y="862.5649999999999"/>
      <point x="637.705" y="977.625"/>
      <point x="438.16499999999996" y="977.625" type="curve" smooth="yes"/>
      <point x="238.62500000000003" y="977.625"/>
      <point x="131.70999999999998" y="862.5649999999999"/>
      <point x="131.70999999999998" y="652.1175000000001" type="curve" smooth="yes"/>
      <point x="131.70999999999998" y="584.8825" type="line" smooth="yes"/>
      <point x="131.70999999999998" y="373.5425"/>
      <point x="238.12500000000003" y="258.375"/>
    </contour>
    <contour>
      <point x="438.16499999999996" y="374.3" type="curve" smooth="yes"/>
      <point x="326.565" y="374.3"/>
      <point x="268.7975" y="444.89000000000004"/>
      <point x="268.7975" y="581.35" type="curve" smooth="yes"/>
      <point x="268.7975" y="655.65" type="line" smooth="yes"/>
      <point x="268.7975" y="792.0025"/>
      <point x="326.565" y="862.0925000000001"/>
      <point x="438.16499999999996" y="862.0925000000001" type="curve" smooth="yes"/>
      <point x="549.1574999999999" y="862.0925000000001"/>
      <point x="605.855" y="791.61"/>
      <point x="606.2475" y="655.65" type="curve" smooth="yes"/>
      <point x="607.0324999999999" y="581.35" type="line" smooth="yes"/>
      <point x="607.425" y="444.89000000000004"/>
      <point x="549.1574999999999" y="374.3"/>
    </contour>
    <contour>
      <point x="659.7325" y="411.34749999999997" type="line"/>
      <point x="572.7875" y="331.3275" type="line"/>
      <point x="729.9825" y="132.375" type="line"/>
      <point x="821.8525" y="204.8625" type="line"/>
    </contour>
    <contour>
      <point x="305.8975" y="335.1125" type="line"/>
      <point x="218.88250000000002" y="412.885" type="line"/>
      <point x="54.655" y="204.8625" type="line"/>
      <point x="146.24" y="132.375" type="line"/>
    </contour>
    <contour>
      <point x="212.45749999999998" y="826.5075" type="line"/>
      <point x="302.54249999999996" y="901.28" type="line"/>
      <point x="145.63250000000002" y="1100.27" type="line"/>
      <point x="54.655" y="1027.89" type="line"/>
    </contour>
    <contour>
      <point x="569.4325" y="895.855" type="line"/>
      <point x="656.0925" y="816.265" type="line"/>
      <point x="821.0675" y="1027.89" type="line"/>
      <point x="730.09" y="1100.27" type="line"/>
    </contour>
  </outline>
</glyph>
<glyph name="yen" format="2">
  <advance width="920.7349999999999"/>
  <unicode hex="00A5"/>
  <anchor x="458.33000000000004" y="0.0" name="bottom"/>
  <anchor x="458.33000000000004" y="1278.0" name="top"/>
  <anchor x="36.225" y="1278.0" name="topleft"/>
  <outline>
    <contour>
      <point x="523.4425" y="546.9425" type="line"/>
      <point x="813.4025" y="546.9425" type="line"/>
      <point x="823.8275" y="666.47" type="line"/>
      <point x="550.895" y="666.47" type="line"/>
    </contour>
    <contour>
      <point x="110.40249999999999" y="368.455" type="line"/>
      <point x="99.87" y="250.4975" type="line"/>
      <point x="813.4025" y="250.4975" type="line"/>
      <point x="823.8275" y="368.455" type="line"/>
    </contour>
    <contour>
      <point x="362.02250000000004" y="666.47" type="line"/>
      <point x="110.40249999999999" y="666.47" type="line"/>
      <point x="99.87" y="546.9425" type="line"/>
      <point x="390.975" y="546.9425" type="line"/>
    </contour>
    <component base="Y" xOffset="15.58"/>
  </outline>
</glyph>
<glyph name="brokenbar" format="2">
  <advance width="431.28249999999997"/>
  <unicode hex="00A6"/>
  <outline>
    <contour>
      <point x="283.43499999999995" y="587.0425" type="line"/>
      <point x="283.43499999999995" y="1423.5" type="line"/>
      <point x="147.8475" y="1423.5" type="line"/>
      <point x="147.8475" y="587.0425" type="line"/>
    </contour>
    <contour>
      <point x="283.43499999999995" y="-429.37" type="line"/>
      <point x="283.43499999999995" y="410.04999999999995" type="line"/>
      <point x="147.8475" y="410.04999999999995" type="line"/>
      <point x="147.8475" y="-429.37" type="line"/>
    </contour>
  </outline>
</glyph>
<glyph name="section" format="2">
  <advance width="772.5675"/>
  <unicode hex="00A7"/>
  <outline>
    <contour>
      <point x="436.48500000000007" y="398.38" type="curve"/>
      <point x="530.505" y="342.9425" type="line"/>
      <point x="530.1125" y="374.1425" type="line"/>
      <point x="627.6500000000001" y="402.71250000000003"/>
      <point x="681.94" y="480.315"/>
      <point x="681.94" y="581.9325" type="curve" smooth="yes"/>
      <point x="681.94" y="604.3499999999999" type="line" smooth="yes"/>
      <point x="681.94" y="751.5174999999999"/>
      <point x="608.9925" y="810.1675"/>
      <point x="424.95" y="878.4475" type="curve" smooth="yes"/>
      <point x="284.21" y="929.415"/>
      <point x="237.70500000000004" y="964.64"/>
      <point x="237.70500000000004" y="1041.4924999999998" type="curve" smooth="yes"/>
      <point x="237.70500000000004" y="1052.53" type="line" smooth="yes"/>
      <point x="237.70500000000004" y="1127.0275"/>
      <point x="285.58" y="1170.01"/>
      <point x="402.46" y="1170.01" type="curve" smooth="yes"/>
      <point x="508.245" y="1170.01"/>
      <point x="590.3425" y="1136.4725"/>
      <point x="657.735" y="1091.8225" type="curve"/>
      <point x="644.7775" y="1224.8825000000002" type="line"/>
      <point x="587.82" y="1262.9575"/>
      <point x="500.72249999999997" y="1297.925"/>
      <point x="380.695" y="1297.925" type="curve" smooth="yes"/>
      <point x="187.435" y="1297.925"/>
      <point x="87.27250000000001" y="1212.72"/>
      <point x="87.27250000000001" y="1057.6325" type="curve" smooth="yes"/>
      <point x="87.27250000000001" y="1045.5249999999999" type="line" smooth="yes"/>
      <point x="87.27250000000001" y="917.4875"/>
      <point x="150.0575" y="843.04"/>
      <point x="337.875" y="777.1525" type="curve" smooth="yes"/>
      <point x="498.9" y="719.9325"/>
      <point x="538.5725000000001" y="679.875"/>
      <point x="538.5725000000001" y="578.585" type="curve" smooth="yes"/>
      <point x="538.5725000000001" y="547.3925" type="line" smooth="yes"/>
      <point x="538.5725000000001" y="483.325"/>
      <point x="507.5575" y="424.0625"/>
    </contour>
    <contour>
      <point x="331.4425" y="789.3075" type="curve"/>
      <point x="238.9925" y="841.675" type="line"/>
      <point x="239.77749999999997" y="810.7975" type="line"/>
      <point x="138.815" y="777.125"/>
      <point x="87.665" y="706.5875"/>
      <point x="87.665" y="603.7925" type="curve" smooth="yes"/>
      <point x="87.665" y="586.0525" type="line" smooth="yes"/>
      <point x="87.665" y="447.3"/>
      <point x="155.4075" y="381.1925"/>
      <point x="339.5525" y="309.1325" type="curve" smooth="yes"/>
      <point x="488.8725" y="253.735"/>
      <point x="531.9" y="217.1125"/>
      <point x="531.9" y="136.91" type="curve" smooth="yes"/>
      <point x="531.9" y="125.12" type="line" smooth="yes"/>
      <point x="531.9" y="45.4725"/>
      <point x="474.66499999999996" y="-2.8325"/>
      <point x="357.1075" y="-2.8325" type="curve" smooth="yes"/>
      <point x="246.5425" y="-2.8325"/>
      <point x="158.515" y="32.56"/>
      <point x="85.23" y="78.06500000000001" type="curve"/>
      <point x="97.795" y="-63.56" type="line"/>
      <point x="157.82250000000002" y="-99.09750000000001"/>
      <point x="250.28000000000003" y="-134.38750000000002"/>
      <point x="370.915" y="-134.38750000000002" type="curve" smooth="yes"/>
      <point x="576.8425" y="-134.38750000000002"/>
      <point x="681.94" y="-42.93"/>
      <point x="681.94" y="120.0175" type="curve" smooth="yes"/>
      <point x="681.94" y="136.1625" type="line" smooth="yes"/>
      <point x="681.94" y="273.9425"/>
      <point x="617.805" y="338.545"/>
      <point x="430.5525" y="408.0725" type="curve" smooth="yes"/>
      <point x="279.3925" y="464.82"/>
      <point x="231.0325" y="507.26"/>
      <point x="231.0325" y="613.2425" type="curve" smooth="yes"/>
      <point x="231.0325" y="641.08" type="line"/>
      <point x="231.0325" y="708.6800000000001"/>
      <point x="262.83250000000004" y="763.625"/>
    </contour>
  </outline>
</glyph>
<glyph name="copyright" format="2">
  <advance width="1244.96"/>
  <unicode hex="00A9"/>
  <outline>
    <contour>
      <point x="622.48" y="-20.817500000000003" type="curve" smooth="yes"/>
      <point x="958.455" y="-20.817500000000003"/>
      <point x="1151.4775" y="171.8875"/>
      <point x="1151.4775" y="510.82500000000005" type="curve" smooth="yes"/>
      <point x="1151.4775" y="769.315" type="line" smooth="yes"/>
      <point x="1151.4775" y="1107.1825000000001"/>
      <point x="958.455" y="1298.8174999999999"/>
      <point x="622.48" y="1298.8174999999999" type="curve" smooth="yes"/>
      <point x="285.72" y="1298.8174999999999"/>
      <point x="93.4825" y="1107.1825000000001"/>
      <point x="93.4825" y="769.315" type="curve" smooth="yes"/>
      <point x="93.4825" y="510.82500000000005" type="line" smooth="yes"/>
      <point x="93.4825" y="171.8875"/>
      <point x="285.72" y="-20.817500000000003"/>
    </contour>
    <contour>
      <point x="656.0775" y="309.5375" type="curve" smooth="yes"/>
      <point x="726.76" y="309.5375"/>
      <point x="780.5074999999999" y="331.2575"/>
      <point x="813.8625000000001" y="357.44" type="curve"/>
      <point x="822.18" y="456.315" type="line"/>
      <point x="785.4275" y="428.45000000000005"/>
      <point x="741.3525000000001" y="407.015"/>
      <point x="680.45" y="407.015" type="curve" smooth="yes"/>
      <point x="581.22" y="407.015"/>
      <point x="535.8924999999999" y="467.1375"/>
      <point x="535.8924999999999" y="572.8449999999999" type="curve" smooth="yes"/>
      <point x="535.8924999999999" y="710.01" type="line" smooth="yes"/>
      <point x="535.8924999999999" y="815.7175000000001"/>
      <point x="578.58" y="875.2325"/>
      <point x="676.595" y="875.2325" type="curve" smooth="yes"/>
      <point x="738.0675" y="875.2325"/>
      <point x="781.3575" y="854.2975"/>
      <point x="817.61" y="826.54" type="curve"/>
      <point x="808.7925" y="924.13" type="line"/>
      <point x="776.1525" y="948.92"/>
      <point x="724.3675" y="970.7475"/>
      <point x="655.5075" y="970.7475" type="curve" smooth="yes"/>
      <point x="498.56" y="970.7475"/>
      <point x="425.0325" y="875.4675"/>
      <point x="425.0325" y="707.9399999999999" type="curve" smooth="yes"/>
      <point x="425.0325" y="572.5225" type="line" smooth="yes"/>
      <point x="425.0325" y="404.21"/>
      <point x="498.06" y="309.5375"/>
    </contour>
    <contour>
      <point x="622.48" y="71.45" type="curve" smooth="yes"/>
      <point x="357.5675" y="71.45"/>
      <point x="200.9175" y="228.105"/>
      <point x="200.9175" y="501.2975" type="curve" smooth="yes"/>
      <point x="200.9175" y="779.4499999999999" type="line" smooth="yes"/>
      <point x="200.9175" y="1051.0725"/>
      <point x="357.5675" y="1206.55"/>
      <point x="622.48" y="1206.55" type="curve" smooth="yes"/>
      <point x="886.6075" y="1206.55"/>
      <point x="1044.0425" y="1051.0725"/>
      <point x="1044.0425" y="779.4499999999999" type="curve" smooth="yes"/>
      <point x="1044.0425" y="501.2975" type="line" smooth="yes"/>
      <point x="1044.0425" y="228.105"/>
      <point x="886.6075" y="71.45"/>
    </contour>
  </outline>
</glyph>
<glyph name="ordfeminine" format="2">
  <advance width="549.1899999999999"/>
  <unicode hex="00AA"/>
  <outline>
    <contour>
      <point x="363.20250000000004" y="641.1075" type="line"/>
      <point x="473.56249999999994" y="641.1075" type="line"/>
      <point x="473.56249999999994" y="1074.02" type="line" smooth="yes"/>
      <point x="473.56249999999994" y="1205.9075"/>
      <point x="420.17" y="1290.6775"/>
      <point x="266.8125" y="1290.6775" type="curve" smooth="yes"/>
      <point x="190.065" y="1290.6775"/>
      <point x="126.07000000000001" y="1265.6025"/>
      <point x="81.22" y="1237.1725" type="curve"/>
      <point x="71.94" y="1138.6575" type="line"/>
      <point x="121.6125" y="1169.7324999999998"/>
      <point x="182.8975" y="1196.6625"/>
      <point x="249.89749999999998" y="1196.6625" type="curve" smooth="yes"/>
      <point x="334.9075" y="1196.6625"/>
      <point x="365.95" y="1153.0400000000002"/>
      <point x="365.95" y="1075.875" type="curve"/>
      <point x="365.95" y="1014.65" type="line"/>
      <point x="365.95" y="781.925" type="line"/>
      <point x="368.5575" y="776.3924999999999" type="line"/>
    </contour>
    <contour>
      <point x="209.23" y="629.8225" type="curve" smooth="yes"/>
      <point x="307.02500000000003" y="629.8225"/>
      <point x="348.395" y="682.945"/>
      <point x="364.5675" y="753.245" type="curve"/>
      <point x="383.88" y="753.245" type="line"/>
      <point x="367.95" y="825.5975000000001" type="line"/>
      <point x="355.235" y="767.5725"/>
      <point x="312.2625" y="723.3375"/>
      <point x="248.80749999999998" y="723.3375" type="curve" smooth="yes"/>
      <point x="186.96" y="723.3375"/>
      <point x="161.45000000000002" y="759.39"/>
      <point x="161.45000000000002" y="814.27" type="curve" smooth="yes"/>
      <point x="161.45000000000002" y="840.6675" type="line" smooth="yes"/>
      <point x="161.45000000000002" y="897.865"/>
      <point x="186.1" y="926.1274999999999"/>
      <point x="257.415" y="942.1700000000001" type="curve" smooth="yes"/>
      <point x="388.37" y="970.32" type="line"/>
      <point x="379.59000000000003" y="1052.845" type="line"/>
      <point x="230.29000000000002" y="1021.4100000000001" type="line" smooth="yes"/>
      <point x="100.22499999999998" y="992.8025"/>
      <point x="52.2675" y="939.4100000000001"/>
      <point x="52.2675" y="835.35" type="curve" smooth="yes"/>
      <point x="52.2675" y="804.3125" type="line" smooth="yes"/>
      <point x="52.2675" y="692.0325"/>
      <point x="105.26750000000001" y="629.8225"/>
    </contour>
  </outline>
</glyph>
<glyph name="logicalnot" format="2">
  <advance width="849.775"/>
  <unicode hex="00AC"/>
  <outline>
    <contour>
      <point x="748.75" y="255.86499999999995" type="line"/>
      <point x="748.75" y="640.8825" type="line"/>
      <point x="616.8025" y="640.8825" type="line"/>
      <point x="616.8025" y="255.86499999999995" type="line"/>
    </contour>
    <contour>
      <point x="80.6875" y="566.5075" type="line"/>
      <point x="748.75" y="566.5075" type="line"/>
      <point x="748.75" y="692.245" type="line"/>
      <point x="80.6875" y="692.245" type="line"/>
    </contour>
  </outline>
</glyph>
<glyph name="registered" format="2">
  <advance width="730.5074999999999"/>
  <unicode hex="00AE"/>
  <outline>
    <contour>
      <point x="365.3075" y="549.6" type="curve" smooth="yes"/>
      <point x="560.3575" y="549.6"/>
      <point x="665.6325" y="665.3"/>
      <point x="665.6325" y="857.79" type="curve" smooth="yes"/>
      <point x="665.6325" y="986.7349999999999" type="line" smooth="yes"/>
      <point x="665.6325" y="1179.5475"/>
      <point x="560.3575" y="1294.5325"/>
      <point x="365.3075" y="1294.5325" type="curve" smooth="yes"/>
      <point x="169.865" y="1294.5325"/>
      <point x="64.9825" y="1179.155"/>
      <point x="64.9825" y="986.7349999999999" type="curve" smooth="yes"/>
      <point x="64.9825" y="857.79" type="line" smooth="yes"/>
      <point x="64.9825" y="665.3"/>
      <point x="169.865" y="549.6"/>
    </contour>
    <contour>
      <point x="365.3075" y="613.07" type="curve" smooth="yes"/>
      <point x="212.98499999999999" y="613.07"/>
      <point x="137.2325" y="697.355"/>
      <point x="137.2325" y="854.2574999999999" type="curve" smooth="yes"/>
      <point x="137.2325" y="991.0525" type="line" smooth="yes"/>
      <point x="137.2325" y="1146.67"/>
      <point x="212.98499999999999" y="1230.955"/>
      <point x="365.3075" y="1230.955" type="curve" smooth="yes"/>
      <point x="516.845" y="1230.955"/>
      <point x="592.99" y="1146.67"/>
      <point x="592.99" y="991.0525" type="curve" smooth="yes"/>
      <point x="592.99" y="854.2574999999999" type="line" smooth="yes"/>
      <point x="592.99" y="697.355"/>
      <point x="516.845" y="613.07"/>
    </contour>
    <contour>
      <point x="433.5375" y="733.7574999999999" type="line"/>
      <point x="501.18500000000006" y="733.7574999999999" type="line"/>
      <point x="489.1475" y="812.5475" type="line" smooth="yes"/>
      <point x="479.32500000000005" y="877.585"/>
      <point x="462.82500000000005" y="910.2950000000001"/>
      <point x="407.0075" y="915.9025" type="curve"/>
      <point x="418.1425" y="907.51" type="line"/>
      <point x="419.4325" y="916.3275" type="line"/>
      <point x="472.33000000000004" y="921.3275"/>
      <point x="493.685" y="952.9025"/>
      <point x="493.685" y="1001.2574999999999" type="curve" smooth="yes"/>
      <point x="493.685" y="1017.6225000000001" type="line" smooth="yes"/>
      <point x="493.685" y="1086.9399999999998"/>
      <point x="457.975" y="1122.08"/>
      <point x="380.41499999999996" y="1122.08" type="curve" smooth="yes"/>
      <point x="301.26500000000004" y="1122.08" type="line"/>
      <point x="301.26500000000004" y="1066.105" type="line"/>
      <point x="375.49" y="1066.105" type="line" smooth="yes"/>
      <point x="413.21500000000003" y="1066.105"/>
      <point x="427.42999999999995" y="1044.3474999999999"/>
      <point x="427.42999999999995" y="1007.7725" type="curve" smooth="yes"/>
      <point x="427.42999999999995" y="991.1925" type="line" smooth="yes"/>
      <point x="427.42999999999995" y="952.08"/>
      <point x="411.85499999999996" y="932.1825"/>
      <point x="373.38250000000005" y="931.7900000000001" type="curve" smooth="yes"/>
      <point x="303.0875" y="931.3975" type="line"/>
      <point x="303.0875" y="876.2075" type="line"/>
      <point x="363.95250000000004" y="876.2075" type="line" smooth="yes"/>
      <point x="401.0275" y="876.2075"/>
      <point x="416.64" y="859.5300000000001"/>
      <point x="423.89250000000004" y="806.3375" type="curve" smooth="yes"/>
    </contour>
    <contour>
      <point x="255.645" y="733.7574999999999" type="line"/>
      <point x="321.5075" y="733.7574999999999" type="line"/>
      <point x="321.5075" y="890.4875000000001" type="line"/>
      <point x="321.5075" y="913.085" type="line"/>
      <point x="321.5075" y="1122.08" type="line"/>
      <point x="255.645" y="1122.08" type="line"/>
    </contour>
  </outline>
</glyph>
<glyph name="degree" format="2">
  <advance width="577.48"/>
  <unicode hex="00B0"/>
  <outline>
    <contour>
      <point x="288.8825" y="803.7125000000001" type="curve" smooth="yes"/>
      <point x="428.255" y="803.7125000000001"/>
      <point x="505.63750000000005" y="891.815"/>
      <point x="505.63750000000005" y="1043.945" type="curve" smooth="yes"/>
      <point x="505.63750000000005" y="1059.4775" type="line" smooth="yes"/>
      <point x="505.63750000000005" y="1211.215"/>
      <point x="428.255" y="1299.21"/>
      <point x="288.8825" y="1299.21" type="curve" smooth="yes"/>
      <point x="149.225" y="1299.21"/>
      <point x="71.8425" y="1211.215"/>
      <point x="71.8425" y="1059.4775" type="curve" smooth="yes"/>
      <point x="71.8425" y="1043.945" type="line" smooth="yes"/>
      <point x="71.8425" y="891.9225"/>
      <point x="149.225" y="803.7125000000001"/>
    </contour>
    <contour>
      <point x="288.8825" y="906.0775" type="curve" smooth="yes"/>
      <point x="221.465" y="906.0775"/>
      <point x="187.4125" y="955.775"/>
      <point x="187.4125" y="1042.8375" type="curve" smooth="yes"/>
      <point x="187.4125" y="1060.1925" type="line" smooth="yes"/>
      <point x="187.4125" y="1146.8625000000002"/>
      <point x="221.35750000000002" y="1196.845"/>
      <point x="288.8825" y="1196.845" type="curve" smooth="yes"/>
      <point x="356.9075" y="1196.845"/>
      <point x="389.96" y="1146.8625000000002"/>
      <point x="389.96" y="1060.1925" type="curve" smooth="yes"/>
      <point x="389.96" y="1042.8375" type="line" smooth="yes"/>
      <point x="389.96" y="955.6675"/>
      <point x="356.9075" y="906.0775"/>
    </contour>
  </outline>
</glyph>
<glyph name="plusminus" format="2">
  <advance width="858.5225"/>
  <unicode hex="00B1"/>
  <outline>
    <contour>
      <point x="95.6225" y="178.055" type="line"/>
      <point x="762.9" y="178.055" type="line"/>
      <point x="762.9" y="301.33" type="line"/>
      <point x="95.6225" y="301.33" type="line"/>
    </contour>
    <contour>
      <point x="495.235" y="422.495" type="line"/>
      <point x="495.235" y="1046.1950000000002" type="line"/>
      <point x="363.17999999999995" y="1046.1950000000002" type="line"/>
      <point x="363.17999999999995" y="422.495" type="line"/>
    </contour>
    <contour>
      <point x="95.6225" y="672.3149999999999" type="line"/>
      <point x="762.9" y="672.3149999999999" type="line"/>
      <point x="762.9" y="796.375" type="line"/>
      <point x="95.6225" y="796.375" type="line"/>
    </contour>
  </outline>
</glyph>
<glyph name="twosuperior" format="2">
  <advance width="472.36749999999995"/>
  <unicode hex="00B2"/>
  <outline>
    <contour>
      <point x="33.364999999999995" y="712.8924999999999" type="line"/>
      <point x="434.1425" y="712.8924999999999" type="line"/>
      <point x="434.1425" y="809.0474999999999" type="line"/>
      <point x="124.51499999999999" y="809.0474999999999" type="line"/>
      <point x="170.415" y="789.8050000000001" type="line"/>
      <point x="170.415" y="814.51" type="line"/>
      <point x="282.2625" y="938.0075" type="line" smooth="yes"/>
      <point x="377.4925" y="1043.215"/>
      <point x="427.175" y="1112.8225"/>
      <point x="427.175" y="1209.4350000000002" type="curve" smooth="yes"/>
      <point x="427.175" y="1223.365" type="line" smooth="yes"/>
      <point x="427.175" y="1336.8974999999998"/>
      <point x="358.115" y="1405.5325"/>
      <point x="223.635" y="1405.5325" type="curve" smooth="yes"/>
      <point x="155.28" y="1405.5325"/>
      <point x="91.7475" y="1385.0975"/>
      <point x="51.36" y="1361.1675" type="curve"/>
      <point x="42.2575" y="1262.19" type="line"/>
      <point x="86.655" y="1285.6625"/>
      <point x="137.79999999999998" y="1307.3075000000001"/>
      <point x="200.9775" y="1307.3075000000001" type="curve" smooth="yes"/>
      <point x="279.16499999999996" y="1307.3075000000001"/>
      <point x="311.82" y="1271.69"/>
      <point x="311.82" y="1208.6274999999998" type="curve" smooth="yes"/>
      <point x="311.82" y="1197.945" type="line" smooth="yes"/>
      <point x="311.82" y="1129.3125"/>
      <point x="268.9225" y="1072.6625000000001"/>
      <point x="188.04250000000002" y="982.0575" type="curve" smooth="yes"/>
      <point x="33.364999999999995" y="814.085" type="line"/>
    </contour>
  </outline>
</glyph>
<glyph name="threesuperior" format="2">
  <advance width="487.75999999999993"/>
  <unicode hex="00B3"/>
  <outline>
    <contour>
      <point x="215.6725" y="699.6450000000001" type="curve" smooth="yes"/>
      <point x="379.0875" y="699.6450000000001"/>
      <point x="440.32000000000005" y="781.79"/>
      <point x="440.32000000000005" y="885.1675" type="curve" smooth="yes"/>
      <point x="440.32000000000005" y="914.9675" type="line" smooth="yes"/>
      <point x="440.32000000000005" y="1004.3925"/>
      <point x="400.7125" y="1055.3275"/>
      <point x="311.84749999999997" y="1067.0" type="curve"/>
      <point x="315.805" y="1057.435" type="line"/>
      <point x="316.5575" y="1070.1025" type="line"/>
      <point x="400.82" y="1082.6675"/>
      <point x="435.60499999999996" y="1136.355"/>
      <point x="435.60499999999996" y="1213.4950000000001" type="curve" smooth="yes"/>
      <point x="435.60499999999996" y="1236.935" type="line" smooth="yes"/>
      <point x="435.60499999999996" y="1343.57"/>
      <point x="369.8675" y="1405.0325"/>
      <point x="225.99" y="1405.0325" type="curve" smooth="yes"/>
      <point x="148.8125" y="1405.0325"/>
      <point x="87.71000000000001" y="1385.1725000000001"/>
      <point x="47.86" y="1362.28" type="curve"/>
      <point x="37.972500000000004" y="1268.7975" type="line"/>
      <point x="79.365" y="1289.6950000000002"/>
      <point x="135.6125" y="1310.8400000000001"/>
      <point x="203.47249999999997" y="1310.8400000000001" type="curve" smooth="yes"/>
      <point x="290.7725" y="1310.8400000000001"/>
      <point x="321.32" y="1276.755"/>
      <point x="321.32" y="1219.9125" type="curve" smooth="yes"/>
      <point x="321.32" y="1198.4725" type="line" smooth="yes"/>
      <point x="321.32" y="1133.3075"/>
      <point x="281.5625" y="1108.76"/>
      <point x="203.37" y="1106.975" type="curve" smooth="yes"/>
      <point x="109.08" y="1104.7975" type="line"/>
      <point x="109.08" y="1019.3850000000001" type="line"/>
      <point x="207.51500000000001" y="1016.8149999999999" type="line" smooth="yes"/>
      <point x="294.27750000000003" y="1014.6375"/>
      <point x="323.96500000000003" y="980.6975"/>
      <point x="323.96500000000003" y="923.425" type="curve" smooth="yes"/>
      <point x="323.96500000000003" y="897.48" type="line" smooth="yes"/>
      <point x="323.96500000000003" y="840.245"/>
      <point x="295.95500000000004" y="796.585"/>
      <point x="198.83249999999998" y="796.585" type="curve" smooth="yes"/>
      <point x="134.36499999999998" y="796.585"/>
      <point x="76.28999999999999" y="816.5525"/>
      <point x="33.364999999999995" y="837.9125" type="curve"/>
      <point x="43.252500000000005" y="737.5425" type="line"/>
      <point x="78.355" y="719.4350000000001"/>
      <point x="141.27499999999998" y="699.6450000000001"/>
    </contour>
  </outline>
</glyph>
<glyph name="micro" format="2">
  <advance width="903.6125000000001"/>
  <unicode hex="00B5"/>
  <outline>
    <contour>
      <point x="791.1625" y="986.3875" type="line"/>
      <point x="637.9825" y="986.3875" type="line"/>
      <point x="637.9825" y="206.68249999999998" type="line"/>
      <point x="644.23" y="198.44" type="line"/>
      <point x="637.4825" y="0.0" type="line"/>
      <point x="791.1625" y="0.0" type="line"/>
    </contour>
    <contour>
      <point x="266.13" y="332.175" type="curve" smooth="yes"/>
      <point x="266.13" y="986.3875" type="line"/>
      <point x="112.44999999999999" y="986.3875" type="line"/>
      <point x="112.44999999999999" y="-347.0" type="line"/>
      <point x="260.92" y="-347.0" type="line"/>
      <point x="260.92" y="-187.495" type="line"/>
      <point x="248.64" y="116.2275" type="line"/>
      <point x="253.70499999999998" y="116.2275" type="line"/>
      <point x="278.84499999999997" y="34.675"/>
      <point x="331.8975" y="-16.392500000000002"/>
      <point x="435.54499999999996" y="-16.392500000000002" type="curve" smooth="yes"/>
      <point x="551.22" y="-16.392500000000002"/>
      <point x="613.9975" y="54.38999999999999"/>
      <point x="637.7075" y="182.58249999999998" type="curve"/>
      <point x="672.4725" y="182.58249999999998" type="line"/>
      <point x="642.09" y="297.48" type="line"/>
      <point x="621.4075" y="189.435"/>
      <point x="554.6725" y="112.3775"/>
      <point x="447.395" y="112.3775" type="curve" smooth="yes"/>
      <point x="320.795" y="112.3775"/>
      <point x="266.13" y="193.295"/>
    </contour>
  </outline>
</glyph>
<glyph name="paragraph" format="2">
  <advance width="632.63"/>
  <unicode hex="00B6"/>
  <outline>
    <contour>
      <point x="319.485" y="660.015" type="curve"/>
      <point x="398.0025" y="660.015" type="line"/>
      <point x="397.61" y="1278.0" type="line"/>
      <point x="319.16249999999997" y="1278.0" type="line" smooth="yes"/>
      <point x="151.61749999999998" y="1278.0"/>
      <point x="75.305" y="1182.7525"/>
      <point x="75.305" y="1021.9124999999999" type="curve" smooth="yes"/>
      <point x="75.305" y="917.3175" type="line" smooth="yes"/>
      <point x="75.305" y="753.8000000000001"/>
      <point x="151.61749999999998" y="660.015"/>
    </contour>
    <contour>
      <point x="505.53499999999997" y="0.0" type="line"/>
      <point x="505.53499999999997" y="1278.0" type="line"/>
      <point x="352.71" y="1278.0" type="line"/>
      <point x="352.3175" y="0.0" type="line"/>
    </contour>
  </outline>
</glyph>
<glyph name="onesuperior" format="2">
  <advance width="364.0075"/>
  <unicode hex="00B9"/>
  <outline>
    <contour>
      <point x="182.095" y="712.8924999999999" type="line"/>
      <point x="291.73999999999995" y="712.8924999999999" type="line"/>
      <point x="291.73999999999995" y="1393.785" type="line"/>
      <point x="186.65" y="1393.785" type="line"/>
      <point x="26.360000000000003" y="1288.0875" type="line"/>
      <point x="23.1125" y="1176.19" type="line"/>
      <point x="174.74" y="1276.005" type="line"/>
      <point x="181.70250000000001" y="1276.005" type="line"/>
    </contour>
  </outline>
</glyph>
<glyph name="ordmasculine" format="2">
  <advance width="584.9425"/>
  <unicode hex="00BA"/>
  <outline>
    <contour>
      <point x="292.27500000000003" y="629.8225" type="curve" smooth="yes"/>
      <point x="442.64750000000004" y="629.8225"/>
      <point x="521.9225" y="717.9575"/>
      <point x="521.9225" y="882.3725000000001" type="curve" smooth="yes"/>
      <point x="521.9225" y="1040.665" type="line" smooth="yes"/>
      <point x="521.9225" y="1204.6875"/>
      <point x="443.4325" y="1292.215"/>
      <point x="292.27500000000003" y="1292.215" type="curve" smooth="yes"/>
      <point x="142.40249999999997" y="1292.215"/>
      <point x="63.019999999999996" y="1204.6875"/>
      <point x="63.019999999999996" y="1040.665" type="curve" smooth="yes"/>
      <point x="63.019999999999996" y="882.3725000000001" type="line" smooth="yes"/>
      <point x="63.019999999999996" y="717.4575"/>
      <point x="142.29500000000002" y="629.8225"/>
    </contour>
    <contour>
      <point x="292.6675" y="724.23" type="curve" smooth="yes"/>
      <point x="215.035" y="724.23"/>
      <point x="177.51999999999998" y="776.3525000000001"/>
      <point x="177.51999999999998" y="872.63" type="curve" smooth="yes"/>
      <point x="177.51999999999998" y="1051.085" type="line" smooth="yes"/>
      <point x="177.51999999999998" y="1146.6850000000002"/>
      <point x="215.035" y="1197.8075"/>
      <point x="292.6675" y="1197.8075" type="curve" smooth="yes"/>
      <point x="369.90749999999997" y="1197.8075"/>
      <point x="407.315" y="1146.9"/>
      <point x="407.315" y="1051.085" type="curve" smooth="yes"/>
      <point x="407.315" y="872.63" type="line" smooth="yes"/>
      <point x="407.315" y="775.3525000000001"/>
      <point x="369.40749999999997" y="724.23"/>
    </contour>
  </outline>
</glyph>
<glyph name="guillemetright" format="2">
  <advance width="847.2774999999999"/>
  <unicode hex="00BB"/>
  <outline>
    <contour>
      <point x="274.835" y="492.92499999999995" type="line"/>
      <point x="51.17" y="96.58" type="line"/>
      <point x="198.0375" y="96.58" type="line"/>
      <point x="413.9875" y="472.5" type="line"/>
      <point x="413.9875" y="513.7425000000001" type="line"/>
      <point x="198.0375" y="887.3075" type="line"/>
      <point x="51.17" y="887.3075" type="line"/>
    </contour>
    <contour>
      <point x="640.5625" y="492.92499999999995" type="line"/>
      <point x="416.8975" y="96.58" type="line"/>
      <point x="563.765" y="96.58" type="line"/>
      <point x="779.7149999999999" y="472.5" type="line"/>
      <point x="779.7149999999999" y="513.7425000000001" type="line"/>
      <point x="563.765" y="887.3075" type="line"/>
      <point x="416.8975" y="887.3075" type="line"/>
    </contour>
  </outline>
</glyph>
<glyph name="questiondown" format="2">
  <advance width="699.315"/>
  <unicode hex="00BF"/>
  <outline>
    <contour>
      <point x="495.01000000000005" y="615.0325" type="line"/>
      <point x="401.9325" y="582.43" type="line" smooth="yes"/>
      <point x="181.575" y="508.4625"/>
      <point x="77.595" y="402.1825"/>
      <point x="77.595" y="170.0625" type="curve" smooth="yes"/>
      <point x="77.595" y="11.942499999999999" type="line" smooth="yes"/>
      <point x="77.595" y="-196.04749999999999"/>
      <point x="170.68249999999998" y="-311.43"/>
      <point x="381.19" y="-311.43" type="curve" smooth="yes"/>
      <point x="494.0725" y="-311.43"/>
      <point x="586.675" y="-275.64000000000004"/>
      <point x="641.1324999999999" y="-241.8875" type="curve"/>
      <point x="658.1225000000001" y="-104.8325" type="line"/>
      <point x="590.8425" y="-144.23"/>
      <point x="509.12750000000005" y="-176.23499999999999"/>
      <point x="417.015" y="-176.23499999999999" type="curve" smooth="yes"/>
      <point x="282.03249999999997" y="-176.23499999999999"/>
      <point x="231.6675" y="-105.4675"/>
      <point x="231.6675" y="29.927500000000002" type="curve" smooth="yes"/>
      <point x="231.6675" y="172.6325" type="line" smooth="yes"/>
      <point x="231.6675" y="322.8125"/>
      <point x="285.9725" y="394.935"/>
      <point x="436.165" y="448.665" type="curve" smooth="yes"/>
      <point x="495.01000000000005" y="468.95" type="line"/>
    </contour>
    <contour>
      <point x="433.405" y="1003.9525" type="curve" smooth="yes"/>
      <point x="372.08" y="1003.9525"/>
      <point x="342.13250000000005" y="965.435"/>
      <point x="342.13250000000005" y="895.7125" type="curve" smooth="yes"/>
      <point x="342.13250000000005" y="882.32" type="line" smooth="yes"/>
      <point x="342.13250000000005" y="813.5975"/>
      <point x="372.08" y="775.0799999999999"/>
      <point x="433.405" y="775.0799999999999" type="curve" smooth="yes"/>
      <point x="496.085" y="775.0799999999999"/>
      <point x="524.355" y="813.5975"/>
      <point x="524.355" y="882.32" type="curve" smooth="yes"/>
      <point x="524.355" y="895.7125" type="line" smooth="yes"/>
      <point x="524.355" y="965.435"/>
      <point x="496.085" y="1003.9525"/>
    </contour>
  </outline>
</glyph>
<glyph name="AE" format="2">
  <advance width="1378.0175"/>
  <unicode hex="00C6"/>
  <anchor x="688.74" y="0.0" name="bottom"/>
  <anchor x="688.74" y="1278.0" name="top"/>
  <outline>
    <contour>
      <point x="44.02" y="0.0" type="line"/>
      <point x="204.84" y="0.0" type="line"/>
      <point x="625.045" y="1167.785" type="line"/>
      <point x="696.3249999999999" y="1167.785" type="line"/>
      <point x="696.3249999999999" y="1278.0" type="line"/>
      <point x="513.55" y="1278.0" type="line"/>
    </contour>
    <contour>
      <point x="280.92" y="371.93" type="line"/>
      <point x="721.9875" y="371.93" type="line"/>
      <point x="721.9875" y="503.66249999999997" type="line"/>
      <point x="280.92" y="503.66249999999997" type="line"/>
    </contour>
    <contour>
      <point x="740.715" y="0.0" type="line"/>
      <point x="1298.7925" y="0.0" type="line"/>
      <point x="1298.7925" y="135.48" type="line"/>
      <point x="740.715" y="135.48" type="line"/>
    </contour>
    <contour>
      <point x="673.7325" y="0.0" type="line"/>
      <point x="828.1275" y="0.0" type="line"/>
      <point x="828.1275" y="1278.0" type="line"/>
      <point x="673.7325" y="1278.0" type="line"/>
    </contour>
    <contour>
      <point x="767.3075" y="585.7275" type="line"/>
      <point x="1284.545" y="585.7275" type="line"/>
      <point x="1284.545" y="719.9225" type="line"/>
      <point x="767.3075" y="719.9225" type="line"/>
    </contour>
    <contour>
      <point x="738.8924999999999" y="1142.9125000000001" type="line"/>
      <point x="1295.5075" y="1142.9125000000001" type="line"/>
      <point x="1295.5075" y="1278.0" type="line"/>
      <point x="738.8924999999999" y="1278.0" type="line"/>
    </contour>
  </outline>
</glyph>
<glyph name="Eth" format="2">
  <advance width="972.435"/>
  <unicode hex="00D0"/>
  <anchor x="476.755" y="0.0" name="bottom"/>
  <anchor x="491.5025" y="639.0" name="center"/>
  <anchor x="476.755" y="1278.0" name="top"/>
  <outline>
    <contour>
      <point x="10.5425" y="598.4375" type="line"/>
      <point x="513.685" y="598.4375" type="line"/>
      <point x="513.685" y="718.0025" type="line"/>
      <point x="10.5425" y="718.0025" type="line"/>
    </contour>
    <component base="D"/>
  </outline>
</glyph>
<glyph name="multiply" format="2">
  <advance width="798.27"/>
  <unicode hex="00D7"/>
  <outline>
    <contour>
      <point x="720.24" y="368.7225" type="line"/>
      <point x="173.8675" y="967.5500000000001" type="line"/>
      <point x="83.7825" y="889.745" type="line"/>
      <point x="629.9399999999999" y="290.02500000000003" type="line"/>
    </contour>
    <contour>
      <point x="78.03" y="368.7225" type="line"/>
      <point x="168.32999999999998" y="290.02500000000003" type="line"/>
      <point x="714.4875000000001" y="889.745" type="line"/>
      <point x="624.4024999999999" y="967.5500000000001" type="line"/>
    </contour>
  </outline>
</glyph>
<glyph name="Oslash" format="2">
  <advance width="979.355"/>
  <unicode hex="00D8"/>
  <anchor x="489.53499999999997" y="0.0" name="bottom"/>
  <anchor x="489.53499999999997" y="639.3924999999999" name="center"/>
  <anchor x="886.6125000000001" y="10.3925" name="ogonek"/>
  <anchor x="489.53499999999997" y="1278.0" name="top"/>
  <anchor x="13.1075" y="1278.3925000000002" name="topleft"/>
  <anchor x="965.4625000000001" y="1278.3925000000002" name="topright"/>
  <outline>
    <contour>
      <point x="490.2124999999999" y="-21.21" type="curve" smooth="yes"/>
      <point x="749.925" y="-21.21"/>
      <point x="885.8725" y="132.3125"/>
      <point x="885.8725" y="418.035" type="curve" smooth="yes"/>
      <point x="885.8725" y="858.965" type="line" smooth="yes"/>
      <point x="885.8725" y="1138.6925"/>
      <point x="741.9675" y="1299.21"/>
      <point x="488.6424999999999" y="1299.21" type="curve" smooth="yes"/>
      <point x="228.43" y="1299.21"/>
      <point x="93.4825" y="1144.6875"/>
      <point x="93.4825" y="859.75" type="curve" smooth="yes"/>
      <point x="93.4825" y="418.82" type="line" smooth="yes"/>
      <point x="93.4825" y="138.7"/>
      <point x="236.38750000000002" y="-21.21"/>
    </contour>
    <contour>
      <point x="123.67" y="-73.8225" type="line"/>
      <point x="255.40749999999997" y="-73.8225" type="line"/>
      <point x="325.785" y="82.86749999999999" type="line"/>
      <point x="334.925" y="107.7875" type="line"/>
      <point x="731.4125" y="1103.1399999999999" type="line"/>
      <point x="760.3925" y="1155.895" type="line"/>
      <point x="855.685" y="1351.6074999999998" type="line"/>
      <point x="723.84" y="1351.6074999999998" type="line"/>
      <point x="664.9525" y="1223.0700000000002" type="line"/>
      <point x="652.4575" y="1182.52" type="line"/>
      <point x="253.43749999999997" y="180.0" type="line"/>
      <point x="221.8175" y="132.1325" type="line"/>
    </contour>
    <contour>
      <point x="489.42749999999995" y="111.34500000000001" type="curve" smooth="yes"/>
      <point x="324.8275" y="111.34500000000001"/>
      <point x="250.2325" y="217.1875"/>
      <point x="250.2325" y="386.52750000000003" type="curve" smooth="yes"/>
      <point x="250.2325" y="868.315" type="line" smooth="yes"/>
      <point x="250.2325" y="1062.205"/>
      <point x="327.86" y="1166.655"/>
      <point x="489.42749999999995" y="1166.655" type="curve" smooth="yes"/>
      <point x="654.135" y="1166.655"/>
      <point x="729.1225000000001" y="1062.0974999999999"/>
      <point x="729.1225000000001" y="891.865" type="curve" smooth="yes"/>
      <point x="729.1225000000001" y="410.07750000000004" type="line" smooth="yes"/>
      <point x="729.1225000000001" y="216.6875"/>
      <point x="650.7099999999999" y="111.34500000000001"/>
    </contour>
  </outline>
</glyph>
<glyph name="Thorn" format="2">
  <advance width="912.5375"/>
  <unicode hex="00DE"/>
  <anchor x="455.8575" y="0.0" name="bottom"/>
  <anchor x="455.8575" y="1278.0" name="top"/>
  <outline>
    <contour>
      <point x="222.66500000000002" y="215.2725" type="line"/>
      <point x="491.39500000000004" y="215.2725" type="line" smooth="yes"/>
      <point x="732.2149999999999" y="215.2725"/>
      <point x="840.2700000000001" y="343.1975"/>
      <point x="840.2700000000001" y="565.775" type="curve" smooth="yes"/>
      <point x="840.2700000000001" y="720.9725000000001" type="line" smooth="yes"/>
      <point x="840.2700000000001" y="939.98"/>
      <point x="732.7149999999999" y="1069.4375"/>
      <point x="491.93249999999995" y="1069.4375" type="curve" smooth="yes"/>
      <point x="223.98749999999998" y="1069.4375" type="line"/>
      <point x="223.98749999999998" y="937.205" type="line"/>
      <point x="487.18500000000006" y="937.205" type="line" smooth="yes"/>
      <point x="625.505" y="937.205"/>
      <point x="683.9125" y="858.0725"/>
      <point x="683.9125" y="717.01" type="curve" smooth="yes"/>
      <point x="683.9125" y="569.345" type="line" smooth="yes"/>
      <point x="683.9125" y="428.6375"/>
      <point x="625.3975" y="348.005"/>
      <point x="485.47" y="348.005" type="curve" smooth="yes"/>
      <point x="222.66500000000002" y="348.005" type="line"/>
    </contour>
    <contour>
      <point x="127.095" y="0.0" type="line"/>
      <point x="281.8825" y="0.0" type="line"/>
      <point x="281.8825" y="258.21" type="line"/>
      <point x="281.48999999999995" y="299.255" type="line"/>
      <point x="281.48999999999995" y="979.7125000000001" type="line"/>
      <point x="281.8825" y="1043.06" type="line"/>
      <point x="281.8825" y="1278.0" type="line"/>
      <point x="127.095" y="1278.0" type="line"/>
    </contour>
  </outline>
</glyph>
<glyph name="germandbls" format="2">
  <advance width="968.8824999999999"/>
  <unicode hex="00DF"/>
  <anchor x="463.53" y="0.0" name="bottom"/>
  <anchor x="463.53" y="986.3875" name="top"/>
  <outline>
    <contour>
      <point x="112.44999999999999" y="1019.1375" type="curve" smooth="yes"/>
      <point x="112.44999999999999" y="0.0" type="line"/>
      <point x="262.49" y="0.0" type="line"/>
      <point x="262.49" y="1012.535" type="line" smooth="yes"/>
      <point x="262.49" y="1151.99"/>
      <point x="310.6075" y="1227.6875"/>
      <point x="450.71750000000003" y="1227.6875" type="curve" smooth="yes"/>
      <point x="576.435" y="1227.6875"/>
      <point x="625.515" y="1168.9850000000001"/>
      <point x="625.515" y="1094.1425" type="curve" smooth="yes"/>
      <point x="625.515" y="961.3875"/>
      <point x="415.7275" y="889.4025"/>
      <point x="415.7275" y="703.7475000000001" type="curve" smooth="yes"/>
      <point x="415.7275" y="696.7475000000001" type="line" smooth="yes"/>
      <point x="415.7275" y="575.29"/>
      <point x="468.86749999999995" y="525.6125"/>
      <point x="606.5875" y="456.6925" type="curve" smooth="yes"/>
      <point x="726.2149999999999" y="396.1925"/>
      <point x="752.0374999999999" y="352.1025"/>
      <point x="752.0374999999999" y="271.54" type="curve" smooth="yes"/>
      <point x="752.0374999999999" y="252.95999999999998" type="line" smooth="yes"/>
      <point x="752.0374999999999" y="166.1775"/>
      <point x="701.9525" y="115.555"/>
      <point x="598.1850000000001" y="115.555" type="curve" smooth="yes"/>
      <point x="528.035" y="115.555"/>
      <point x="467.86249999999995" y="136.9475"/>
      <point x="408.325" y="167.63000000000002" type="curve"/>
      <point x="420.4975" y="25.327499999999997" type="line"/>
      <point x="467.92249999999996" y="3.6825"/>
      <point x="530.5625" y="-17.1775"/>
      <point x="618.4875" y="-17.1775" type="curve" smooth="yes"/>
      <point x="795.6725" y="-17.1775"/>
      <point x="902.0774999999999" y="76.3825"/>
      <point x="902.0774999999999" y="249.14249999999998" type="curve" smooth="yes"/>
      <point x="902.0774999999999" y="273.03999999999996" type="line" smooth="yes"/>
      <point x="902.0774999999999" y="418.2125"/>
      <point x="844.5875" y="480.28749999999997"/>
      <point x="708.6850000000001" y="547.4975" type="curve" smooth="yes"/>
      <point x="605.5200000000001" y="598.75"/>
      <point x="565.5525" y="631.54"/>
      <point x="565.5525" y="704.775" type="curve" smooth="yes"/>
      <point x="565.5525" y="711.99" type="line" smooth="yes"/>
      <point x="565.5525" y="844.605"/>
      <point x="777.9100000000001" y="912.5625"/>
      <point x="777.9100000000001" y="1100.4225" type="curve"/>
      <point x="777.9100000000001" y="1255.285"/>
      <point x="666.0475" y="1351.855"/>
      <point x="453.07250000000005" y="1351.855" type="curve" smooth="yes"/>
      <point x="210.1825" y="1351.855"/>
      <point x="112.44999999999999" y="1237.075"/>
    </contour>
  </outline>
</glyph>
<glyph name="ae" format="2">
  <advance width="1313.355"/>
  <unicode hex="00E6"/>
  <anchor x="655.3575000000001" y="0.0" name="bottom"/>
  <anchor x="655.3575000000001" y="986.3875" name="top"/>
  <outline>
    <contour>
      <point x="942.8749999999999" y="-17.962500000000002" type="curve" smooth="yes"/>
      <point x="1053.9724999999999" y="-17.962500000000002"/>
      <point x="1147.8925" y="12.3275"/>
      <point x="1215.42" y="55.332499999999996" type="curve"/>
      <point x="1228.27" y="190.785" type="line"/>
      <point x="1153.56" y="144.3825"/>
      <point x="1068.35" y="113.985"/>
      <point x="969.8875" y="113.985" type="curve" smooth="yes"/>
      <point x="800.2475" y="113.985"/>
      <point x="721.5875" y="199.6075"/>
      <point x="721.5875" y="349.7825" type="curve" smooth="yes"/>
      <point x="721.5875" y="470.89250000000004" type="line"/>
      <point x="721.5875" y="493.7375" type="line"/>
      <point x="721.5875" y="652.37" type="line" smooth="yes"/>
      <point x="721.5875" y="800.1625"/>
      <point x="781.5375" y="881.1125000000001"/>
      <point x="908.1049999999999" y="881.1125000000001" type="curve" smooth="yes"/>
      <point x="1033.565" y="881.1125000000001"/>
      <point x="1094.4775" y="802.8025"/>
      <point x="1094.4775" y="654.8" type="curve" smooth="yes"/>
      <point x="1094.4775" y="589.2625"/>
      <point x="1094.085" y="515.8425"/>
      <point x="1093.3" y="424.53499999999997" type="curve"/>
      <point x="1232.775" y="424.53499999999997" type="line"/>
      <point x="1239.415" y="473.78249999999997"/>
      <point x="1241.77" y="520.0575"/>
      <point x="1241.77" y="568.3000000000001" type="curve" smooth="yes"/>
      <point x="1241.77" y="643.525" type="line" smooth="yes"/>
      <point x="1241.77" y="871.9725"/>
      <point x="1135.635" y="1007.135"/>
      <point x="925.09" y="1007.135" type="curve" smooth="yes"/>
      <point x="772.4875" y="1007.135"/>
      <point x="676.8100000000001" y="932.6999999999999"/>
      <point x="643.675" y="808.9275" type="curve"/>
      <point x="640.2925" y="808.9275" type="line"/>
      <point x="611.8025" y="932.9475"/>
      <point x="531.625" y="1005.135"/>
      <point x="383.2325" y="1005.135" type="curve" smooth="yes"/>
      <point x="265.84000000000003" y="1005.135"/>
      <point x="169.20499999999998" y="962.845"/>
      <point x="107.35499999999999" y="920.9150000000001" type="curve"/>
      <point x="94.50500000000001" y="786.1775" type="line"/>
      <point x="169.57000000000002" y="832.3275"/>
      <point x="265.4575" y="874.08"/>
      <point x="373.02750000000003" y="874.08" type="curve" smooth="yes"/>
      <point x="505.865" y="874.08"/>
      <point x="569.9775" y="804.7375000000001"/>
      <point x="569.9775" y="659.3525" type="curve"/>
      <point x="569.585" y="528.185" type="line"/>
      <point x="569.1925" y="430.3875"/>
      <point x="570.085" y="349.3225"/>
      <point x="573.7625" y="257.945" type="curve"/>
      <point x="587.43" y="237.6275" type="line"/>
      <point x="622.27" y="74.1175"/>
      <point x="742.1474999999999" y="-17.962500000000002"/>
    </contour>
    <contour>
      <point x="318.96750000000003" y="-17.57" type="curve" smooth="yes"/>
      <point x="487.575" y="-17.57"/>
      <point x="566.3325" y="69.66499999999999"/>
      <point x="598.93" y="188.32500000000002" type="curve"/>
      <point x="623.5600000000001" y="188.32500000000002" type="line"/>
      <point x="578.1175" y="287.915" type="line"/>
      <point x="555.4025" y="186.73"/>
      <point x="485.995" y="110.80749999999999"/>
      <point x="364.7875" y="110.80749999999999" type="curve" smooth="yes"/>
      <point x="261.85999999999996" y="110.80749999999999"/>
      <point x="215.7325" y="168.00500000000002"/>
      <point x="215.7325" y="270.5075" type="curve" smooth="yes"/>
      <point x="215.7325" y="302.5225" type="line" smooth="yes"/>
      <point x="215.7325" y="396.33750000000003"/>
      <point x="260.8175" y="442.92249999999996"/>
      <point x="377.7125" y="466.825" type="curve" smooth="yes"/>
      <point x="601.9300000000001" y="511.94249999999994" type="line"/>
      <point x="590.1175000000001" y="629.26" type="line"/>
      <point x="350.08750000000003" y="580.3575" type="line" smooth="yes"/>
      <point x="148.425" y="537.965"/>
      <point x="63.73" y="460.825"/>
      <point x="63.73" y="294.4575" type="curve" smooth="yes"/>
      <point x="63.73" y="248.8825" type="line" smooth="yes"/>
      <point x="63.73" y="77.8875"/>
      <point x="146.9075" y="-17.57"/>
    </contour>
    <contour>
      <point x="652.525" y="424.53499999999997" type="line"/>
      <point x="1194.8325" y="424.53499999999997" type="line"/>
      <point x="1194.8325" y="543.885" type="line"/>
      <point x="652.525" y="543.885" type="line"/>
    </contour>
  </outline>
</glyph>
<glyph name="eth" format="2">
  <advance width="861.7575"/>
  <unicode hex="00F0"/>
  <outline>
    <contour>
      <point x="432.00250000000005" y="-20.355" type="curve" smooth="yes"/>
      <point x="659.72" y="-20.355"/>
      <point x="778.6675" y="112.775"/>
      <point x="778.6675" y="357.5025" type="curve"/>
      <point x="778.6675" y="594.6700000000001" type="line"/>
      <point x="778.6675" y="894.0625"/>
      <point x="647.565" y="1043.79"/>
      <point x="375.7875" y="1327.575" type="curve"/>
      <point x="194.6925" y="1327.575" type="line"/>
      <point x="194.6925" y="1327.1825" type="line"/>
      <point x="480.66499999999996" y="1037.1650000000002"/>
      <point x="608.9075" y="904.6374999999999"/>
      <point x="628.8050000000001" y="709.79" type="curve"/>
      <point x="628.09" y="678.595"/>
      <point x="627.1275" y="658.96"/>
      <point x="626.8425000000001" y="625.8024999999999" type="curve"/>
      <point x="626.8425000000001" y="529.03"/>
      <point x="626.8425000000001" y="440.1075"/>
      <point x="626.8425000000001" y="347.26" type="curve" smooth="yes"/>
      <point x="626.8425000000001" y="189.51"/>
      <point x="561.715" y="105.6675"/>
      <point x="432.00250000000005" y="105.6675" type="curve" smooth="yes"/>
      <point x="301.6825" y="105.6675"/>
      <point x="236.6625" y="189.51"/>
      <point x="236.6625" y="347.26" type="curve" smooth="yes"/>
      <point x="236.6625" y="549.9225" type="line" smooth="yes"/>
      <point x="236.6625" y="708.14"/>
      <point x="299.46750000000003" y="792.6274999999999"/>
      <point x="427.03499999999997" y="792.6274999999999" type="curve" smooth="yes"/>
      <point x="552.625" y="792.6274999999999"/>
      <point x="623.73" y="708.79"/>
      <point x="626.8425000000001" y="560.6525" type="curve"/>
      <point x="649.9125" y="748.7175" type="line"/>
      <point x="611.4" y="745.5875" type="line"/>
      <point x="580.7475" y="851.3199999999999"/>
      <point x="508.46500000000003" y="916.6875"/>
      <point x="381.3975" y="916.6875" type="curve" smooth="yes"/>
      <point x="188.0475" y="916.6875"/>
      <point x="83.08999999999999" y="781.0575"/>
      <point x="83.08999999999999" y="541.395" type="curve" smooth="yes"/>
      <point x="83.08999999999999" y="357.39500000000004" type="line" smooth="yes"/>
      <point x="83.08999999999999" y="112.88250000000001"/>
      <point x="202.60750000000002" y="-20.355"/>
    </contour>
    <contour>
      <point x="173.65" y="996.75" type="line"/>
      <point x="744.8125" y="1166.7975" type="line"/>
      <point x="744.8125" y="1270.0224999999998" type="line"/>
      <point x="173.65" y="1099.475" type="line"/>
    </contour>
  </outline>
</glyph>
